<svg aria-hidden="true" style="width:0;height:0;position:absolute;overflow:hidden" xmlns="http://www.w3.org/2000/svg"><defs><symbol id="bar" viewBox="0 0 24 28"><path d="M24 21v2c0 .547-.453 1-1 1H1c-.547 0-1-.453-1-1v-2c0-.547.453-1 1-1h22c.547 0 1 .453 1 1zm0-8v2c0 .547-.453 1-1 1H1c-.547 0-1-.453-1-1v-2c0-.547.453-1 1-1h22c.547 0 1 .453 1 1zm0-8v2c0 .547-.453 1-1 1H1c-.547 0-1-.453-1-1V5c0-.547.453-1 1-1h22c.547 0 1 .453 1 1z"/></symbol><symbol id="map-marker" viewBox="0 0 16 28"><path d="M12 10c0-2.203-1.797-4-4-4s-4 1.797-4 4 1.797 4 4 4 4-1.797 4-4zm4 0c0 .953-.109 1.937-.516 2.797L9.796 24.891C9.468 25.579 8.749 26 7.999 26s-1.469-.422-1.781-1.109L.515 12.797C.109 11.938-.001 10.953-.001 10c0-4.422 3.578-8 8-8s8 3.578 8 8z"/></symbol><symbol id="phone" viewBox="0 0 22 28"><path d="M22 19.375c0 .562-.25 1.656-.484 2.172-.328.766-1.203 1.266-1.906 1.656-.922.5-1.859.797-2.906.797-1.453 0-2.766-.594-4.094-1.078a14.627 14.627 0 0 1-2.734-1.297c-2.656-1.641-5.859-4.844-7.5-7.5a14.627 14.627 0 0 1-1.297-2.734C.595 10.063.001 8.75.001 7.297c0-1.047.297-1.984.797-2.906.391-.703.891-1.578 1.656-1.906.516-.234 1.609-.484 2.172-.484.109 0 .219 0 .328.047.328.109.672.875.828 1.188.5.891.984 1.797 1.5 2.672.25.406.719.906.719 1.391 0 .953-2.828 2.344-2.828 3.187 0 .422.391.969.609 1.344 1.578 2.844 3.547 4.813 6.391 6.391.375.219.922.609 1.344.609.844 0 2.234-2.828 3.187-2.828.484 0 .984.469 1.391.719.875.516 1.781 1 2.672 1.5.313.156 1.078.5 1.188.828.047.109.047.219.047.328z"/></symbol><symbol id="facebook" viewBox="0 0 16 28"><path d="M14.984.187v4.125h-2.453c-1.922 0-2.281.922-2.281 2.25v2.953h4.578l-.609 4.625H10.25v11.859H5.469V14.14H1.485V9.515h3.984V6.109C5.469 2.156 7.891 0 11.422 0c1.687 0 3.141.125 3.563.187z"/></symbol><symbol id="envelope" viewBox="0 0 28 28"><path d="M28 11.094V23.5c0 1.375-1.125 2.5-2.5 2.5h-23A2.507 2.507 0 0 1 0 23.5V11.094c.469.516 1 .969 1.578 1.359 2.594 1.766 5.219 3.531 7.766 5.391 1.313.969 2.938 2.156 4.641 2.156h.031c1.703 0 3.328-1.188 4.641-2.156 2.547-1.844 5.172-3.625 7.781-5.391a9.278 9.278 0 0 0 1.563-1.359zM28 6.5c0 1.75-1.297 3.328-2.672 4.281-2.438 1.687-4.891 3.375-7.313 5.078-1.016.703-2.734 2.141-4 2.141h-.031c-1.266 0-2.984-1.437-4-2.141-2.422-1.703-4.875-3.391-7.297-5.078-1.109-.75-2.688-2.516-2.688-3.938 0-1.531.828-2.844 2.5-2.844h23c1.359 0 2.5 1.125 2.5 2.5z"/></symbol><symbol id="instagram" viewBox="0 0 24 28"><path d="M16 14c0-2.203-1.797-4-4-4s-4 1.797-4 4 1.797 4 4 4 4-1.797 4-4zm2.156 0c0 3.406-2.75 6.156-6.156 6.156S5.844 17.406 5.844 14 8.594 7.844 12 7.844s6.156 2.75 6.156 6.156zm1.688-6.406c0 .797-.641 1.437-1.437 1.437S16.97 8.39 16.97 7.594s.641-1.437 1.437-1.437 1.437.641 1.437 1.437zM12 4.156c-1.75 0-5.5-.141-7.078.484-.547.219-.953.484-1.375.906s-.688.828-.906 1.375c-.625 1.578-.484 5.328-.484 7.078s-.141 5.5.484 7.078c.219.547.484.953.906 1.375s.828.688 1.375.906c1.578.625 5.328.484 7.078.484s5.5.141 7.078-.484c.547-.219.953-.484 1.375-.906s.688-.828.906-1.375c.625-1.578.484-5.328.484-7.078s.141-5.5-.484-7.078c-.219-.547-.484-.953-.906-1.375s-.828-.688-1.375-.906C17.5 4.015 13.75 4.156 12 4.156zM24 14c0 1.656.016 3.297-.078 4.953-.094 1.922-.531 3.625-1.937 5.031s-3.109 1.844-5.031 1.937c-1.656.094-3.297.078-4.953.078s-3.297.016-4.953-.078c-1.922-.094-3.625-.531-5.031-1.937S.173 20.875.08 18.953C-.014 17.297.002 15.656.002 14s-.016-3.297.078-4.953c.094-1.922.531-3.625 1.937-5.031s3.109-1.844 5.031-1.937c1.656-.094 3.297-.078 4.953-.078s3.297-.016 4.953.078c1.922.094 3.625.531 5.031 1.937s1.844 3.109 1.937 5.031C24.016 10.703 24 12.344 24 14z"/></symbol><symbol id="close" viewBox="0 0 22 28"><path d="M20.281 20.656c0 .391-.156.781-.438 1.062l-2.125 2.125c-.281.281-.672.438-1.062.438s-.781-.156-1.062-.438L11 19.249l-4.594 4.594c-.281.281-.672.438-1.062.438s-.781-.156-1.062-.438l-2.125-2.125c-.281-.281-.438-.672-.438-1.062s.156-.781.438-1.062L6.751 15l-4.594-4.594c-.281-.281-.438-.672-.438-1.062s.156-.781.438-1.062l2.125-2.125c.281-.281.672-.438 1.062-.438s.781.156 1.062.438L11 10.751l4.594-4.594c.281-.281.672-.438 1.062-.438s.781.156 1.062.438l2.125 2.125c.281.281.438.672.438 1.062s-.156.781-.438 1.062L15.249 15l4.594 4.594c.281.281.438.672.438 1.062z"/></symbol><symbol id="logo" viewBox="0 0 32 32"><path d="M19.711 11.756c0-.074-.096-.222-.148-.222.052 0 .156-.148.156-.222 0 .074.096.222.148.222-.052 0-.156.148-.156.222zM14.97 12.304c0-.074-.096-.222-.148-.222.052 0 .156-.148.156-.222 0 .074.096.222.148.222-.052 0-.156.148-.156.222zM16.185 9.615c0-.074-.096-.222-.148-.222.052 0 .156-.148.156-.222 0 .074.096.222.148.222-.052 0-.156.148-.156.222zM18.852 14.037v-.007zM18.956 13.667c.03-.126.059-.289-.03-.4 0-.007.007-.015.007-.022.052-.126.007-.259-.067-.363a2.018 2.018 0 0 0-.119-.156 1.033 1.033 0 0 0-.074-.489c-.03-.089-.044-.185-.081-.274a2.21 2.21 0 0 0-.126-.23c.007-.03.007-.059.015-.089.022-.119.044-.244.067-.363l.089-.363c.03-.156.052-.319.059-.481.044-.704-.356-.311-.437.089a2.828 2.828 0 0 0-.074.422 2.198 2.198 0 0 1-.037.311 2.283 2.283 0 0 0-.17-.207c-.089-.111-.185-.215-.274-.326-.096-.126-.2-.244-.348-.304-.081-.03-.178-.067-.23.03a.241.241 0 0 0-.03.163c0 .074.03.141.067.2.044.081.119.141.185.215.104.096.185.215.289.319a.924.924 0 0 1 .296.511c.007.037.015.074.022.119-.015-.015-.037-.022-.052-.037a.795.795 0 0 0-.267-.119 19.981 19.981 0 0 1-.726-.252.261.261 0 0 1-.067-.03.653.653 0 0 0-.156-.193c-.059-.03-.119-.067-.185-.052-.052.015-.096.03-.126.074-.067.007-.141.037-.17.104-.015.052.022.111.044.156.015.03.037.052.059.067.015.074.037.148.052.222.074.252.17.496.207.756v.03a.279.279 0 0 0-.2.104.08.08 0 0 0-.022.052c0 .022-.007.052 0 .074.015.044.059.081.096.104.044.022.096.044.141.059-.007.126 0 .244.007.37 0 .081-.007.163 0 .244s.022.163.044.244c.03.096.059.2.089.296.022.074.052.148.067.23.059.304.044.63-.067.919-.059.141-.141.259-.222.393-.096.156-.17.311-.274.459-.052.074-.104.156-.156.23-.067.104-.119.207-.185.304-.044.074-.104.148-.133.23-.007.022-.007.044-.007.067a.209.209 0 0 0 .037-.052c.044-.104.111-.193.17-.289.104-.185.222-.356.341-.526.096-.148.178-.311.274-.467.059-.104.133-.2.178-.311.133-.341.148-.719.052-1.074-.03-.104-.067-.207-.096-.319a1.206 1.206 0 0 1-.074-.489c.007-.141-.007-.274-.007-.415v-.052c.081.022.17.044.252.067.259.067.511.141.756.244.148.067.296.133.43.237.007 0 .007.007.015.007-.015.015-.022.03-.037.044-.289.326-.415.763-.504 1.178-.007.044-.007.089-.007.133.03-.052.044-.119.059-.178.074-.348.178-.704.393-1 .037-.059.089-.104.133-.156.074.059.141.126.207.193.015.007.03.022.044.03a.213.213 0 0 0-.074-.104 1.788 1.788 0 0 0-.319-.259 3.298 3.298 0 0 0-.644-.281 5.39 5.39 0 0 0-.459-.133c-.141-.037-.274-.067-.407-.126-.044-.03-.096-.067-.081-.126 0-.022.007-.044.022-.059l.052-.052c.022-.015.052-.022.074-.03.096-.022.193-.007.296 0l.385.044c.489.059 1 .126 1.444.348.274.133.333.178.274.496a2.57 2.57 0 0 1-.119.407c-.059.141-.148.267-.222.4a7.73 7.73 0 0 1-.133.259c-.089.148-.185.281-.259.437-.089.17-.163.356-.252.526-.074.148-.163.289-.237.444-.104.2-.185.407-.281.607-.089.17-.185.341-.267.511.037-.089-.015.03-.133.393-.03.104-.074.207-.081.319.059-.104.081-.222.126-.341.037-.111.074-.222.119-.333.081-.185.193-.363.281-.548.074-.148.141-.304.207-.459.096-.2.207-.4.311-.593.074-.148.141-.296.207-.444.089-.185.215-.356.319-.533.052-.096.104-.207.156-.304.067-.119.141-.237.193-.363.037-.081.067-.2.096-.326zm-.734-2.771c.022-.178.059-.356.119-.526.037-.074.081-.156.133-.222.03-.03.074-.074.119-.059.111.089.044.452.037.585-.03.267-.119.526-.163.785-.015.074-.03.148-.037.222a3.17 3.17 0 0 0-.259-.378c.03-.133.03-.274.052-.407zm-.259.956c-.059-.289-.156-.393-.348-.593-.059-.067-.111-.133-.17-.2-.067-.074-.148-.141-.215-.222-.052-.074-.104-.163-.096-.259-.007-.037.007-.067.022-.096.015-.022.022-.044.044-.059.052-.015.111.015.163.037.163.074.267.222.37.356.126.148.252.289.37.437.111.141.215.281.304.437.052.096.119.185.163.281.044.119.067.244.111.363a.91.91 0 0 1 .044.348c-.037-.037-.067-.074-.104-.111a4.968 4.968 0 0 0-.2-.207 2.85 2.85 0 0 0-.43-.37.815.815 0 0 1-.03-.141zm-1.556-.496a.202.202 0 0 1 .111-.037c.052.007.096.03.141.059a.792.792 0 0 1 .111.126c-.044-.022-.096-.044-.141-.067a.589.589 0 0 0-.178-.067c-.015-.007-.03-.007-.044-.015 0 .007 0 .007 0 0zm.193 1.34a1.832 1.832 0 0 0-.037-.207c-.037-.133-.074-.267-.119-.4a2.013 2.013 0 0 1-.089-.304c-.007-.015-.007-.037-.015-.052.059.044.119.089.178.126.111.074.237.119.356.163.015.007.022.007.037.015l.022.289c.015.133.037.281.096.4a9.528 9.528 0 0 1-.17-.022c-.074.007-.17-.007-.259-.007zm.489.045c-.007-.022-.022-.037-.03-.059A.795.795 0 0 1 17 12.46a4.327 4.327 0 0 1-.037-.319c0-.03 0-.052-.007-.081.2.089.422.148.6.281.059.044.111.096.163.156l-.007.007c-.052.089-.104.17-.178.244a.293.293 0 0 1-.052.044 1.417 1.417 0 0 1-.193-.03l-.2-.022zm.659-.215c.104.119.193.244.289.363a5.736 5.736 0 0 0-.496-.089c.081-.074.148-.17.207-.267-.007-.007-.007-.007 0-.007zm.822.533a3.49 3.49 0 0 0-.474-.163.548.548 0 0 1-.081-.104c-.052-.059-.096-.133-.148-.193a2.437 2.437 0 0 0-.185-.207 1.048 1.048 0 0 0-.319-.215 4.197 4.197 0 0 0-.267-.104 6.118 6.118 0 0 0-.207-.089c-.059-.022-.119-.037-.17-.059a1.144 1.144 0 0 1-.207-.111 1.284 1.284 0 0 1-.163-.119c-.03-.03-.067-.052-.089-.096-.015-.037-.044-.074-.044-.111.015-.059.081-.081.141-.089.104-.015.2.044.296.089.111.059.23.104.348.148.185.067.363.126.548.193.074.03.156.044.222.081.237.126.43.304.622.496.141.133.267.267.385.415.111.148.17.267.111.415-.089-.074-.207-.119-.319-.178z"/><path d="M16.77 12.867a.598.598 0 0 1-.156-.007 1.518 1.518 0 0 1-.378-.074c-.044-.015-.081-.03-.096-.052-.007-.022-.022-.044.015-.052a1.29 1.29 0 0 1 .378-.007c.059.007.126.015.185.03.044.007.104.015.141.037.052.03-.007.111-.089.126zM17.437 10.659a.684.684 0 0 1-.111-.104 1.484 1.484 0 0 1-.237-.304c-.022-.037-.044-.081-.037-.104s.015-.052.052-.03c.111.059.207.141.296.23.044.044.081.089.126.141.03.037.067.081.081.126 0 .052-.096.081-.17.044zM18.57 10.4a.538.538 0 0 1 .007-.148 1.54 1.54 0 0 1 .074-.363c.015-.037.03-.081.044-.089.022-.007.044-.022.044.015.015.119.015.237.007.356a1.378 1.378 0 0 1-.03.178c-.007.044-.015.104-.037.133-.03.052-.104 0-.111-.081zM16.519 11.311c.044-.007.089.015.126.044l.044.022c-.044-.104-.111-.274-.178-.267-.148.007-.17.111-.156.259a.333.333 0 0 1 .163-.059z"/><path d="M16.57 11.57a1.704 1.704 0 0 1-.496-.214c-.037-.022-.074-.052-.074-.074s-.007-.052.03-.044c.126.007.244.044.37.081.059.022.119.044.17.074.037.022.096.044.126.074.037.044-.037.111-.126.104zM12.296 21.511c-.007 0-.015.007-.015.007-.015.015-.03.037-.044.052-.044.052-.096.096-.148.141l-.089.067c-.03.015-.059.03-.096.037-.022.007-.037.007-.059.007-.037-.007-.074-.022-.089-.059a.116.116 0 0 1-.022-.067.637.637 0 0 1 .007-.163c.007-.03.015-.059.015-.096v-.007s0-.007-.007-.007h-.007c-.015.007-.022.022-.03.03-.052.067-.119.126-.178.178-.037.03-.081.067-.126.089-.03.022-.067.037-.104.052a.555.555 0 0 1-.148.044h-.052c-.015 0-.022-.007-.037-.007-.052-.015-.081-.052-.104-.096a.428.428 0 0 1-.015-.193c0-.022.007-.037.007-.059 0-.007 0-.015-.007-.007h-.007l-.044.044a1.326 1.326 0 0 1-.333.259.46.46 0 0 1-.17.052c-.022 0-.037.007-.059.007-.104.007-.178-.037-.237-.119-.03-.037-.044-.081-.059-.126a.576.576 0 0 1-.007-.252 1.15 1.15 0 0 1 .407-.696.663.663 0 0 1 .222-.119c.074-.03.148-.037.23-.03.037 0 .067.015.104.022l.044.022a.16.16 0 0 1 .059.163.343.343 0 0 1-.037.096l-.067.089a.92.92 0 0 1-.156.148c-.052.044-.111.081-.17.119-.096.059-.193.119-.296.17-.037.015-.067.037-.104.052-.007.007-.015.007-.022.015s-.015.015-.015.03c0 .03 0 .067.007.096.007.022.015.037.022.059.022.03.044.052.074.074.044.03.096.037.148.03a.413.413 0 0 0 .104-.037l.111-.067c.059-.044.119-.096.17-.148.059-.067.119-.133.17-.207l.044-.067c.081-.148.178-.281.304-.4.052-.052.111-.096.17-.141a.879.879 0 0 1 .185-.096.661.661 0 0 1 .17-.022c.015 0 .03.007.044.007.03.007.059.015.089.037.015.007.03.022.037.037.007.007.022.007.03 0l.044-.044a.132.132 0 0 1 .052-.03.067.067 0 0 1 .052 0c.022.007.044.022.052.037a.187.187 0 0 1 .03.067c0 .015.007.03.007.044.007.037 0 .067-.007.104 0 0 0 .007-.007.007s-.007.007-.015.007c-.007 0-.015 0-.015-.007-.007-.015-.007-.03-.015-.044 0-.007-.015-.015-.022-.007s-.015.007-.022.015c-.03.03-.059.059-.074.096l-.044.089a2.226 2.226 0 0 0-.148.444l-.022.104c-.015.037-.015.081-.022.119 0 .022 0 .037.007.059s.03.03.044.03c.015 0 .03 0 .044-.007.03-.015.052-.022.074-.044.015-.015.037-.03.052-.044.081-.074.148-.156.215-.237.007-.015.015-.022.022-.037.052-.126.119-.244.17-.37l.067-.133.044-.089c0-.007.007-.015.007-.022.007-.015-.007-.03-.022-.03-.015.007-.03.007-.052.015-.007 0-.015 0-.015-.007-.007 0-.007-.007-.007-.015s.007-.015.007-.015a.839.839 0 0 1 .163-.111c.015-.007.03-.007.044-.007.022 0 .037.007.059.022.007.007.015.015.015.022.007.022.015.044.015.067a.438.438 0 0 1-.037.141c-.022.059-.044.119-.074.178a4.2 4.2 0 0 0-.148.326c-.022.059-.052.119-.067.178l-.022.074a.318.318 0 0 0-.007.119c0 .015.007.03.022.037.007.007.022.015.03.007.015-.007.03-.007.037-.015.022-.015.044-.03.059-.044.059-.044.111-.104.163-.156a4.59 4.59 0 0 0 .341-.407c.007-.015.015-.022.03-.037s.022-.037.03-.052.03-.081.052-.119c.022-.067.052-.133.089-.2a.419.419 0 0 1 .059-.096.083.083 0 0 1 .037-.037c.022-.022.052-.03.089-.03.022 0 .037.007.052.022s.03.03.037.052c.022.052.03.104.022.163a.04.04 0 0 1-.022.037h-.015c-.007 0-.007-.007-.015-.015s-.007-.022-.015-.03c-.007-.007-.015-.007-.022 0-.007 0-.007.007-.015.007a.25.25 0 0 0-.067.089c-.022.03-.037.067-.052.104a2.116 2.116 0 0 0-.104.296 2.102 2.102 0 0 0-.052.2c-.015.037-.015.081-.03.119a.11.11 0 0 0 0 .067c0 .015.007.03.015.044s.015.015.03.015.037 0 .059-.007a.304.304 0 0 0 .081-.052l.015-.015a3.9 3.9 0 0 0 .356-.407c.007-.015.022-.03.03-.044a.228.228 0 0 0 .044-.096c.022-.067.044-.126.059-.193.044-.133.096-.259.156-.385.089-.2.178-.4.274-.6.007-.015.022-.037.022-.059 0-.007 0-.015-.007-.015h-.015c-.044 0-.089 0-.133.007-.03 0-.059.007-.089.007a.529.529 0 0 0-.111.015c-.015 0-.022 0-.037.007a.615.615 0 0 0-.119.015l-.148.022c-.096.015-.193.03-.289.052l-.437.089c-.156.037-.304.074-.452.111-.015.007-.03.007-.044.007h-.015c-.007 0-.015-.007-.015-.015s.007-.015.007-.015c.089-.037.17-.067.259-.089a9.21 9.21 0 0 1 .585-.156c.126-.03.252-.052.378-.074.081-.015.163-.03.252-.044l.163-.022c.067-.007.133-.022.2-.03.03-.007.067-.007.096-.007.015 0 .022-.007.037-.007.007 0 .007-.007.015-.007.007-.007.007-.015.015-.022l.044-.089c.096-.193.193-.385.296-.57.104-.193.215-.378.341-.556.096-.141.2-.281.311-.415.089-.104.185-.2.281-.296a.287.287 0 0 1 .074-.059c.044-.022.081-.037.133-.022.03.007.052.022.067.037l.007.007c.037.044.059.141.022.2l-.007.007c-.007.007-.022 0-.022 0-.007-.015-.007-.03-.015-.037 0-.007-.015-.015-.022-.007-.007 0-.015.007-.022.007-.037.022-.074.052-.111.081a2.061 2.061 0 0 0-.222.215c-.089.104-.178.207-.252.319-.044.067-.089.126-.133.193a6.145 6.145 0 0 0-.281.481c-.081.148-.163.304-.237.452l-.022.052c0 .007 0 .015.007.022.015.007.03 0 .044 0 .081 0 .156-.007.237-.007.185-.007.378 0 .563 0 .044 0 .096.007.141.007h.081c.007 0 .015-.007.022-.015a.133.133 0 0 1 .03-.044c.067-.126.126-.244.193-.37.126-.23.259-.452.4-.674.067-.104.141-.207.215-.304a3.14 3.14 0 0 1 .296-.333 1.2 1.2 0 0 1 .148-.126c.022-.015.044-.03.074-.044a.225.225 0 0 1 .074-.03c.022-.007.052-.007.074 0s.037.015.052.03.022.037.03.059c.007.03.007.067.007.096a3.028 3.028 0 0 1-.03.267 2.404 2.404 0 0 1-.178.556 3.651 3.651 0 0 1-.215.422 6.178 6.178 0 0 1-.296.459l-.044.067c-.007.007 0 .03.007.03h.044c.141.007.281 0 .43-.007.03 0 .059-.007.089-.007.022 0 .037-.007.059-.007.067 0 .126-.015.193-.022.074-.015.141-.03.215-.052.119-.037.23-.081.333-.141a.083.083 0 0 0 .037-.037.32.32 0 0 0 .037-.074c.141-.267.289-.526.452-.785.089-.141.178-.274.281-.407a2.115 2.115 0 0 1 .474-.467c.03-.015.059-.03.089-.037.022-.007.037-.007.059-.007.037 0 .067.022.089.052.007.015.022.037.022.059.007.022.007.052.007.081 0 .059-.007.119-.015.17-.03.215-.089.415-.17.607-.052.133-.119.259-.185.385a4.694 4.694 0 0 1-.319.504 7.845 7.845 0 0 1-.585.711c-.044.052-.089.096-.141.148l-.326.326c-.096.089-.185.185-.281.274-.015.015-.022.03-.03.044-.015.052-.037.104-.044.163l-.022.119c-.007.038-.015.081-.015.119v.067c0 .067.03.126.059.178.007.015.022.03.037.037.007.007.015.007.022.015.03.007.059.015.089.007a.423.423 0 0 0 .185-.067c.03-.015.052-.037.081-.052a1 1 0 0 0 .178-.178c.089-.104.17-.215.252-.333l.044-.067c0-.007.007-.007.015-.015s.015-.007.015 0c.007 0 .007.007.015.015a.067.067 0 0 1 0 .052c0 .007-.007.015-.007.022a2.31 2.31 0 0 1-.274.378 1.316 1.316 0 0 1-.281.252.66.66 0 0 1-.178.089.33.33 0 0 1-.119.022.343.343 0 0 1-.119-.007.213.213 0 0 1-.133-.089.342.342 0 0 1-.074-.185.34.34 0 0 1 0-.119c0-.03.007-.059.007-.089 0 0 0-.007-.007-.007h-.007l-.022.022a3.076 3.076 0 0 1-.363.385c-.022.022-.052.037-.074.059-.015.015-.037.022-.052.03-.03.015-.052.022-.081.015h-.03c-.03 0-.052-.015-.074-.044l-.022-.044c-.015-.044-.015-.089-.015-.126.007-.067.022-.141.037-.207.015-.044.022-.096.037-.141v-.007h-.015c-.015.007-.022.022-.037.037a2.452 2.452 0 0 1-.222.259c-.044.052-.096.096-.148.141a.834.834 0 0 1-.104.074c-.03.015-.052.03-.081.044-.037.015-.081.022-.119.015s-.067-.03-.089-.059c-.015-.022-.022-.044-.022-.074s0-.059.007-.089.007-.059.015-.096v-.007c-.007-.007-.007 0-.015 0l-.037.037a2.541 2.541 0 0 1-.252.23 1.268 1.268 0 0 1-.274.17c-.015.007-.03.007-.037.015s-.015.015-.015.022-.015.03-.015.037a6.66 6.66 0 0 1-.348.822c-.037.081-.081.156-.119.23-.007.015-.015.022-.022.037-.007.007-.015.007-.022.015-.03 0-.067 0-.096-.007-.007 0-.015-.015-.015-.03s.007-.03.015-.037l.133-.267c.096-.193.17-.4.222-.607.007-.015.007-.037.007-.052 0-.007-.007-.007-.015-.007h-.007c-.015.007-.03.015-.052.022a3 3 0 0 0-.348.178c-.067.037-.126.081-.193.119a3.063 3.063 0 0 0-.304.222l-.17.148a2.798 2.798 0 0 0-.207.215c-.015.022-.037.037-.052.059-.007.007-.015.007-.022.007h-.015a4.522 4.522 0 0 1-.126-.022s-.007 0-.007-.007c-.007-.007-.015-.022-.007-.03.007-.015.015-.022.03-.037.096-.104.193-.2.304-.289.2-.163.407-.304.637-.422.163-.089.333-.17.496-.252l.089-.044c.007-.007.022-.015.022-.022.015-.059.03-.111.044-.17.037-.126.074-.244.119-.363.007-.007.007-.022.007-.03v-.022h.007v-.007c-.007 0-.007 0 0 .007h-.015l-.022.022c-.044.052-.096.104-.141.156a1.137 1.137 0 0 1-.163.156c-.03.022-.059.044-.089.059-.022.015-.052.022-.081.037-.022.007-.037.007-.059.007a.09.09 0 0 1-.089-.059c-.015-.03-.022-.059-.022-.096s0-.067.007-.104a.68.68 0 0 0 .015-.119v-.007h-.007s-.015.007-.022.015c-.037.044-.074.089-.119.126-.052.059-.111.111-.17.163-.022.022-.052.037-.074.059-.022.015-.037.022-.059.03s-.037.007-.059.007-.059-.022-.074-.052a.147.147 0 0 1-.022-.081c0-.044 0-.089.007-.133.015-.059.022-.126.037-.185 0-.015.007-.03.007-.044 0-.007 0-.007-.007-.015h-.007l-.037.037c-.059.074-.133.148-.2.222-.044.052-.096.096-.148.141-.022.022-.052.037-.074.059-.022.015-.044.03-.067.037-.015.007-.03.007-.052.007h-.044a.079.079 0 0 1-.067-.037c-.015-.015-.022-.037-.03-.052a.318.318 0 0 1-.007-.119c.007-.096.03-.185.052-.274.007-.03.015-.059.022-.081v-.007h-.015c-.015.007-.022.022-.03.03-.052.067-.111.133-.17.2-.044.044-.081.089-.126.133a1.25 1.25 0 0 1-.185.148c-.037.022-.067.044-.111.052a.184.184 0 0 1-.111.007.115.115 0 0 1-.089-.074c-.015-.03-.015-.059-.015-.096 0-.015.007-.037.007-.052 0-.022.007-.044.007-.067-.096.007-.104 0-.104-.007 0 0 0 .007 0 0zm4.46-1.689c-.074 0-.148 0-.215-.007h-.044c-.014 0-.022.007-.03.015l-.03.03c-.03.037-.059.074-.096.111a6.237 6.237 0 0 1-.422.467c-.059.059-.119.111-.17.17-.067.067-.141.133-.207.2-.022.022-.052.044-.074.074a.955.955 0 0 1-.119.119c-.015.015-.022.03-.03.044-.052.119-.089.23-.119.356-.03.133-.059.267-.104.393 0 .007-.007.022-.007.037 0 .007 0 .015.007.015h.007c.015-.007.03-.007.037-.015.119-.067.222-.141.326-.237s.193-.207.281-.319c.007-.015.015-.022.022-.037.037-.081.081-.163.119-.244s.074-.163.119-.244c.015-.022.022-.052.037-.081 0-.007 0-.007.007-.015 0-.007-.007-.022-.015-.022-.015 0-.03.007-.044.007h-.022c-.007 0-.015-.015-.015-.022 0-.007.007-.007.007-.015a.473.473 0 0 1 .126-.089l.044-.022c.014-.007.03-.007.044-.007s.059.022.067.059c0 .015.007.037 0 .052a.426.426 0 0 1-.03.133c-.022.059-.044.111-.074.17s-.059.111-.081.17c-.044.096-.089.193-.119.289a.518.518 0 0 0-.037.119.288.288 0 0 0-.007.141c0 .015.007.03.022.037.007.007.015.007.022.007.015 0 .03-.007.037-.015.022-.015.044-.03.067-.052a3.99 3.99 0 0 0 .178-.17c.074-.081.148-.17.222-.259.044-.052.081-.104.126-.156.015-.022.03-.044.044-.074.015-.037.03-.081.044-.119.022-.067.052-.126.089-.193.015-.03.037-.059.052-.089a.083.083 0 0 1 .037-.037c.022-.022.044-.03.081-.03.03 0 .059.007.074.037.015.015.022.03.03.044.015.044.03.096.022.148a.128.128 0 0 1-.015.052c-.007.007-.015.007-.022 0-.015-.007-.015-.022-.022-.037-.007-.007-.022-.015-.03-.007-.007 0-.007.007-.015.007-.03.022-.044.052-.067.081s-.037.067-.052.104a2.116 2.116 0 0 0-.104.296l-.067.244c-.007.022-.007.052-.015.074a.191.191 0 0 0 0 .089c0 .007.007.015.007.022.007.015.022.022.037.022s.037 0 .052-.007a.419.419 0 0 0 .096-.059c.074-.074.148-.148.215-.23.067-.074.126-.156.185-.23.015-.015.022-.037.03-.052.015-.044.03-.081.044-.126.037-.096.074-.185.119-.281.148-.326.296-.652.459-.97l.022-.044v-.007c0-.007-.007-.007-.015-.007s-.015.007-.022.007a1.83 1.83 0 0 1-.526.156c-.067.007-.141.022-.207.022-.022 0-.037 0-.059.007-.052.007-.104.007-.156.007-.074 0-.119-.007-.163-.007zm-1.586-.066h-.54c-.007 0-.015.007-.022.015-.022.022-.037.052-.052.081-.081.17-.17.341-.244.511-.052.119-.104.237-.156.363-.022.059-.052.119-.067.178l-.089.267c-.022.081-.044.17-.067.252-.007.044-.015.089-.015.126 0 .022 0 .044.007.067.007.015.022.022.03.022.015 0 .037 0 .052-.007.022-.007.037-.022.059-.037l.067-.067c.037-.044.081-.081.119-.126.044-.044.081-.096.119-.148.015-.022.03-.044.037-.067a3.52 3.52 0 0 1 .067-.185c.037-.111.089-.222.141-.326a.659.659 0 0 1 .074-.119c.015-.022.03-.037.044-.052a.137.137 0 0 1 .074-.037h.015c.022 0 .044.015.059.03s.022.03.03.044a.308.308 0 0 1 .015.163c0 .007 0 .007-.007.015 0 .007-.007.015-.022.015-.007 0-.015-.007-.022-.015s-.007-.015-.007-.022c-.007-.015-.022-.015-.037-.007l-.022.022a.314.314 0 0 0-.067.104c-.015.022-.022.052-.037.081a2.992 2.992 0 0 0-.126.363c-.03.096-.03.119-.044.215a.191.191 0 0 0 0 .089c0 .015.007.022.015.03.015.015.03.015.044.015.03-.007.059-.022.089-.037s.059-.037.081-.067c.03-.03.067-.059.096-.089.081-.089.163-.178.23-.281a.235.235 0 0 0 .03-.059c.03-.081.059-.163.096-.244.037-.089.074-.17.111-.252.104-.237.215-.467.326-.704.007-.022.022-.044.03-.059.015-.03.007-.037-.022-.037h-.081c-.126-.022-.274-.022-.407-.022zm3.141-.675c-.015.037-.037.074-.052.111l-.022.044v.007h.014c.015-.007.03-.022.044-.03.007 0 .007-.007.015-.007h.015c.008 0 .007.015.007.022-.007.007-.007.015-.015.022a1 1 0 0 1-.148.156c-.03.022-.044.052-.059.081l-.089.2-.311.689c-.044.096-.089.193-.133.296-.007.015-.015.03-.015.052 0 0 0 .007.007.007h.007c.015-.007.022-.015.037-.03.178-.17.348-.348.519-.526.126-.141.252-.281.363-.437.2-.259.37-.541.504-.837a3.57 3.57 0 0 0 .274-.867c.007-.052.015-.111.007-.163 0-.007 0-.015-.007-.022-.007-.03-.03-.044-.059-.03-.007 0-.015.007-.022.007-.022.015-.037.022-.059.037-.022.022-.044.037-.067.059a2.419 2.419 0 0 0-.185.207c-.074.096-.141.2-.215.296a3.387 3.387 0 0 0-.185.311c-.059.111-.111.222-.17.341zm-2.074.578c.015 0 .052.007.081.007s.067 0 .096.007c.022 0 .03-.007.044-.022.007-.007.015-.022.022-.03.141-.207.267-.43.378-.652a3.8 3.8 0 0 0 .274-.852c.007-.059.015-.119.007-.17v-.022c0-.015-.007-.022-.015-.03s-.015-.015-.03-.015a.053.053 0 0 0-.037.015c-.022.015-.037.03-.052.044-.03.03-.059.059-.089.081-.059.059-.104.119-.156.185-.089.119-.17.237-.259.363a2.17 2.17 0 0 0-.089.141c-.052.089-.096.17-.141.259-.059.119-.119.237-.178.363-.044.089-.089.178-.126.267-.007.007-.007.022-.015.03 0 .007.007.015.015.022.03.007.067.007.096.007a.684.684 0 0 1 .17 0zm-5.104 1.822v.03c.007.044.022.081.052.104.022.022.052.03.081.03.015 0 .037 0 .052-.007a.343.343 0 0 0 .096-.037.645.645 0 0 0 .111-.081c.089-.074.163-.163.23-.259.022-.03.037-.067.059-.096.052-.096.089-.193.133-.296.022-.044.03-.096.037-.141a.223.223 0 0 0-.007-.096.127.127 0 0 0-.141-.089.253.253 0 0 0-.126.037c-.052.022-.096.059-.133.089-.111.089-.193.2-.259.319a1.505 1.505 0 0 0-.126.296c-.015.044-.022.089-.03.133-.03.03-.03.052-.03.067zm4.815-1.703c-.074-.007-.067 0-.089.044l-.022.052c-.126.274-.252.556-.378.83-.015.03-.022.052-.037.081 0 .007 0 .015.007.015h.007c.007-.007.022-.015.03-.022.193-.185.378-.37.556-.57.096-.111.193-.222.274-.333.007-.015.022-.03.03-.044.007-.007 0-.022-.007-.022-.044-.007-.089-.015-.141-.015-.067-.007-.133-.007-.2-.015h-.03zm-5.689 1.503c.119-.052.23-.111.341-.193a.986.986 0 0 0 .2-.193c.022-.03.044-.052.059-.089a.375.375 0 0 0 .044-.119c.007-.03 0-.052-.007-.074-.015-.044-.052-.059-.096-.067a.203.203 0 0 0-.074.015c-.096.037-.185.096-.252.178s-.126.17-.163.267c-.03.081-.059.17-.074.259 0 .007 0 .015.007.015 0 .007.007 0 .015 0zM7.837 16.97h-.185c-.052 0-.111 0-.163.015-.044.007-.089.007-.126.022-.089.015-.17.037-.252.059a4.3 4.3 0 0 0-.452.156 2.485 2.485 0 0 0-.363.193 2.022 2.022 0 0 0-.437.4c-.037.044-.067.096-.096.148s-.044.104-.059.156a.465.465 0 0 0-.007.178.194.194 0 0 0 .052.104.287.287 0 0 0 .074.059c.052.03.104.044.163.052a1.023 1.023 0 0 0 .333-.022c.059-.015.111-.037.163-.052.067-.03.141-.059.207-.096a.385.385 0 0 0 .119-.096.08.08 0 0 0 .022-.052v-.015c-.007-.03-.022-.037-.044-.044-.007 0-.022-.007-.037-.007s-.03 0-.044-.007c-.007 0-.015-.015-.015-.022s.007-.007.007-.015l.007-.007a.528.528 0 0 1 .185-.044c.03 0 .067 0 .096.007.052.015.081.044.089.096v.015a.121.121 0 0 1-.022.067.164.164 0 0 1-.037.044 1.187 1.187 0 0 1-.111.096 1.587 1.587 0 0 1-.623.266l-.163.022c-.037 0-.081 0-.119-.007-.044-.007-.089-.007-.126-.022a.34.34 0 0 1-.193-.126c-.015-.022-.037-.044-.044-.074a.391.391 0 0 1-.037-.185.63.63 0 0 1 .119-.326c.133-.207.304-.378.504-.511.178-.119.363-.215.563-.289.148-.059.304-.111.459-.148.104-.022.2-.044.304-.059.067-.015.133-.015.2-.03.022 0 .044-.007.067-.007a3.02 3.02 0 0 1 .356 0c.03 0 .067.007.096.007a.07.07 0 0 1 .037.007c.081.007.156.022.23.03.015 0 .022 0 .03-.007s.015-.015.03-.022c.074-.074.156-.141.23-.215.022-.022.044-.044.074-.067a.995.995 0 0 1 .215-.141c.03-.015.067-.03.096-.037s.059-.007.089-.007c.015 0 .03.007.044.022.007.007.007.015.015.022a.134.134 0 0 1 .007.052.311.311 0 0 1-.022.119.528.528 0 0 1-.156.23c-.007.007-.007.007-.015 0-.007 0-.015-.015-.007-.022v-.007c.015-.03.022-.059.015-.089 0-.022-.007-.037-.022-.059s-.03-.037-.052-.037H9.09c-.015.007-.037.007-.052.015a.694.694 0 0 0-.178.104l-.178.156s0 .007-.007.007c-.007.007 0 .022.007.022.059.022.119.037.17.059a1.44 1.44 0 0 1 .607.348.21.21 0 0 1 .052.059.567.567 0 0 1 .126.237c.007.037.015.074.015.111a.458.458 0 0 1-.052.244.812.812 0 0 1-.178.244 1.777 1.777 0 0 1-.126.111.839.839 0 0 1-.163.111c-.059.037-.119.067-.17.096-.007 0-.007.007-.007.015 0 0 0 .007.007.007s.007.007.015.007c.007 0 .007 0 .015.007.126.03.252.067.37.119.2.089.356.222.474.407.067.104.111.207.141.326.015.059.015.111.03.17.007.111.007.23-.007.341 0 .022-.007.052-.007.081 0 .007.007.015.015.022.022.007.037.015.059.015.156.03.319.067.474.104.074.022.148.037.215.059.007 0 .022.007.03.015l.007.007c.007.007 0 .022-.007.022h-.022a2.871 2.871 0 0 0-.237-.052c-.104-.022-.215-.037-.319-.052a1.165 1.165 0 0 1-.163-.03c-.022 0-.037-.007-.059-.007-.007 0-.022.007-.022.015-.007.022-.015.044-.015.067a2.813 2.813 0 0 1-.504.978 4.3 4.3 0 0 1-.792.778c-.074.059-.156.111-.237.163-.156.096-.311.193-.474.274a1.95 1.95 0 0 1-.541.193c-.067.015-.133.03-.207.037s-.148.007-.215 0a.521.521 0 0 1-.444-.341.746.746 0 0 1-.044-.185c-.007-.059 0-.119 0-.17a2.248 2.248 0 0 1 .141-.43c.178-.422.467-.748.852-.993.2-.126.415-.222.637-.289.156-.044.311-.089.474-.119.089-.022.185-.037.274-.052.015 0 .037-.007.052-.007.022 0 .044-.007.067-.007s.052-.007.074-.007c.037 0 .067-.007.104-.007h.037c.119-.007.237-.015.356-.007.044 0 .089.007.133.007h.03c.007 0 .022-.007.022-.022.007-.059.022-.111.022-.17v-.111c0-.193-.052-.37-.156-.541a.758.758 0 0 0-.193-.215c-.03-.022-.059-.044-.089-.059a2.135 2.135 0 0 0-.407-.2.888.888 0 0 0-.141-.037c-.03-.007-.052 0-.074.007-.015.007-.03.015-.052.022-.222.089-.444.178-.667.252-.126.044-.259.081-.393.119a2.158 2.158 0 0 1-.23.052c-.015 0-.022.007-.03.022-.015.022-.022.044-.037.067-.119.222-.23.444-.348.659-.096.178-.185.356-.281.533a8.685 8.685 0 0 1-.763 1.185 5.444 5.444 0 0 1-.689.77 2.158 2.158 0 0 1-.733.43c-.074.022-.148.044-.23.059-.044.007-.089.015-.141.015a.992.992 0 0 1-.385-.059.691.691 0 0 1-.222-.133.819.819 0 0 1-.222-.348.957.957 0 0 1-.044-.2c-.007-.059-.015-.119-.015-.17 0-.111.007-.222.037-.326a2.47 2.47 0 0 1 .452-.956 3 3 0 0 1 .578-.57c.081-.059.17-.119.252-.163.244-.141.504-.259.778-.348.141-.044.274-.081.415-.119.067-.015.133-.03.2-.037.111-.015.222-.022.333-.007.03 0 .059.015.081.022.015.007.022.015.037.022.007.007.015.015.015.03a.134.134 0 0 1-.015.104.33.33 0 0 1-.067.081.741.741 0 0 1-.207.126c-.007.007-.022.007-.037.007-.007 0-.015 0-.022-.015v-.015l.037-.037c.022-.03.044-.059.044-.089v-.007c.007-.03-.007-.052-.037-.067s-.052-.022-.081-.022c-.081 0-.17 0-.252.007l-.148.022c-.156.03-.311.067-.467.119a1.43 1.43 0 0 0-.193.074 3.188 3.188 0 0 0-.903.608 2.168 2.168 0 0 0-.526.852 1.985 1.985 0 0 0-.081.356c-.007.081-.022.17-.015.252 0 .133.022.259.067.385a.64.64 0 0 0 .185.281.788.788 0 0 0 .333.17c.104.022.207.03.311.015.178-.022.341-.081.489-.17.089-.052.163-.104.244-.17.096-.081.185-.17.274-.267.237-.274.444-.563.63-.874.141-.244.281-.496.407-.748.17-.333.341-.659.504-.993.052-.096.096-.193.148-.289v-.015c0-.008-.007-.007-.007-.015h-.007c-.044.007-.089.015-.141.022-.037.007-.067.007-.104.007a.311.311 0 0 1-.119-.022c-.052-.015-.074-.067-.067-.119.007-.03.015-.052.037-.067a.21.21 0 0 1 .059-.052.827.827 0 0 1 .156-.089c.096-.044.193-.089.296-.119.037-.015.074-.022.111-.037.015-.007.03-.015.052-.015.007 0 .015-.007.022-.015.015-.022.03-.044.037-.067.133-.244.281-.481.422-.719a5.37 5.37 0 0 1 .556-.748c.015-.015.03-.03.037-.044 0-.007 0-.015-.007-.015l-.067-.022a2.014 2.014 0 0 0-.215-.037c-.044 0-.089-.007-.133-.007.015-.052-.044-.052-.104-.052zm-1.2 5.089c0 .059 0 .119.015.17a.413.413 0 0 0 .037.104.32.32 0 0 0 .178.163.667.667 0 0 0 .377.037c.015 0 .03-.007.044-.007.044 0 .089-.015.133-.022.133-.037.267-.081.393-.141a3.38 3.38 0 0 0 .519-.311c.17-.126.333-.259.481-.407a3.09 3.09 0 0 0 .614-.815c.119-.215.215-.444.296-.674 0-.007.007-.015.007-.022s-.007-.015-.015-.022c-.022-.007-.037-.007-.059-.007a3.02 3.02 0 0 0-.356 0c-.104.007-.2.007-.304.022-.059 0-.119.015-.178.022-.096.022-.193.037-.289.067-.304.081-.593.2-.859.363-.341.2-.607.474-.815.807a1.441 1.441 0 0 0-.193.467.86.86 0 0 0-.03.207zm1.741-3.54h.2c.074 0 .059.007.133-.03.022-.007.037-.015.059-.022a2 2 0 0 0 .341-.207c.074-.059.141-.119.2-.193a.744.744 0 0 0 .111-.178c.015-.037.022-.081.03-.126v-.03c-.007-.037-.015-.081-.03-.119a.587.587 0 0 0-.052-.089c-.03-.044-.074-.081-.111-.119a1.262 1.262 0 0 0-.222-.156 1.404 1.404 0 0 0-.185-.096 1.212 1.212 0 0 0-.289-.096.034.034 0 0 0-.037.007c-.03.022-.044.052-.067.081a5.187 5.187 0 0 0-.444.696c-.119.222-.244.444-.363.667l-.022.044c0 .007 0 .007-.007.015 0 .007 0 .015.007.015l.156-.022c.067-.007.141-.022.207-.022.015 0 .037-.007.052-.007.03 0 .067-.007.096-.007.074-.007.148-.007.237-.007zm-.919.474c0 .007 0 .007 0 0a6.424 6.424 0 0 0 .6-.192c.111-.044.215-.089.319-.141a.15.15 0 0 0 .037-.022v-.007s0-.007-.007-.007-.015-.007-.022-.007h-.185c-.044 0-.096.007-.141.007-.052 0-.096.007-.148.015l-.178.022-.156.022c-.007 0-.015.007-.022.015 0 0 0 .007-.007.007l-.133.274v.015c0 .007.007.007.015.007.015 0 .022 0 .03-.007zm-.607.096a.618.618 0 0 0 .17-.022c.03-.007.059-.015.096-.015.007 0 .015 0 .015-.007.007-.007.015-.007.022-.015.007 0 .007-.007.007-.015.044-.081.089-.163.126-.244v-.007c0-.007-.007-.007-.007-.007-.007 0-.015 0-.022.007a2.354 2.354 0 0 0-.237.081c-.059.022-.111.052-.163.081l-.089.067-.022.022c-.007.007-.007.007-.007.015-.007.015 0 .03.015.037.022.022.059.03.096.022zM23.007 21.052c0 .007.007.007 0 0z"/><path d="M23.015 21.044c.007 0 .015 0 .015-.007.015-.022.022-.044.037-.067l.333-.644c.23-.43.481-.852.748-1.267.156-.237.319-.474.496-.704.119-.156.244-.311.378-.459a4.4 4.4 0 0 1 .748-.689c.207-.148.422-.274.659-.37a2.368 2.368 0 0 1 .726-.185c.03 0 .052-.007.081-.007a.89.89 0 0 1 .193 0h.037c.133.007.267.044.4.081a1.52 1.52 0 0 1 .793.578c.022.03.044.067.059.096a.225.225 0 0 1 .03.074c.007.022 0 .037-.007.059-.007.015-.015.022-.022.037-.015.015-.03.022-.044.022a.465.465 0 0 1-.104.015c-.037-.007-.081-.015-.119-.037a.567.567 0 0 1-.141-.089c-.007-.007-.007-.007-.007-.015v-.015s.007-.007.015-.007h.015c.03.015.067.015.104.015.022 0 .044-.007.067-.022s.03-.037.037-.059v-.022a.261.261 0 0 0-.03-.067.93.93 0 0 0-.133-.17 1.268 1.268 0 0 0-.341-.252 1.81 1.81 0 0 0-.385-.133c-.126-.03-.289-.037-.393-.03h-.037c-.2.015-.393.052-.578.126a2.563 2.563 0 0 0-.4.207 5.197 5.197 0 0 0-.459.341c-.059.044-.111.096-.163.141-.222.207-.43.422-.63.652-.326.37-.615.77-.896 1.178-.23.341-.444.696-.644 1.052a15.41 15.41 0 0 0-.659 1.281c-.059.126-.119.259-.193.385-.007.007-.015.022-.022.03 0 .007-.007.007-.015.007-.015 0-.037-.007-.044-.015s-.015-.015-.015-.03c.007-.022.007-.037.015-.059.037-.119.067-.237.104-.363.059-.207.111-.422.156-.63.037-.156.067-.319.096-.474l.067-.356.044-.23c.022-.126.044-.252.074-.378a8.87 8.87 0 0 1 .096-.415c.044-.185.096-.37.156-.556a.452.452 0 0 1 .037-.096c.007-.015.007-.022 0-.037.007 0 .007 0 .015-.007 0-.007 0-.007-.007-.015l-.007.007v.015c-.007 0-.015 0-.015.007-.015.022-.03.044-.037.067-.119.207-.222.415-.326.622-.193.393-.393.785-.593 1.17-.126.237-.252.474-.393.711s-.289.467-.452.696a2.684 2.684 0 0 1-.222.281 2.6 2.6 0 0 1-.348.348 1.491 1.491 0 0 1-.281.193c-.074.037-.148.074-.23.104a.848.848 0 0 1-.274.052h-.133a1.095 1.095 0 0 1-.215-.044.579.579 0 0 1-.2-.126.894.894 0 0 1-.244-.481c-.015-.074-.022-.148-.03-.222v-.089c.007-.067.007-.141.022-.207a2.14 2.14 0 0 1 .111-.43c.037-.119.089-.23.148-.341.111-.207.237-.4.385-.578a2.35 2.35 0 0 1 .563-.489c.193-.119.4-.207.622-.259.089-.022.178-.03.267-.044h.015c.126-.007.252-.015.37 0a.753.753 0 0 1 .178.037c.037.015.067.03.096.059.015.015.022.022.03.044a.119.119 0 0 1-.007.111.115.115 0 0 1-.044.044c-.03.022-.059.044-.096.052a.737.737 0 0 1-.178.03c-.007 0-.015-.007-.015-.015s0-.015.007-.015a.117.117 0 0 0 .052-.03c.03-.022.044-.044.044-.081 0-.03-.007-.052-.03-.067-.015-.015-.037-.022-.052-.03a.343.343 0 0 0-.126-.03 1.85 1.85 0 0 0-1.43.526 2.067 2.067 0 0 0-.407.541c-.111.207-.2.43-.259.667-.015.059-.03.111-.037.17-.015.074-.03.156-.037.23-.007.089-.015.17-.007.259 0 .089.022.207.052.296.015.03.022.067.037.096a.48.48 0 0 0 .163.2.596.596 0 0 0 .312.126h.148a.596.596 0 0 0 .126-.03c.089-.022.178-.059.259-.104.119-.067.237-.141.333-.23.156-.133.289-.281.415-.444.133-.17.252-.348.363-.533.119-.2.23-.4.326-.607.081-.178.17-.348.252-.526.081-.163.156-.326.237-.496.156-.326.319-.652.489-.97.104-.193.207-.378.326-.563.111-.17.23-.333.37-.489a3.16 3.16 0 0 1 .519-.474c.059-.044.119-.081.185-.119a.664.664 0 0 1 .126-.059c.022-.007.052-.007.074-.007s.037.015.052.03c.022.03.022.059.015.089 0 .007-.007.015-.007.022a.435.435 0 0 1-.119.111c-.007 0-.022-.007-.022-.015v-.015s.007-.015.007-.022c0-.007.007-.015.007-.022 0-.015-.007-.037-.022-.044-.007-.007-.022-.007-.037-.007-.022.007-.044.007-.067.015-.037.015-.074.037-.111.059-.022.015-.052.03-.074.052-.089.067-.17.141-.244.222a2.548 2.548 0 0 0-.481.763 3.467 3.467 0 0 0-.163.541l-.044.237a1.262 1.262 0 0 1-.03.17c-.007.044-.015.089-.022.141l-.022.178a1.725 1.725 0 0 1-.03.2l-.022.163c-.007.067-.022.133-.03.2-.015.074-.03.156-.037.23a3.897 3.897 0 0 1-.059.304c-.03.133-.059.274-.096.407.03.015.022.037.022.059z"/><path d="M24.496 21.437a.034.034 0 0 0-.037.007c-.015.015-.03.03-.037.044-.044.044-.081.089-.133.126a.987.987 0 0 1-.304.185l-.104.022h-.044c-.014 0-.022-.007-.037-.007a.158.158 0 0 1-.104-.089.203.203 0 0 1-.022-.096.64.64 0 0 1 .022-.207 1.598 1.598 0 0 1 .141-.348 1.562 1.562 0 0 1 .474-.511c.03-.015.059-.037.089-.052.059-.03.119-.037.178-.044a.31.31 0 0 1 .119.015c.022.007.044.022.067.037.015.007.022.022.037.03h.007c.007 0 .007-.007.015-.007l.044-.044c.022-.015.044-.03.074-.03h.007c.022 0 .037.007.059.022l.022.022a.225.225 0 0 1 .03.074.34.34 0 0 1 0 .119c0 .007-.007.015-.015.022s-.007.007-.015.007-.015-.007-.015-.007c-.007-.015-.007-.03-.015-.044 0-.007-.007-.007-.015-.007s-.015.007-.022.015c-.03.03-.059.059-.074.096-.015.03-.03.059-.044.096a3.078 3.078 0 0 0-.148.437l-.022.104-.022.104v.059c.007.037.03.059.074.052.007 0 .015-.007.022-.007a.587.587 0 0 0 .089-.052c.015-.015.037-.03.052-.044.081-.074.156-.156.222-.244.007-.015.015-.022.022-.037.022-.081.059-.163.081-.244a2.41 2.41 0 0 1 .133-.319c.022-.044.044-.096.081-.133a.13.13 0 0 1 .03-.037c.015-.022.037-.03.067-.044a.09.09 0 0 1 .096.022c.015.015.022.03.03.044.015.044.03.096.022.148 0 .015-.007.037-.015.044s-.022.007-.022 0-.015-.022-.022-.037c-.007-.007-.022-.007-.03 0s-.015.007-.022.015c-.022.022-.037.044-.052.067s-.022.037-.037.059l-.022.044a2.71 2.71 0 0 0-.156.474.723.723 0 0 0-.022.178v.037c0 .015.022.03.037.03h.015l.067-.022c.022-.015.044-.022.067-.044.015-.015.037-.03.052-.044a2.26 2.26 0 0 0 .341-.4.32.32 0 0 0 .037-.074c.037-.119.089-.237.141-.356.133-.289.267-.578.407-.867.156-.326.326-.644.511-.948.096-.163.193-.326.296-.481a3.591 3.591 0 0 1 .488-.585.748.748 0 0 1 .126-.096.54.54 0 0 1 .111-.052c.022-.007.037-.007.059-.007a.13.13 0 0 1 .096.067c.015.03.022.059.022.096v.081c0 .022-.007.037-.007.059a1.742 1.742 0 0 1-.067.348 2.15 2.15 0 0 1-.156.415 4.717 4.717 0 0 1-.163.326 4.926 4.926 0 0 1-.341.526c-.156.207-.311.4-.481.593a2.278 2.278 0 0 1-.193.2c-.104.104-.207.207-.319.311-.015.015-.037.03-.052.052-.081.081-.163.163-.244.237a.156.156 0 0 0-.037.059c-.015.052-.03.096-.044.148-.007.044-.022.096-.03.148-.007.03-.007.059-.007.089 0 .044 0 .089.015.141a.64.64 0 0 0 .052.119c.022.03.044.052.081.059a.086.086 0 0 0 .059 0 .474.474 0 0 0 .222-.089c.03-.015.052-.037.074-.059.052-.044.096-.089.133-.133.067-.074.126-.156.185-.237.059-.089.119-.185.178-.281a.481.481 0 0 1 .052-.081c.007-.015.007-.03.007-.044-.007-.037-.007-.074-.007-.111 0-.052.007-.096.022-.148.022-.059.044-.119.089-.17.015-.022.03-.037.044-.052.015-.007.022-.015.037-.022.022-.015.052 0 .067.03.007.03.015.059.015.089a.303.303 0 0 1-.037.133l-.022.044c-.022.037-.037.081-.059.119-.015.03-.022.067-.015.104s.022.074.037.104c.022.044.044.096.067.141.015.03.03.059.044.096.03.067.059.133.074.2 0 .015.022.022.037.015.007 0 .007-.007.015-.007.044-.022.081-.052.119-.089s.074-.081.104-.126c.015-.015.022-.037.037-.052.007-.007.015-.015.022-.015.015 0 .037.015.037.03v.015a.816.816 0 0 1-.17.215.623.623 0 0 1-.119.081c-.015.007-.037.015-.052.03-.007.007-.022.015-.022.022-.007.022-.015.044-.015.067 0 .015-.007.022-.007.03a.466.466 0 0 1-.193.237.319.319 0 0 1-.23.044.206.206 0 0 1-.074-.03.104.104 0 0 1-.044-.089c.007-.059.03-.119.067-.163s.089-.081.141-.111a.498.498 0 0 1 .096-.037l.067-.022.007-.007c0-.007.007-.015.007-.015l-.022-.111a2.552 2.552 0 0 0-.111-.326c0-.007-.007-.007-.015-.007s-.015 0-.015.007c-.007.015-.015.022-.022.037-.03.044-.052.089-.081.133-.022.037-.044.067-.067.104-.015.015-.022.03-.037.052-.052.081-.119.156-.185.23-.081.089-.17.17-.267.237a.56.56 0 0 1-.348.118.293.293 0 0 1-.111-.022.175.175 0 0 1-.096-.081c-.03-.037-.044-.081-.059-.126a.368.368 0 0 1-.007-.2c.007-.022.007-.052.007-.074 0-.007-.007-.007-.007-.007h-.007l-.03.03c-.074.089-.148.17-.222.252-.037.037-.074.081-.119.111-.03.022-.052.044-.081.059-.03.022-.067.037-.104.052-.022.007-.044.007-.067.007a.089.089 0 0 1-.081-.052.14.14 0 0 1-.022-.074c0-.059 0-.119.007-.17 0-.015.007-.03.007-.044v-.007h-.015c-.015.015-.03.037-.044.052a1.767 1.767 0 0 1-.207.2c-.03.022-.052.044-.081.059a.26.26 0 0 1-.104.044c-.015 0-.022.007-.037.007-.074.007-.119-.044-.133-.104-.007-.022-.007-.052-.007-.081 0-.074.007-.141.037-.215-.007 0-.007 0 0 0-.007-.007-.015-.007 0 0-.007 0-.007 0 0 0zm3.423-3.526c0-.015 0-.037-.007-.059 0-.007 0-.015-.007-.022-.007-.015-.022-.03-.037-.022-.015 0-.022.007-.03.007-.007.007-.022.015-.03.022-.03.022-.059.052-.089.081a2.026 2.026 0 0 0-.163.193 7.627 7.627 0 0 0-.274.385 1.642 1.642 0 0 0-.096.156c-.044.089-.096.17-.141.259-.052.104-.096.2-.148.304a27.01 27.01 0 0 0-.504 1.074 21.48 21.48 0 0 1-.178.393c-.007.015-.015.03-.015.044l.007.007c.007 0 .015-.007.022-.015.185-.178.37-.363.541-.556.089-.096.17-.193.252-.289.163-.207.319-.422.444-.652.089-.148.163-.304.23-.467.089-.215.156-.43.2-.659a.66.66 0 0 0 .022-.185zm-4.045 3.57v.037a.15.15 0 0 0 .044.104.123.123 0 0 0 .089.037c.015 0 .037 0 .052-.007a.343.343 0 0 0 .096-.037c.037-.022.074-.052.111-.081.081-.074.156-.156.215-.252.044-.074.089-.148.119-.23.015-.037.037-.081.052-.119s.03-.081.044-.126c.015-.044.015-.089.015-.126 0-.03-.015-.059-.03-.081s-.037-.037-.067-.044c-.022-.007-.052-.007-.074-.007a.462.462 0 0 0-.133.044c-.03.015-.059.037-.089.059-.104.081-.185.17-.252.281a1.502 1.502 0 0 0-.17.385.649.649 0 0 0-.022.163zm3.215.171h.022c.015-.007.037-.007.052-.015.022-.007.044-.03.059-.052.015-.03.022-.067.03-.096 0-.007 0-.015-.007-.015s-.015-.007-.015-.007a.251.251 0 0 0-.126.081c-.015.015-.022.03-.03.044 0 .007-.007.015-.007.022s.007.022.015.03c0 .007.007.007.007.007zM12.948 24.281c0 .022 0 .044-.007.067v.163c0 .03.007.059.015.089s.03.052.059.052c.03.007.059 0 .089 0 .037-.007.081-.022.119-.037s.074-.037.111-.052c.193-.119.363-.259.496-.437 0-.007.007-.007.007-.015.052-.067.044-.067.141-.052.007 0 .007.007.015.007s.007.015.007.022c-.007.007-.007.015-.015.022a2.695 2.695 0 0 1-.355.355 2.656 2.656 0 0 1-.281.222 1.144 1.144 0 0 1-.341.163.358.358 0 0 1-.156.007.217.217 0 0 1-.17-.148.293.293 0 0 1-.022-.111c0-.081 0-.156.007-.237.007-.074.022-.148.044-.222 0-.007.007-.015.007-.022.007-.015.015-.015.03-.022h.007c.059 0 .119.007.185.007h.007c.007 0 .015.015.015.022-.007.03-.007.067-.015.096v.059zM14.963 20.178c-.052 0-.081-.015-.111-.03-.007 0-.007-.007-.015-.015s-.015-.022-.022-.037c0-.03 0-.059.015-.081a.232.232 0 0 1 .081-.089c.022-.015.052-.015.074-.015.007 0 .015.007.022.015.015.007.022.022.03.037.007.007.007.015.007.022.015.037.007.081-.007.119a.072.072 0 0 1-.037.044.046.046 0 0 1-.037.03zM11.519 7.926c.022 0 .037.015.037.037S11.541 8 11.519 8s-.037-.015-.037-.037.015-.037.037-.037zM18.793 18.141a5.207 5.207 0 0 1-1.37.185c-.074 0-.148 0-.215-.007.015.022.022.052.03.081.059 0 .126.007.193.007a5.04 5.04 0 0 0 1.304-.17.266.266 0 0 1 .059-.096zM17.422 8.185c-2.83 0-5.126 2.259-5.126 5.096a5.128 5.128 0 0 0 4.274 5.059c.015-.03.022-.052.044-.074a5.058 5.058 0 0 1-4.237-4.985 5.045 5.045 0 0 1 5.044-5.044c2.185 0 4.296 1.533 4.896 3.644-.533-2.193-2.667-3.696-4.896-3.696zM18.622 18.4a5.161 5.161 0 0 1-1.504.126c.007.03.015.059.015.081.481.03.978-.015 1.467-.126 0-.022.007-.052.022-.081zM20.652 17.437a5.162 5.162 0 0 1-1.296.733c-.015.007-.022.007-.037.015a.26.26 0 0 1-.044.104l.111-.044a5.43 5.43 0 0 0 1.311-.748l-.044-.059z"/><path d="M15.474 8.341c-2.77 1.007-4.104 4.156-3.022 6.896a5.348 5.348 0 0 0 3.985 3.289c.007-.03.022-.052.037-.081a5.27 5.27 0 0 1-3.948-3.237 5.258 5.258 0 0 1 2.956-6.822c2.119-.837 4.748-.156 6.141 1.659-1.356-1.911-3.963-2.496-6.148-1.704z"/><path d="M16.385 18.63a5.418 5.418 0 0 1-3.607-2.474 5.454 5.454 0 0 1 1.756-7.504c2-1.244 4.807-1.037 6.563.548-1.748-1.696-4.526-1.83-6.593-.593-2.622 1.57-3.415 4.993-1.8 7.585a5.527 5.527 0 0 0 3.659 2.511.457.457 0 0 0 .022-.074zM21.459 16.919a5.338 5.338 0 0 1-1.185.993 5.213 5.213 0 0 1-1.067.511.419.419 0 0 1 .096.059 5.43 5.43 0 0 0 1.022-.496 5.447 5.447 0 0 0 1.2-1l-.067-.067zM18.474 18.622a5.3 5.3 0 0 1-1.407.096v.089c.459.03.919 0 1.378-.089.015-.03.022-.067.03-.096zM20.593 8.593c.022 0 .037.015.037.037s-.015.037-.037.037a.035.035 0 0 1-.037-.037c0-.015.015-.037.037-.037zM13.4 9.007c.03 0 .052.022.052.044s-.022.044-.052.044-.052-.022-.052-.044.022-.044.052-.044zM12.933 9.081c.059 0 .111.044.111.104s-.052.104-.111.104c-.059 0-.111-.044-.111-.104 0-.052.044-.104.111-.104zM12.63 9.919c.037 0 .059.03.059.059 0 .037-.03.059-.059.059s-.059-.03-.059-.059c0-.03.03-.059.059-.059z"/><path d="M11.948 11.741c.022 0 .044.022.044.052s-.022.052-.044.052-.044-.022-.044-.052.022-.052.044-.052zM11.585 12.704c.052 0 .089.037.089.081s-.037.081-.089.081-.089-.037-.089-.081.037-.081.089-.081zM11.244 13.133c.052 0 .096.044.096.104s-.044.104-.096.104c-.052 0-.096-.044-.096-.104.007-.059.044-.104.096-.104zM11.526 13.659c.022 0 .044.015.044.037s-.022.037-.044.037-.044-.015-.044-.037.022-.037.044-.037zM11.393 15.222c.044 0 .074.037.074.081s-.03.081-.074.081-.074-.037-.074-.081.037-.081.074-.081zM12.244 16.563c.03 0 .052.022.052.059 0 .03-.022.059-.052.059s-.052-.022-.052-.059.022-.059.052-.059zM13.563 17.748c.037 0 .074.03.074.074s-.03.074-.074.074a.074.074 0 0 1-.074-.074c.007-.037.037-.074.074-.074zM14.6 18.622c.022 0 .044.022.044.044s-.015.044-.044.044c-.022 0-.044-.022-.044-.044s.022-.044.044-.044zM15.4 17.356c.03 0 .052.022.052.044s-.022.044-.052.044-.052-.022-.052-.044.022-.044.052-.044zM24.956 23.23h.133s.007 0 .007.007c.007.007.007.022 0 .03l-.007.007h-.03c-.008 0-.015.007-.022.015-.007.007-.007.015-.007.022v.192l.015.015c.022 0 .052.007.074 0h.007v-.007c.007-.015.007-.03.015-.052a.25.25 0 0 1 .081-.141.287.287 0 0 1 .207-.096h.037a.303.303 0 0 1 .244.141c.022.03.037.067.044.104s.015.081.007.119a.328.328 0 0 1-.126.237.254.254 0 0 1-.111.052c-.022.007-.044.007-.067.007-.037 0-.067 0-.096-.015a.283.283 0 0 1-.111-.067.278.278 0 0 1-.089-.163c-.007-.015-.007-.037-.015-.052 0-.007 0-.007-.007-.007a.159.159 0 0 0-.081 0l-.007.007V23.786c0 .008.007.015.007.022 0 .007.007.007.015.007.015 0 .03.007.052.007.007 0 .007.007.015.015v.015l-.007.007h-.259c-.007 0-.015-.007-.015-.022 0-.007.007-.015.015-.015.015 0 .03-.007.044-.007s.03-.015.03-.03v-.489c-.007-.015-.015-.022-.03-.022s-.022 0-.037-.007c-.015 0-.022-.022-.015-.03l.007-.007h.082zm.651.311c0-.015 0-.037-.007-.067 0-.037-.015-.067-.03-.104a.179.179 0 0 0-.141-.104h-.022a.12.12 0 0 0-.096.044.13.13 0 0 0-.037.052c-.015.03-.03.059-.03.096a.635.635 0 0 0 0 .163.324.324 0 0 0 .067.163c.022.03.052.044.089.044h.052c.007 0 .015-.007.03-.007.037-.015.067-.037.081-.074a.498.498 0 0 0 .037-.096c.007-.037.007-.067.007-.111zM15.859 23.23h.126c.007 0 .015.007.015.015 0 .007-.007.022-.015.022-.015 0-.022 0-.037.007a.032.032 0 0 0-.03.03v.192c0 .007.007.015.015.015h.074l.015-.007c0-.015.007-.03.015-.052a.25.25 0 0 1 .081-.141.297.297 0 0 1 .111-.074.195.195 0 0 1 .089-.022h.037c.044 0 .089.015.126.037a.38.38 0 0 1 .111.104.26.26 0 0 1 .044.104c.007.03.007.059.007.089a.376.376 0 0 1-.022.126.306.306 0 0 1-.237.207c-.03 0-.059.007-.089 0a.291.291 0 0 1-.193-.104.255.255 0 0 1-.067-.141c0-.015-.007-.03-.007-.052 0-.007-.007-.015-.015-.015h-.066c-.007 0-.007.007-.007.015V23.778c0 .008 0 .007.007.015s.007.015.022.015.03.007.044.007c.007 0 .015.015.015.022s-.007.007-.007.015h-.252c-.015 0-.022-.007-.015-.022 0-.007.007-.015.007-.015.007 0 .015 0 .022-.007.007 0 .015 0 .03-.007.015 0 .022-.015.022-.022s0-.007.007-.015v-.466c0-.007 0-.015-.007-.022-.007-.015-.015-.022-.022-.022-.015 0-.03-.007-.044-.007 0 0-.007 0-.007-.007-.007-.007-.007-.022 0-.03l.007-.007h.022c-.007.03.03.03.067.03zm.645.333v-.059a.203.203 0 0 0-.015-.074.251.251 0 0 0-.037-.081c-.03-.044-.067-.067-.119-.067h-.022a.155.155 0 0 0-.096.037c-.015.015-.03.03-.037.044-.015.03-.03.059-.03.096 0 .015-.007.03-.007.052v.081c0 .015 0 .022.007.037a.324.324 0 0 0 .037.119c.007.015.015.022.03.037.022.03.052.044.089.044h.052c.015 0 .022-.007.037-.007a.114.114 0 0 0 .059-.044c.007-.015.015-.022.022-.037a.242.242 0 0 0 .03-.104v-.074zM12.37 23.867h-.119a.015.015 0 0 1-.015-.015c0-.007.007-.022.015-.022.015 0 .022 0 .037-.007.015 0 .03-.015.03-.03V23.438c0-.007 0-.007-.007-.007h-.007c-.007.007-.007.015-.015.022-.052.111-.104.23-.156.341a.144.144 0 0 1-.03.059c-.007.007-.015.007-.022.007s-.015 0-.022-.007c-.007-.007-.007-.022-.015-.03-.044-.089-.081-.185-.126-.274-.015-.037-.03-.067-.044-.104 0-.007-.007-.015-.007-.022 0 0-.007-.007-.007 0v.311c0 .022 0 .037.007.052 0 .015.007.022.022.022s.03.007.044.007c.007 0 .015.007.015.015v.007c0 .007 0 .007-.007.007H11.727c-.007 0-.007-.007-.007-.015v-.007c0-.007.007-.007.007-.015.007 0 .015 0 .03-.007.007 0 .015 0 .022-.007.007 0 .015-.007.015-.015s.007-.015.007-.022V23.283c-.007-.022-.022-.03-.037-.037h-.03c-.015 0-.015-.015-.015-.022 0-.007.007-.015.015-.015h.163c.007 0 .015.007.022.015 0 .007.007.007.007.015.007.007.007.022.015.03.059.119.111.244.17.363.007.007.007.015.015.022h.007c.007-.007.007-.015.015-.022.052-.104.096-.215.148-.319.015-.03.03-.059.037-.089 0-.007.007-.007.007-.015l.007-.007H12.51c.015 0 .022.015.015.03 0 .007-.007.007-.015.007h-.022c-.007 0-.015 0-.022.007-.007 0-.015.007-.015.015-.007.007-.007.015-.007.03v.474c0 .007.007.015.007.022s.007.007.015.007c.007 0 .015.007.03.007h.022c.007 0 .015.007.015.015v.007c0 .007 0 .007-.007.007h-.022c-.059.037-.096.037-.133.037zM23.674 23.23h.126c.007 0 .015.007.015.015 0 .007-.007.022-.015.022s-.022 0-.03.007c-.007 0-.015.007-.022.007l-.015.015c0 .015-.007.022-.007.037v.458c0 .015.015.022.022.022.015 0 .03.007.044.007s.022.022.015.03l-.007.007h-.26c-.008 0-.007-.007-.015-.007v-.007c0-.007.007-.022.015-.022.015 0 .03-.007.044-.007s.022-.007.022-.022c.007-.015.007-.022.007-.037V23.444h-.014c-.007.007-.015.015-.015.022-.067.089-.141.178-.207.267 0 .007-.007.007-.007.015-.007.007-.007.015-.007.022s0 .015.007.03c0 .007.007.015.022.015s.03.007.052.007c.007 0 .015.007.015.015v.007c0 .007 0 .007-.007.007h-.259c-.007 0-.007 0-.007-.007-.007-.007-.007-.015-.007-.022s.007-.007.007-.015c.015 0 .03-.007.044-.007.007 0 .015-.007.022-.015l.007-.007c0-.007 0-.007.007-.015v-.408c0-.022 0-.044-.007-.067 0-.015-.015-.022-.022-.03-.015-.007-.022 0-.037-.007-.007 0-.015-.007-.015-.015s0-.015.007-.015l.007-.007h.259c.007 0 .007 0 .007.007v.015a.015.015 0 0 1-.015.015c-.015 0-.022 0-.037.007-.007 0-.007.007-.015.007l-.015.015c-.007.022-.007.037-.007.059v.281l.007.007h.007l.015-.015c.074-.089.141-.178.215-.274.007-.007.007-.015.015-.022s.007-.015.007-.022c0-.007-.007-.015-.007-.03 0-.007-.007-.015-.022-.015s-.03-.007-.044-.007c-.007 0-.015-.007-.015-.015v-.015s0-.007.007-.007h.022c.015.022.052.022.089.022zM14.074 23.867h-.126c-.007 0-.022-.015-.015-.022 0-.007.007-.007.007-.015.007 0 .015 0 .022-.007.007 0 .015 0 .03-.007.015 0 .015-.015.022-.022v-.215s-.007-.007-.015-.007H13.776a.015.015 0 0 0-.015.015V23.78c0 .015.007.03.03.03a.1.1 0 0 0 .044.007c.007 0 .015.007.015.015v.007c0 .007-.007.015-.015.015h-.26c-.008 0-.007-.007-.007-.015v-.007c0-.007.007-.007.007-.015.007 0 .015 0 .022-.007.007 0 .015 0 .03-.007.007 0 .015-.007.022-.015 0-.007.007-.015.007-.022V23.306c0-.03-.015-.044-.037-.044-.007 0-.022 0-.03-.007 0 0-.007 0-.007-.007-.007-.007-.007-.022 0-.03l.007-.007h.252c.007 0 .015.015.015.022s-.007.015-.015.015c-.015 0-.022 0-.037.007-.007 0-.015.007-.022.007-.007.007-.007.015-.007.022v.185c0 .007.007.015.015.015h.229c.007 0 .007-.007.007-.015v-.185c0-.022-.022-.037-.037-.037h-.03c-.008 0-.015-.015-.015-.022 0-.007.007-.015.015-.015h.245c.015 0 .022.007.015.022 0 .007-.007.015-.015.015h-.045c-.015.007-.022.015-.022.03v.482c0 .015.015.022.022.03.007 0 .015.007.03.007h.015c.008 0 .015.007.015.022 0 .007-.007.015-.015.015h-.066c-.03.037-.044.037-.067.037zM22.704 23.23h.245s.007 0 .007.007c0 0 0 .007.007.007v.007c0 .007-.007.007-.007.015-.007.007-.022 0-.03.007-.007 0-.007 0-.015.007-.007 0-.015.007-.022.022 0 .007-.007.015-.007.03V23.717c0 .022 0 .052.007.074 0 .007 0 .007.007.015 0 .015.007.022.022.022.007 0 .015 0 .03.007.007 0 .007 0 .015.007.007 0 .007.007.007.015V24.041c0 .007-.007.007-.015.007h-.015l-.007-.007c-.007-.015-.007-.03-.015-.044-.007-.03-.022-.052-.044-.074s-.044-.037-.074-.037c-.022-.007-.044-.007-.074-.007h-.141c-.022 0-.044 0-.074.007a.118.118 0 0 0-.081.052.193.193 0 0 0-.044.074c0 .007-.007.015-.007.03 0 .007-.015.015-.022.015s-.015-.007-.015-.015V23.851s0-.007.007-.007.015-.007.022-.007a.176.176 0 0 0 .089-.074.225.225 0 0 0 .03-.074c.015-.037.022-.081.03-.126.007-.052.015-.096.015-.148v-.052c0-.015 0-.03-.007-.052 0-.007-.007-.007-.007-.015-.007-.007-.015-.015-.03-.015s-.03 0-.044-.007l-.007-.007c-.007-.007-.007-.015 0-.022 0-.007.007-.007.015-.007h.03c.074-.007.148-.007.222-.007zm.059.311v-.237a.015.015 0 0 0-.015-.015h-.126s-.007.007-.015.007v.022c-.007.067-.007.141-.022.207 0 .03-.007.059-.015.089-.007.052-.03.096-.052.148 0 .007-.007.015-.007.022 0 0 0 .007-.007.007 0 .007 0 .015.007.015H22.747c.007 0 .015-.015.015-.022v-.245zM9.541 23.23h.252c.007 0 .007 0 .007.007v.007c0 .007-.007.022-.015.022s-.022 0-.03.007c-.007 0-.007 0-.015.007-.007 0-.015.007-.015.015-.007.007-.007.022-.007.03v.363c0 .03 0 .059.007.089 0 .007 0 .007.007.015 0 .007.007.015.022.015.015.007.03 0 .044.007.007 0 .007.007.007.015V24.02c0 .007-.007.007-.007.015h-.007c-.007 0-.022-.007-.022-.015-.007-.015-.007-.03-.015-.044a.107.107 0 0 0-.044-.067c-.022-.022-.044-.03-.067-.037s-.044-.007-.074-.007h-.148c-.022 0-.044 0-.067.007a.134.134 0 0 0-.089.052c-.022.022-.03.052-.044.081 0 .007-.007.015-.007.022-.007.015-.015.015-.03.015-.007 0-.007-.007-.007-.007v-.184c0-.007.007-.007.007-.015.007 0 .015-.007.022-.007a.129.129 0 0 0 .059-.037c.015-.015.022-.03.03-.044.022-.037.037-.081.044-.126l.022-.133c0-.022.007-.044.007-.067v-.074c0-.015 0-.03-.007-.044 0-.007-.007-.007-.007-.015-.007-.007-.015-.015-.022-.015-.015 0-.03 0-.044-.007-.007 0-.015-.007-.015-.015v-.015l.007-.007h.26zm.059.318v-.236s-.007-.007-.007-.015h-.14l-.007.007v.007c-.007.044-.007.096-.007.141-.007.052-.007.104-.022.156-.015.059-.03.119-.059.17 0 .007-.007.007-.007.015-.007.007 0 .015.007.015h.222c.008 0 .022-.015.022-.022v-.237zM21.074 23.23H21.385s.007 0 .007.007c.007.007.007.022 0 .03l-.007.007c-.007 0-.022 0-.03.007-.007 0-.015.007-.022.015l-.007.007v.423c0 .022 0 .044.007.067 0 .007.015.022.022.03.015 0 .022.007.037.007s.022.015.015.022c0 .007-.007.015-.015.015h-.252s-.007 0-.007-.007c0 0 0-.007-.007-.007v-.007c0-.007.007-.015.015-.015.007 0 .007 0 .015-.007.007 0 .015 0 .03-.007.015 0 .022-.007.022-.022.007-.015.007-.03.007-.044V23.307c0-.007-.007-.015-.015-.015H20.977l-.015.007V23.757c0 .014 0 .022.007.037 0 .007.007.015.022.015.015.007.03 0 .052.007.007 0 .007.007.007.015v.007c0 .007-.007.007-.007.015h-.259s-.007 0-.007-.007 0-.03.007-.03c.015 0 .03-.007.044-.007s.022-.015.022-.03v-.489c0-.014-.015-.03-.03-.03s-.022 0-.037-.007c-.007 0-.015-.007-.015-.015s0-.015.007-.022l.007-.007h.03a.948.948 0 0 0 .259.022zM10.933 23.23h.148c.007 0 .007 0 .007.007v.007c0 .007-.007.022-.015.022-.015 0-.022 0-.037.007-.007 0-.007.007-.015.007l-.015.015v.488c0 .007.015.022.03.03.007 0 .015 0 .03.007h.022c.007.007.007.022 0 .03h-.258c-.015 0-.022-.007-.015-.022 0-.007.007-.015.007-.015.007 0 .015 0 .022-.007.007 0 .015 0 .03-.007.015 0 .015-.015.022-.022v-.193c0-.015-.007-.022-.022-.022h-.014s-.007 0-.007.007l-.022.022-.133.178c-.015.022-.03.044-.044.059 0 .007-.007.007-.015.007h-.162c-.007 0-.007 0-.007-.007-.007-.015 0-.03.015-.03.007 0 .015 0 .022-.007a.214.214 0 0 0 .074-.037 5.178 5.178 0 0 1 .111-.148c.015-.022.03-.037.044-.059 0-.007 0-.007-.007-.015-.007 0-.007-.007-.015-.007-.007-.007-.022-.007-.03-.015-.022-.015-.044-.03-.059-.052l-.022-.044c0-.007-.007-.015-.007-.03v-.037c.007-.059.044-.096.096-.119.015-.007.022-.007.037-.015.03-.007.067-.007.096-.007.044.022.081.022.111.022zm-.037.185v-.104c0-.007-.007-.015-.007-.015a.191.191 0 0 0-.089 0c-.037.015-.074.052-.074.096v.03c0 .015.007.03.015.044.015.03.044.044.074.052.015.007.03.007.052.007h.022c.007 0 .015-.007.015-.015v-.015c-.007-.03-.007-.052-.007-.081zM24.163 23.23h.126c.007 0 .015.007.015.022 0 .007-.007.022-.015.022s-.022 0-.03.007c-.022 0-.037.015-.037.044v.177c0 .007 0 .007.007.007.022.007.037 0 .052-.007.03-.015.044-.037.059-.067l.022-.044c.007-.022.015-.037.022-.059l.022-.052a.095.095 0 0 1 .067-.052c.015-.007.03-.007.044-.007a.17.17 0 0 1 .059.007s.007 0 .007.007c.015.007.022.022.022.044s-.007.037-.03.052c0 0-.007 0-.007.007-.007 0-.015.007-.03 0-.022-.007-.037-.015-.059-.022-.007 0-.022 0-.022.007s-.007.007-.007.015c-.007.022-.015.037-.022.059-.007.015-.007.022-.015.037a.223.223 0 0 1-.067.096c-.007.007 0 .007 0 .015l.007.007c.03.022.052.059.074.089s.037.059.059.089c.015.022.03.037.044.059l.015.015c.015.015.03.022.052.022.007 0 .015.007.03.007.007 0 .015.015.007.03 0 .007 0 .007-.007.007H24.473s-.007 0-.007-.007-.015-.015-.022-.03c-.037-.059-.081-.111-.119-.17-.015-.022-.037-.044-.052-.067-.007-.007-.015-.015-.022-.015s-.007 0-.015-.007c-.007 0-.015.007-.015.007V23.781c0 .007 0 .007.007.015s.015.015.022.015h.037c.007 0 .022.015.022.03 0 .007-.007.007-.015.007h-.26a.015.015 0 0 1-.015-.015c0-.007.007-.022.015-.022.015 0 .03-.007.044-.007s.022-.007.022-.022c0-.007.007-.015.007-.022V23.3c0-.015-.015-.03-.037-.03-.007 0-.022 0-.03-.007 0 0-.007 0-.007-.007-.007-.007-.007-.022 0-.03l.007-.007h.022c.022.007.059.007.096.007zM15.052 23.867h-.133c-.007 0-.007-.007-.007-.015v-.007c0-.007.007-.007.007-.015.007 0 .015 0 .022-.007.007 0 .015 0 .03-.007.007 0 .015-.007.015-.015.007-.007.007-.015.007-.03v-.451c0-.007 0-.015-.007-.022a.059.059 0 0 0-.03-.03h-.037a.015.015 0 0 1-.015-.015v-.007c0-.007.007-.007.007-.015h.251s.007 0 .007.007.007.022 0 .03l-.007.007c-.015 0-.022 0-.037.007-.015 0-.022.015-.03.03 0 .007 0 .015-.007.03V23.512c0 .007.007.007.015.007h.03c.015 0 .022-.007.03-.015a.21.21 0 0 0 .052-.059l.022-.044c.007-.022.015-.037.022-.059l.022-.044c.015-.03.044-.044.074-.059h.015a.133.133 0 0 1 .074 0c.015.007.037.022.037.044v.007c0 .022-.007.037-.03.044-.007 0-.007.007-.015.007h-.022c-.015-.007-.022-.007-.037-.015-.007 0-.015-.007-.022-.007s-.015 0-.022.007c0 .007-.007.007-.007.015l-.022.052c-.007.007-.007.022-.015.03a.232.232 0 0 1-.074.111c-.007.007-.007.007 0 .015l.007.007c.03.03.052.059.081.096.022.03.037.059.059.089.015.015.03.037.044.052l.022.022c.015.015.03.022.052.022.007 0 .015 0 .022.007.007 0 .015.015.015.03 0 .007-.007.015-.007.015H15.355c-.007 0-.007 0-.015-.007s-.015-.022-.022-.03c-.037-.052-.074-.111-.119-.163-.015-.022-.037-.044-.052-.067-.007-.007-.015-.015-.022-.015h-.015c-.008 0-.007 0-.007.007v.2c0 .008.007.015.007.022 0 .007.007.007.015.007s.015 0 .03.007c.007 0 .015 0 .022.007.007 0 .015.007.015.015s0 .007-.007.015l-.007.007h-.022c-.03-.03-.067-.03-.104-.03zM21.844 23.867h-.237c-.007 0-.007-.007-.007-.015v-.007c0-.007.007-.007.007-.015.007 0 .015 0 .022-.007.007 0 .015 0 .03-.007s.022-.015.022-.03v-.474c0-.007 0-.007-.007-.015-.007-.015-.015-.022-.022-.022-.015 0-.03 0-.044-.007-.007 0-.015-.007-.015-.015v-.007c0-.007.007-.007.015-.007H22.074c.007 0 .015.007.015.015.007.044.007.081.007.126 0 0-.007.007-.007.015h-.007c-.007 0-.015-.007-.015-.015s-.007-.015-.007-.03c-.007-.007-.007-.022-.015-.03l-.022-.022c-.007-.007-.022-.007-.03-.007H21.822a.015.015 0 0 0-.015.015v.192l.007.007h.111c.015 0 .022 0 .03-.007.022-.007.03-.015.037-.037v-.015c0-.008 0-.007.007-.015 0-.015.022-.015.03-.007v.221c0 .007-.007.007-.015.007-.015 0-.022 0-.03-.015v-.03c-.007-.022-.022-.03-.037-.037h-.148c-.007 0-.007.007-.015.007V23.777c0 .015.007.022.022.022H21.976c.022 0 .037-.007.052-.022s.022-.03.037-.044c.007-.015.015-.022.022-.037.007-.007.015-.015.03-.015.007 0 .015.007.015.015v.007a6.89 6.89 0 0 0-.044.133c-.007.015-.015.015-.022.015h-.044c-.059.015-.119.015-.178.015zM26.104 23.23h.104c.03 0 .059.007.096.015a.204.204 0 0 1 .111.081.122.122 0 0 1 .022.074c.007.03 0 .067-.015.089a.188.188 0 0 1-.081.089c-.015.007-.03.015-.044.015-.007 0-.022 0-.03.007h-.052c-.015 0-.03-.007-.044-.007l-.015.007V23.756c0 .015 0 .03.007.044 0 .015.007.022.022.022a.1.1 0 0 0 .044.007c.007 0 .007.007.015.007.007.007 0 .015 0 .022l-.007.007h-.26c-.008 0-.007-.007-.007-.015v-.007c0-.007.007-.015.007-.015.007 0 .015 0 .022-.007h.022c.015 0 .022-.015.03-.022 0-.007.007-.022.007-.03v-.445c0-.007 0-.015-.007-.022-.007-.015-.015-.022-.022-.022h-.03c-.015 0-.022-.015-.022-.03 0-.007 0-.007.007-.007h.096c-.007-.015.007-.015.022-.015zm.207.192v-.03c0-.022-.007-.037-.022-.059-.015-.015-.03-.03-.052-.037s-.052-.007-.074 0c0 0-.007.007-.007.015V23.518s.007.007.007.015a.134.134 0 0 0 .052.007h.007c.044-.007.081-.044.081-.089 0-.015 0-.022.007-.03zM16.926 23.556v-.193c0-.022 0-.044-.007-.067 0-.015-.015-.022-.022-.022h-.045c-.007 0-.015-.007-.015-.015v-.007c0-.007.007-.007.007-.015h.237c.037 0 .067 0 .096.007.037.007.067.03.096.052a.163.163 0 0 1 .052.126.18.18 0 0 1-.037.104.149.149 0 0 1-.104.059c-.007 0-.022 0-.03.007h-.052c-.015 0-.022 0-.037-.007-.015 0-.022.007-.022.022v.156c0 .007 0 .022.007.03 0 .015.007.022.022.022.007 0 .015.007.03.007h.015c.008 0 .015.007.015.022 0 .007-.007.015-.015.015h-.259c-.007 0-.015-.007-.015-.022v-.007c0-.007.007-.007.007-.015.007 0 .015 0 .03-.007.007 0 .015 0 .022-.007.007 0 .015-.007.015-.022 0-.007.007-.015.007-.022v-.052c.007-.037 0-.096 0-.148zm.118-.141v.104c0 .007.007.007.007.015a.134.134 0 0 0 .052.007h.015c.052-.015.081-.059.081-.096v-.037a.083.083 0 0 0-.022-.059c-.015-.022-.03-.037-.052-.037a.133.133 0 0 0-.074 0c-.007 0-.007.007-.007.015v.089zM20.007 23.867h-.118c-.007 0-.015-.007-.015-.022 0-.007.007-.015.015-.015.007-.007.022-.007.03-.007.015 0 .022-.022.015-.03-.007-.015-.007-.03-.015-.044-.007-.022-.015-.037-.022-.059-.007-.015-.015-.022-.037-.022h-.185c-.008 0-.007 0-.007.007-.015.037-.03.074-.044.104v.015c0 .008.007.022.015.022.007 0 .007 0 .015.007.007 0 .015 0 .022.007.015 0 .015.015.015.03 0 .007-.007.007-.007.015H19.493c-.007 0-.007-.007-.007-.007-.007-.015 0-.022.015-.03.007 0 .007 0 .015-.007.015-.007.022-.015.03-.022s.015-.022.015-.03l.022-.052c.059-.148.126-.296.185-.437l.022-.044c.007-.014.015-.015.03-.015.007 0 .007 0 .015.007.007.015.015.022.015.037l.178.422c.007.022.015.037.022.059l.022.044c.007.014.022.03.044.03.007 0 .007 0 .015.007.015.007.022.015.015.03 0 .007 0 .007-.007.007h-.037c-.03-.007-.059-.007-.089-.007zm-.237-.26h.074c.008 0 .015-.007.007-.015a10.457 10.457 0 0 0-.067-.156l-.007-.007c0-.007-.007-.007-.007 0-.007.007-.007.015-.015.022-.022.044-.037.089-.059.133 0 .007-.007.007-.007.015v.007c0 .007 0 .015.007.015.03-.015.052-.022.074-.015zM13.23 23.867h-.104c-.007 0-.015-.007-.015-.015s.007-.022.015-.022c.007 0 .022-.007.03-.007s.015-.015.015-.03v-.007l-.044-.111c0-.007-.007-.007-.015-.007h-.2c-.007 0-.007 0-.015.007-.015.03-.03.067-.044.104v.015c0 .008.007.022.015.03.015 0 .022.007.037.007 0 0 .007 0 .007.007.007 0 .007.022 0 .03h-.199c-.007 0-.007-.007-.007-.007 0-.015 0-.022.015-.03.007 0 .015-.007.022-.007s.022-.007.03-.022c.007-.007.015-.015.015-.03.007-.022.022-.044.03-.067.059-.141.119-.289.185-.43l.022-.044c.007-.007.015-.015.03-.015.007 0 .007.007.015.007l.022.044c.059.141.119.274.17.415.007.022.015.037.022.059.007.015.015.037.03.052.007.015.022.022.037.03.007 0 .015.007.022.007.015 0 .015.015.015.022s-.007.015-.007.015h-.148zm-.23-.26h.074c.008 0 .015-.007.007-.015a10.457 10.457 0 0 0-.067-.156v-.007l-.007-.007s-.007 0-.007.007l-.067.156v.014c0 .007.007.007.007.015.022-.007.044-.015.059-.007zM17.652 23.23h.119c.007 0 .022.015.015.03 0 .007-.007.007-.015.007s-.015 0-.03.007c0 0-.007 0-.007.007-.007 0-.015.015-.007.015v.015a2.627 2.627 0 0 0 .149.259c0 .007.007.007.007.015s.007 0 .015 0l.007-.007c.03-.067.052-.126.081-.193l.022-.052c.007-.007.007-.022.007-.03s-.007-.015-.015-.022c-.007-.007-.015-.007-.022-.007s-.015-.007-.015-.015c0-.015.007-.022.015-.022H18.155c.007 0 .007 0 .015.007s.007.03-.007.03c-.007 0-.007 0-.015.007a.114.114 0 0 0-.059.044.15.15 0 0 0-.022.037.144.144 0 0 1-.03.059l-.089.215c-.015.044-.037.081-.059.119-.015.022-.022.044-.044.067-.015.022-.037.037-.059.052s-.052.015-.074.015c-.007 0-.015 0-.022-.007-.007 0-.015-.007-.022-.015-.022-.015-.03-.03-.022-.052 0-.015.007-.022.015-.03.015-.015.03-.015.052-.015.015.007.03.015.044.015.015.007.022 0 .03-.007a.072.072 0 0 0 .037-.044c0-.007.007-.015 0-.022 0-.007-.007-.007-.007-.015-.067-.119-.133-.23-.2-.348-.007-.007-.007-.015-.015-.022s-.007-.015-.015-.022c-.015-.015-.03-.022-.044-.03-.007 0-.015-.007-.022-.007s-.007-.007-.007-.015v-.007c0-.007.007-.015.015-.015h.126zM26.756 23.23h.118c.007 0 .022.015.015.022 0 .007-.007.015-.015.015s-.022.007-.03.007c-.007 0-.015.015-.015.03 0 .007 0 .007.007.015.007.015.015.037.03.052.037.067.074.133.119.2 0 .007.007.007.007.015s.007 0 .015 0l.007-.007c.03-.067.052-.133.081-.193.007-.015.015-.03.015-.044 0-.007.007-.015.007-.03s-.007-.022-.022-.03c-.007 0-.015-.007-.022-.007-.015-.007-.022-.022-.007-.037l.007-.007h.178c.007 0 .015 0 .015.007.007.015.007.03-.007.03 0 0-.007 0-.007.007a.118.118 0 0 0-.067.052c-.007.007-.007.015-.015.022-.007.015-.015.03-.015.044-.03.081-.067.156-.096.237-.015.044-.037.081-.059.119a.156.156 0 0 1-.037.059c-.007.015-.022.022-.037.037-.037.03-.081.037-.133.03a.15.15 0 0 1-.037-.022c-.007-.015-.007-.03-.007-.044 0-.007.007-.015.015-.022.015-.015.03-.015.052-.015l.052.022c.007 0 .022 0 .03-.007.015-.015.03-.03.037-.044v-.015c0-.008-.007-.015-.007-.022a8.401 8.401 0 0 1-.193-.341.133.133 0 0 0-.03-.044.092.092 0 0 0-.059-.044c-.007 0-.007 0-.015-.007s-.015-.022 0-.037l.007-.007h.03c.03.007.059.007.089.007zM8.563 23.23h.126c.007 0 .007.007.015.007v.015c0 .008-.007.007-.007.015-.007 0-.015 0-.022.007-.007 0-.007 0-.015.007-.007 0-.015.015-.007.015 0 .007 0 .015.007.022.007.022.022.044.03.067l.059.104c.015.03.03.059.052.089 0 .007.007.015.015.015 0 .007.007 0 .015 0 0-.007.007-.007.007-.015.022-.059.052-.126.074-.185a.538.538 0 0 1 .022-.059v-.022c0-.007-.007-.015-.015-.022-.007-.007-.015-.007-.022-.007-.015-.007-.022-.015-.015-.03v-.007h.192c.007 0 .015.007.015.015 0 .015 0 .022-.015.03a.12.12 0 0 0-.081.067l-.022.044c-.037.081-.067.163-.104.237-.015.037-.03.067-.044.104-.007.022-.022.037-.03.059-.015.022-.03.037-.044.052-.037.037-.081.044-.133.03-.015 0-.022-.007-.03-.022-.015-.015-.015-.03-.015-.044 0-.007.007-.015.007-.022a.067.067 0 0 1 .052-.022c.007 0 .022.007.03.007s.015.007.022.007.022 0 .037-.007.022-.022.03-.037v-.022c0-.008-.007-.007-.007-.015l-.2-.356c-.007-.015-.015-.022-.022-.037a.13.13 0 0 0-.052-.037c-.007 0-.007 0-.015-.007-.007 0-.015-.007-.015-.015v-.007c0-.007.007-.007.007-.015h.118zM7.03 23.556c0 .03 0 .059.007.096l.022.067c.015.03.037.052.067.067.037.022.111.037.148.022.015-.007.03-.007.044-.015.022-.007.037-.022.052-.037l.052-.052c.007-.007.007-.015.015-.015.007-.007.007-.007.015 0 0 0 .007 0 .007.007.007.007.007.015.007.022v.007a.266.266 0 0 1-.052.074c-.037.037-.074.067-.126.074-.03.007-.052.007-.081.007s-.067-.007-.096-.015a.286.286 0 0 1-.126-.081.326.326 0 0 1-.081-.185v-.104a.313.313 0 0 1 .2-.259.195.195 0 0 1 .089-.022h.03c.037 0 .074.007.111.022.015.007.03.015.044.015.007 0 .015 0 .022-.007s.007-.015.015-.022c.007-.007.015-.015.03-.007.007 0 .007.007.007.015v.022c0 .037.007.074.007.119v.059c0 .007-.007.015-.015.015s-.015 0-.022-.007l-.007-.007c-.007-.015-.007-.022-.015-.037s-.015-.037-.03-.052a.232.232 0 0 0-.111-.074h-.052c-.067 0-.111.03-.148.081-.015.03-.03.059-.037.096.007.052.007.067.007.111zM7.97 23.23h.245s.007.007.015.007v.007c0 .037 0 .081.007.119v.007c0 .007-.007.015-.022.015-.007 0-.015-.007-.015-.007 0-.007-.007-.015-.007-.022s0-.007-.007-.015a.072.072 0 0 0-.037-.044c-.007 0-.015-.007-.022-.007h-.089c-.007 0-.015.007-.015.015V23.772c0 .007 0 .015.007.022 0 .015.015.022.022.022.015 0 .022.007.037.007 0 0 .007 0 .007.007.007 0 .015.022.007.03l-.007.007h-.252a.015.015 0 0 1-.015-.015v-.007c0-.007.007-.015.015-.015.015 0 .022 0 .037-.007.015 0 .03-.015.03-.037V23.304c0-.007-.007-.015-.015-.015h-.081a.05.05 0 0 0-.044.03c-.007.007-.015.022-.015.03s-.007.022-.007.03c0 0 0 .007-.007.007-.007.007-.015.007-.03 0l-.007-.007v-.007c0-.044 0-.089.007-.133 0-.007.007-.015.015-.015h.059c.059.007.126.007.185.007zM19.059 23.23h.245l.015.015v.007c0 .037.007.074.007.119v.007c0 .007-.007.015-.015.015h-.007c-.007 0-.007-.007-.015-.007-.007-.015-.007-.022-.007-.037a.07.07 0 0 0-.067-.052h-.074c-.007 0-.015.007-.015.022V23.77c0 .014 0 .022.007.03.007.007.007.015.022.015.015.007.03 0 .052.007.007 0 .007.007.007.007v.015c0 .008 0 .007-.007.007h-.258c-.007 0-.015-.007-.015-.015v-.007c0-.007.007-.015.015-.015.015 0 .03-.007.044-.007.007 0 .015-.007.015-.015s.007-.007.007-.015V23.295c0-.007-.007-.015-.015-.015H18.918c-.007 0-.015.007-.022.007-.015.007-.022.022-.03.037s-.007.022-.007.037-.015.022-.03.015c-.007 0-.007-.007-.015-.015v-.022c0-.03.007-.067.007-.096v-.007c0-.007.007-.015.015-.015h.03c.044.007.119.007.193.007zM10.141 23.867h-.126c-.007 0-.007-.007-.007-.015s.007-.022.015-.022h.037c.015 0 .03-.015.03-.03v-.482c0-.014-.015-.03-.03-.03h-.045c-.007 0-.007-.007-.007-.015v-.007c0-.007.007-.015.015-.015h.252c.008 0 .015.007.015.015 0 .007 0 .015-.007.022l-.007.007c-.015 0-.022 0-.037.007a.032.032 0 0 0-.03.03v.481c0 .015.015.03.03.03s.03.007.044.007c.007 0 .015.007.015.015v.007c0 .007-.007.015-.015.015h-.022c-.044-.022-.081-.022-.119-.022zM14.563 23.23h.126c.007 0 .015.007.015.015v.007c0 .007-.007.007-.007.015h-.037c-.015 0-.03.015-.037.03v.474c0 .022.015.037.037.037.015 0 .022.007.037.007.007 0 .007.007.007.015v.007c0 .007-.007.015-.007.015h-.267s-.007-.007-.007-.015c0-.015.007-.022.015-.022s.022 0 .03-.007c.022 0 .03-.015.037-.037V23.297c0-.022-.022-.037-.037-.037h-.03c-.008 0-.015-.007-.015-.022 0-.007.007-.022.015-.022h.022a.267.267 0 0 0 .104.015z"/></symbol></defs></svg>