<?xml version="1.0" encoding="utf-8"?>
<!-- Generator: Adobe Illustrator 27.9.0, SVG Export Plug-In . SVG Version: 6.00 Build 0)  -->
<svg version="1.1" id="Слой_1" xmlns="http://www.w3.org/2000/svg" xmlns:xlink="http://www.w3.org/1999/xlink" x="100px" y="50px"
	 viewBox="0 0 432 432" style="enable-background:new 0 0 432 432;" xml:space="preserve">
<style type="text/css">
	.st0{fill:#BC2140;}
	.st1{fill-rule:evenodd;clip-rule:evenodd;fill:#BC2140;}
	.st2{fill:#FFFFFF;}
	.st3{fill-rule:evenodd;clip-rule:evenodd;fill:#FFFFFF;}
</style>
<g>
	<g>
		<g>
			<path class="st0" d="M266.1,158.7c0-1-1.3-3-2-3c0.7,0,2.1-2,2.1-3c0,1,1.3,3,2,3C267.5,155.7,266.1,157.7,266.1,158.7z"/>
			<path class="st0" d="M202.1,166.1c0-1-1.3-3-2-3c0.7,0,2.1-2,2.1-3c0,1,1.3,3,2,3C203.5,163.1,202.1,165.1,202.1,166.1z"/>
			<path class="st0" d="M218.5,129.8c0-1-1.3-3-2-3c0.7,0,2.1-2,2.1-3c0,1,1.3,3,2,3C219.9,126.8,218.5,128.8,218.5,129.8z"/>
		</g>
		<g>
			<g>
				<polygon class="st0" points="254.5,189.5 254.5,189.4 254.5,189.4 				"/>
				<path class="st0" d="M255.9,184.5c0.4-1.7,0.8-3.9-0.4-5.4c0-0.1,0.1-0.2,0.1-0.3c0.7-1.7,0.1-3.5-0.9-4.9
					c-0.5-0.7-1-1.4-1.6-2.1c0.3-2.2-0.2-4.4-1-6.6c-0.4-1.2-0.6-2.5-1.1-3.7c-0.5-1.1-1.1-2.1-1.7-3.1c0.1-0.4,0.1-0.8,0.2-1.2
					c0.3-1.6,0.6-3.3,0.9-4.9c0.4-1.6,0.8-3.2,1.2-4.9c0.4-2.1,0.7-4.3,0.8-6.5c0.6-9.5-4.8-4.2-5.9,1.2c-0.5,1.9-0.8,3.8-1,5.7
					c-0.1,1.4-0.2,2.8-0.5,4.2c-0.7-1-1.5-1.9-2.3-2.8c-1.2-1.5-2.5-2.9-3.7-4.4c-1.3-1.7-2.7-3.3-4.7-4.1c-1.1-0.4-2.4-0.9-3.1,0.4
					c-0.4,0.6-0.5,1.4-0.4,2.2c0,1,0.4,1.9,0.9,2.7c0.6,1.1,1.6,1.9,2.5,2.9c1.4,1.3,2.5,2.9,3.9,4.3c2.2,2.1,3.3,3.9,4,6.9
					c0.1,0.5,0.2,1,0.3,1.6c-0.2-0.2-0.5-0.3-0.7-0.5c-1.1-0.8-2.4-1.3-3.6-1.6c-3.3-1.1-6.6-2.2-9.8-3.4c-0.3-0.1-0.6-0.2-0.9-0.4
					c-0.6-1-1.2-1.9-2.1-2.6c-0.8-0.4-1.6-0.9-2.5-0.7c-0.7,0.2-1.3,0.4-1.7,1c-0.9,0.1-1.9,0.5-2.3,1.4c-0.2,0.7,0.3,1.5,0.6,2.1
					c0.2,0.4,0.5,0.7,0.8,0.9c0,0,0,0,0,0c0.2,1,0.5,2,0.7,3c1,3.4,2.3,6.7,2.8,10.2c0,0.1,0,0.3,0,0.4c-1,0.1-2,0.5-2.7,1.4
					c-0.2,0.2-0.3,0.5-0.3,0.7c0,0.3-0.1,0.7,0,1c0.2,0.6,0.8,1.1,1.3,1.4c0.6,0.3,1.3,0.6,1.9,0.8c-0.1,1.7,0,3.3,0.1,5
					c0,1.1-0.1,2.2,0,3.3c0.1,1.1,0.3,2.2,0.6,3.3c0.4,1.3,0.8,2.7,1.2,4c0.3,1,0.7,2,0.9,3.1c0.8,4.1,0.6,8.5-0.9,12.4
					c-0.8,1.9-1.9,3.5-3,5.3c-1.3,2.1-2.3,4.2-3.7,6.2c-0.7,1-1.4,2.1-2.1,3.1c-0.9,1.4-1.6,2.8-2.5,4.1c-0.6,1-1.4,2-1.8,3.1
					c-0.1,0.3-0.1,0.6-0.1,0.9c0.2-0.2,0.4-0.5,0.5-0.7c0.6-1.4,1.5-2.6,2.3-3.9c1.4-2.5,3-4.8,4.6-7.1c1.3-2,2.4-4.2,3.7-6.3
					c0.8-1.4,1.8-2.7,2.4-4.2c1.8-4.6,2-9.7,0.7-14.5c-0.4-1.4-0.9-2.8-1.3-4.3c-0.7-2.1-1.2-4.3-1-6.6c0.1-1.9-0.1-3.7-0.1-5.6
					c0-0.2,0-0.5,0-0.7c1.1,0.3,2.3,0.6,3.4,0.9c3.5,0.9,6.9,1.9,10.2,3.3c2,0.9,4,1.8,5.8,3.2c0.1,0,0.1,0.1,0.2,0.1
					c-0.2,0.2-0.3,0.4-0.5,0.6c-3.9,4.4-5.6,10.3-6.8,15.9c-0.1,0.6-0.1,1.2-0.1,1.8c0.4-0.7,0.6-1.6,0.8-2.4
					c1-4.7,2.4-9.5,5.3-13.5c0.5-0.8,1.2-1.4,1.8-2.1c1,0.8,1.9,1.7,2.8,2.6c0.2,0.1,0.4,0.3,0.6,0.4c-0.2-0.6-0.5-1-1-1.4
					c-1.3-1.3-2.7-2.5-4.3-3.5c-2.7-1.6-5.7-2.8-8.7-3.8c-2.1-0.7-4.1-1.3-6.2-1.8c-1.9-0.5-3.7-0.9-5.5-1.7
					c-0.6-0.4-1.3-0.9-1.1-1.7c0-0.3,0.1-0.6,0.3-0.8c0.2-0.2,0.5-0.5,0.7-0.7c0.3-0.2,0.7-0.3,1-0.4c1.3-0.3,2.6-0.1,4,0
					c1.7,0.2,3.5,0.4,5.2,0.6c6.6,0.8,13.5,1.7,19.5,4.7c3.7,1.8,4.5,2.4,3.7,6.7c-0.4,1.9-0.9,3.7-1.6,5.5c-0.8,1.9-2,3.6-3,5.4
					c-0.6,1.2-1.2,2.4-1.8,3.5c-1.2,2-2.5,3.8-3.5,5.9c-1.2,2.3-2.2,4.8-3.4,7.1c-1,2-2.2,3.9-3.2,6c-1.4,2.7-2.5,5.5-3.8,8.2
					c-1.2,2.3-2.5,4.6-3.6,6.9c0.5-1.2-0.2,0.4-1.8,5.3c-0.4,1.4-1,2.8-1.1,4.3c0.8-1.4,1.1-3,1.7-4.6c0.5-1.5,1-3,1.6-4.5
					c1.1-2.5,2.6-4.9,3.8-7.4c1-2,1.9-4.1,2.8-6.2c1.3-2.7,2.8-5.4,4.2-8c1-2,1.9-4,2.8-6c1.2-2.5,2.9-4.8,4.3-7.2
					c0.7-1.3,1.4-2.8,2.1-4.1c0.9-1.6,1.9-3.2,2.6-4.9C255.1,187.8,255.5,186.2,255.9,184.5z M246,147.1c0.3-2.4,0.8-4.8,1.6-7.1
					c0.5-1,1.1-2.1,1.8-3c0.4-0.4,1-1,1.6-0.8c1.5,1.2,0.6,6.1,0.5,7.9c-0.4,3.6-1.6,7.1-2.2,10.6c-0.2,1-0.4,2-0.5,3
					c-1-1.8-2.2-3.4-3.5-5.1C245.7,150.8,245.7,148.9,246,147.1z M242.5,160c-0.8-3.9-2.1-5.3-4.7-8c-0.8-0.9-1.5-1.8-2.3-2.7
					c-0.9-1-2-1.9-2.9-3c-0.7-1-1.4-2.2-1.3-3.5c-0.1-0.5,0.1-0.9,0.3-1.3c0.2-0.3,0.3-0.6,0.6-0.8c0.7-0.2,1.5,0.2,2.2,0.5
					c2.2,1,3.6,3,5,4.8c1.7,2,3.4,3.9,5,5.9c1.5,1.9,2.9,3.8,4.1,5.9c0.7,1.3,1.6,2.5,2.2,3.8c0.6,1.6,0.9,3.3,1.5,4.9
					c0.4,1.5,0.8,3.1,0.6,4.7c-0.5-0.5-0.9-1-1.4-1.5c-0.9-1-1.8-1.9-2.7-2.8c-1.8-1.8-3.7-3.6-5.8-5
					C242.7,161.3,242.6,160.7,242.5,160z M221.5,153.3c0.4-0.3,1-0.5,1.5-0.5c0.7,0.1,1.3,0.4,1.9,0.8c0.5,0.5,1,1,1.4,1.6
					c0,0,0,0.1,0.1,0.1c-0.6-0.3-1.3-0.6-1.9-0.9c-0.8-0.4-1.6-0.8-2.4-0.9C221.9,153.4,221.7,153.4,221.5,153.3
					C221.5,153.4,221.5,153.4,221.5,153.3z M224.1,171.4c-0.1-0.9-0.3-1.9-0.5-2.8c-0.5-1.8-1-3.6-1.6-5.4c-0.5-1.3-0.9-2.7-1.2-4.1
					c-0.1-0.2-0.1-0.5-0.2-0.7c0.8,0.6,1.6,1.2,2.4,1.7c1.5,1,3.2,1.6,4.8,2.2c0.2,0.1,0.3,0.1,0.5,0.2c0.1,1.3,0.2,2.6,0.3,3.9
					c0.2,1.8,0.5,3.8,1.3,5.4c-0.8-0.1-1.6-0.2-2.3-0.3C226.6,171.6,225.3,171.4,224.1,171.4z M230.7,172c-0.1-0.3-0.3-0.5-0.4-0.8
					c-0.4-1-0.7-2-0.8-3c-0.2-1.4-0.4-2.9-0.5-4.3c0-0.4,0-0.7-0.1-1.1c2.7,1.2,5.7,2,8.1,3.8c0.8,0.6,1.5,1.3,2.2,2.1
					c0,0-0.1,0.1-0.1,0.1c-0.7,1.2-1.4,2.3-2.4,3.3c-0.2,0.2-0.4,0.4-0.7,0.6c-0.9-0.1-1.8-0.2-2.6-0.4
					C232.5,172.2,231.6,172.1,230.7,172z M239.6,169.1c1.4,1.6,2.6,3.3,3.9,4.9c-2.2-0.5-4.5-0.9-6.7-1.2c1.1-1,2-2.3,2.8-3.6
					C239.5,169.1,239.5,169.1,239.6,169.1z M250.7,176.3c-2.1-0.9-4.2-1.6-6.4-2.2c-0.4-0.4-0.8-0.9-1.1-1.4c-0.7-0.8-1.3-1.8-2-2.6
					c-0.8-1-1.6-1.9-2.5-2.8c-1.2-1.2-2.7-2.2-4.3-2.9c-1.2-0.5-2.4-1-3.6-1.4c-0.9-0.4-1.8-0.8-2.8-1.2c-0.8-0.3-1.6-0.5-2.3-0.8
					c-1-0.4-1.9-0.9-2.8-1.5c-0.8-0.5-1.5-1-2.2-1.6c-0.4-0.4-0.9-0.7-1.2-1.3c-0.2-0.5-0.6-1-0.6-1.5c0.2-0.8,1.1-1.1,1.9-1.2
					c1.4-0.2,2.7,0.6,4,1.2c1.5,0.8,3.1,1.4,4.7,2c2.5,0.9,4.9,1.7,7.4,2.6c1,0.4,2.1,0.6,3,1.1c3.2,1.7,5.8,4.1,8.4,6.7
					c1.9,1.8,3.6,3.6,5.2,5.6c1.5,2,2.3,3.6,1.5,5.6C253.8,177.7,252.2,177.1,250.7,176.3z"/>
			</g>
			<g>
				<path class="st0" d="M226.4,173.7c-0.5,0.1-1.5,0-2.1-0.1c-2.2-0.2-3.2-0.4-5.1-1c-0.6-0.2-1.1-0.4-1.3-0.7
					c-0.1-0.3-0.3-0.6,0.2-0.7c1.6-0.3,3.4-0.3,5.1-0.1c0.8,0.1,1.7,0.2,2.5,0.4c0.6,0.1,1.4,0.2,1.9,0.5
					C228.3,172.4,227.5,173.5,226.4,173.7z"/>
			</g>
			<g>
				<path class="st0" d="M235.4,143.9c-0.4-0.3-1.2-1-1.5-1.4c-1.5-1.6-2.2-2.4-3.2-4.1c-0.3-0.5-0.6-1.1-0.5-1.4
					c0.1-0.3,0.2-0.7,0.7-0.4c1.5,0.8,2.8,1.9,4,3.1c0.6,0.6,1.1,1.2,1.7,1.9c0.4,0.5,0.9,1.1,1.1,1.7
					C237.7,144,236.4,144.4,235.4,143.9z"/>
			</g>
			<g>
				<path class="st0" d="M250.7,140.4c-0.1-0.5,0-1.4,0.1-2c0.2-2,0.4-3,1-4.9c0.2-0.5,0.4-1.1,0.6-1.2c0.3-0.1,0.6-0.3,0.6,0.2
					c0.2,1.6,0.2,3.2,0.1,4.8c-0.1,0.8-0.2,1.6-0.4,2.4c-0.1,0.6-0.2,1.4-0.5,1.8C251.8,142.2,250.8,141.5,250.7,140.4z"/>
			</g>
			<g>
				<path class="st0" d="M223,152.7c0.6-0.1,1.2,0.2,1.7,0.6c0,0,0,0,0,0c0.2,0.1,0.4,0.2,0.6,0.3c0,0,0,0,0,0
					c-0.6-1.4-1.5-3.7-2.4-3.6c-2,0.1-2.3,1.5-2.1,3.5C221.5,153.1,222.2,152.7,223,152.7z"/>
			</g>
			<g>
				<path class="st0" d="M223.7,156.2c-0.5-0.1-1.5-0.4-2-0.6c-2-0.8-3-1.2-4.7-2.3c-0.5-0.3-1-0.7-1-1c0-0.3-0.1-0.7,0.4-0.6
					c1.7,0.1,3.3,0.6,5,1.1c0.8,0.3,1.6,0.6,2.3,1c0.5,0.3,1.3,0.6,1.7,1C225.9,155.4,224.9,156.3,223.7,156.2z"/>
			</g>
		</g>
	</g>
</g>
<g>
	<path class="st0" d="M166,290.4c-0.1,0-0.2,0.1-0.2,0.1c-0.2,0.2-0.4,0.5-0.6,0.7c-0.6,0.7-1.3,1.3-2,1.9c-0.4,0.3-0.8,0.6-1.2,0.9
		c-0.4,0.2-0.8,0.4-1.3,0.5c-0.3,0.1-0.5,0.1-0.8,0.1c-0.5-0.1-1-0.3-1.2-0.8c-0.2-0.3-0.3-0.6-0.3-0.9c-0.1-0.7,0-1.5,0.1-2.2
		c0.1-0.4,0.2-0.8,0.2-1.3c0,0,0-0.1,0-0.1c0,0,0-0.1-0.1-0.1c0,0-0.1,0-0.1,0c-0.2,0.1-0.3,0.3-0.4,0.4c-0.7,0.9-1.6,1.7-2.4,2.4
		c-0.5,0.4-1.1,0.9-1.7,1.2c-0.4,0.3-0.9,0.5-1.4,0.7c-0.7,0.3-1.3,0.5-2,0.6c-0.2,0-0.5,0-0.7,0c-0.2,0-0.3-0.1-0.5-0.1
		c-0.7-0.2-1.1-0.7-1.4-1.3c-0.3-0.8-0.3-1.7-0.2-2.6c0-0.3,0.1-0.5,0.1-0.8c0-0.1,0-0.2-0.1-0.1c0,0-0.1,0-0.1,0
		c-0.2,0.2-0.4,0.4-0.6,0.6c-1,1.1-2.1,2-3.3,2.8c-0.4,0.3-0.8,0.5-1.2,0.7c-0.7,0.4-1.5,0.6-2.3,0.7c-0.3,0-0.5,0.1-0.8,0.1
		c-1.4,0.1-2.4-0.5-3.2-1.6c-0.4-0.5-0.6-1.1-0.8-1.7c-0.3-1.1-0.3-2.2-0.1-3.4c0.3-1.8,0.9-3.4,1.8-5c0.9-1.7,2.2-3.1,3.7-4.4
		c0.9-0.7,1.9-1.3,3-1.6c1-0.4,2-0.5,3.1-0.4c0.5,0,0.9,0.2,1.4,0.3c0.2,0.1,0.4,0.2,0.6,0.3c0.7,0.5,1,1.5,0.8,2.2
		c-0.1,0.5-0.3,0.9-0.5,1.3c-0.3,0.4-0.6,0.8-0.9,1.2c-0.6,0.7-1.3,1.4-2.1,2c-0.7,0.6-1.5,1.1-2.3,1.6c-1.3,0.8-2.6,1.6-4,2.3
		c-0.5,0.2-0.9,0.5-1.4,0.7c-0.1,0.1-0.2,0.1-0.3,0.2c-0.1,0.1-0.2,0.2-0.2,0.4c0,0.4,0,0.9,0.1,1.3c0.1,0.3,0.2,0.5,0.3,0.8
		c0.3,0.4,0.6,0.7,1,1c0.6,0.4,1.3,0.5,2,0.4c0.5-0.1,1-0.3,1.4-0.5c0.5-0.3,1-0.6,1.5-0.9c0.8-0.6,1.6-1.3,2.3-2
		c0.8-0.9,1.6-1.8,2.3-2.8c0.2-0.3,0.4-0.6,0.6-0.9c1.1-2,2.4-3.8,4.1-5.4c0.7-0.7,1.5-1.3,2.3-1.9c0.8-0.5,1.6-1,2.5-1.3
		c0.8-0.2,1.5-0.3,2.3-0.3c0.2,0,0.4,0.1,0.6,0.1c0.4,0.1,0.8,0.2,1.2,0.5c0.2,0.1,0.4,0.3,0.5,0.5c0.1,0.1,0.3,0.1,0.4,0
		c0.2-0.2,0.4-0.4,0.6-0.6c0.2-0.2,0.4-0.3,0.7-0.4c0.2-0.1,0.5-0.1,0.7,0c0.3,0.1,0.6,0.3,0.7,0.5c0.2,0.3,0.3,0.5,0.4,0.9
		c0,0.2,0.1,0.4,0.1,0.6c0.1,0.5,0,0.9-0.1,1.4c0,0,0,0.1-0.1,0.1c-0.1,0-0.1,0.1-0.2,0.1c-0.1,0-0.2,0-0.2-0.1
		c-0.1-0.2-0.1-0.4-0.2-0.6c0-0.1-0.2-0.2-0.3-0.1c-0.1,0.1-0.2,0.1-0.3,0.2c-0.4,0.4-0.8,0.8-1,1.3c-0.2,0.4-0.4,0.8-0.6,1.2
		c-0.9,1.9-1.5,3.9-2,6c-0.1,0.5-0.2,0.9-0.3,1.4c-0.2,0.5-0.2,1.1-0.3,1.6c0,0.3,0,0.5,0.1,0.8c0.1,0.3,0.4,0.4,0.6,0.4
		c0.2,0,0.4,0,0.6-0.1c0.4-0.2,0.7-0.3,1-0.6c0.2-0.2,0.5-0.4,0.7-0.6c1.1-1,2-2.1,2.9-3.2c0.1-0.2,0.2-0.3,0.3-0.5
		c0.7-1.7,1.6-3.3,2.3-5c0.3-0.6,0.6-1.2,0.9-1.8c0.2-0.4,0.4-0.8,0.6-1.2c0-0.1,0.1-0.2,0.1-0.3c0.1-0.2-0.1-0.4-0.3-0.4
		c-0.2,0.1-0.4,0.1-0.7,0.2c-0.1,0-0.2,0-0.2-0.1c-0.1,0-0.1-0.1-0.1-0.2c0-0.1,0.1-0.2,0.1-0.2c0.7-0.6,1.4-1.1,2.2-1.5
		c0.2-0.1,0.4-0.1,0.6-0.1c0.3,0,0.5,0.1,0.8,0.3c0.1,0.1,0.2,0.2,0.2,0.3c0.1,0.3,0.2,0.6,0.2,0.9c-0.1,0.7-0.2,1.3-0.5,1.9
		c-0.3,0.8-0.6,1.6-1,2.4c-0.7,1.4-1.4,2.9-2,4.4c-0.3,0.8-0.7,1.6-0.9,2.4c-0.1,0.3-0.2,0.7-0.3,1c-0.1,0.5-0.2,1.1-0.1,1.6
		c0,0.2,0.1,0.4,0.3,0.5c0.1,0.1,0.3,0.2,0.4,0.1c0.2-0.1,0.4-0.1,0.5-0.2c0.3-0.2,0.6-0.4,0.8-0.6c0.8-0.6,1.5-1.4,2.2-2.1
		c1.6-1.7,3.2-3.6,4.6-5.5c0.1-0.2,0.2-0.3,0.4-0.5c0.2-0.2,0.3-0.5,0.4-0.7c0.2-0.5,0.4-1.1,0.7-1.6c0.3-0.9,0.7-1.8,1.2-2.7
		c0.2-0.5,0.5-0.9,0.8-1.3c0.1-0.2,0.3-0.4,0.5-0.5c0.3-0.3,0.7-0.4,1.2-0.4c0.3,0,0.5,0.1,0.7,0.3c0.2,0.2,0.4,0.4,0.5,0.7
		c0.3,0.7,0.4,1.4,0.3,2.2c0,0.2-0.1,0.4-0.3,0.5c0,0-0.2,0-0.2,0c-0.1,0-0.1-0.1-0.2-0.2c-0.1-0.1-0.1-0.3-0.2-0.4
		c-0.1-0.1-0.2-0.1-0.3,0c-0.1,0-0.1,0.1-0.2,0.1c-0.4,0.3-0.7,0.8-0.9,1.2c-0.3,0.4-0.5,0.9-0.7,1.4c-0.6,1.3-1,2.6-1.4,4
		c-0.3,0.9-0.5,1.8-0.7,2.7c-0.2,0.5-0.2,1.1-0.4,1.6c-0.1,0.3-0.1,0.6,0,0.9c0,0.2,0.1,0.4,0.2,0.6c0.1,0.2,0.2,0.2,0.4,0.2
		c0.3,0,0.5,0,0.8-0.1c0.4-0.2,0.8-0.4,1.1-0.7c0.1-0.1,0.1-0.1,0.2-0.2c1.7-1.7,3.3-3.5,4.8-5.5c0.1-0.2,0.3-0.4,0.4-0.6
		c0.3-0.4,0.5-0.8,0.6-1.3c0.3-0.9,0.6-1.7,0.8-2.6c0.6-1.8,1.3-3.5,2.1-5.2c1.2-2.7,2.4-5.4,3.7-8.1c0.1-0.2,0.3-0.5,0.3-0.8
		c0-0.1,0-0.2-0.1-0.2c-0.1,0-0.2,0-0.2,0c-0.6,0-1.2,0-1.8,0.1c-0.4,0-0.8,0.1-1.2,0.1c-0.5,0-1,0.1-1.5,0.2c-0.2,0-0.3,0-0.5,0.1
		c-0.5,0-1.1,0.1-1.6,0.2c-0.7,0.1-1.3,0.2-2,0.3c-1.3,0.2-2.6,0.4-3.9,0.7c-2,0.4-3.9,0.8-5.9,1.2c-2.1,0.5-4.1,1-6.1,1.5
		c-0.2,0.1-0.4,0.1-0.6,0.1c-0.1,0-0.2,0-0.2,0c-0.1,0-0.2-0.1-0.2-0.2c0-0.1,0.1-0.2,0.1-0.2c1.2-0.5,2.3-0.9,3.5-1.2
		c2.6-0.8,5.3-1.5,7.9-2.1c1.7-0.4,3.4-0.7,5.1-1c1.1-0.2,2.2-0.4,3.4-0.6c0.7-0.1,1.5-0.2,2.2-0.3c0.9-0.1,1.8-0.3,2.7-0.4
		c0.4-0.1,0.9-0.1,1.3-0.1c0.2,0,0.3-0.1,0.5-0.1c0.1,0,0.1-0.1,0.2-0.1c0.1-0.1,0.1-0.2,0.2-0.3c0.2-0.4,0.4-0.8,0.6-1.2
		c1.3-2.6,2.6-5.2,4-7.7c1.4-2.6,2.9-5.1,4.6-7.5c1.3-1.9,2.7-3.8,4.2-5.6c1.2-1.4,2.5-2.7,3.8-4c0.3-0.3,0.6-0.6,1-0.8
		c0.6-0.3,1.1-0.5,1.8-0.3c0.4,0.1,0.7,0.3,0.9,0.5c0,0,0.1,0.1,0.1,0.1c0.5,0.6,0.8,1.9,0.3,2.7c0,0-0.1,0.1-0.1,0.1
		c-0.1,0.1-0.3,0-0.3,0c-0.1-0.2-0.1-0.4-0.2-0.5c0-0.1-0.2-0.2-0.3-0.1c-0.1,0-0.2,0.1-0.3,0.1c-0.5,0.3-1,0.7-1.5,1.1
		c-1.1,0.9-2.1,1.9-3,2.9c-1.2,1.4-2.4,2.8-3.4,4.3c-0.6,0.9-1.2,1.7-1.8,2.6c-1.4,2.1-2.6,4.3-3.8,6.5c-1.1,2-2.2,4.1-3.2,6.1
		c-0.1,0.2-0.2,0.5-0.3,0.7c0,0.1,0,0.2,0.1,0.3c0.2,0.1,0.4,0,0.6,0c1.1,0,2.1-0.1,3.2-0.1c2.5-0.1,5.1,0,7.6,0
		c0.6,0,1.3,0.1,1.9,0.1c0.4,0,0.7,0,1.1,0c0.1,0,0.2-0.1,0.3-0.2c0.1-0.2,0.2-0.4,0.4-0.6c0.9-1.7,1.7-3.3,2.6-5
		c1.7-3.1,3.5-6.1,5.4-9.1c0.9-1.4,1.9-2.8,2.9-4.1c1.2-1.6,2.6-3.1,4-4.5c0.6-0.6,1.3-1.2,2-1.7c0.3-0.2,0.6-0.4,1-0.6
		c0.3-0.2,0.6-0.3,1-0.4c0.3-0.1,0.7-0.1,1,0c0.3,0.1,0.5,0.2,0.7,0.4c0.2,0.2,0.3,0.5,0.4,0.8c0.1,0.4,0.1,0.9,0.1,1.3
		c-0.1,1.2-0.2,2.4-0.4,3.6c-0.5,2.6-1.3,5.1-2.4,7.5c-0.8,1.9-1.8,3.8-2.9,5.7c-1.2,2.1-2.6,4.2-4,6.2c-0.2,0.3-0.4,0.6-0.6,0.9
		c-0.1,0.1,0,0.4,0.1,0.4c0.2,0,0.4,0,0.6,0c1.9,0.1,3.8,0,5.8-0.1c0.4,0,0.8-0.1,1.2-0.1c0.3,0,0.5-0.1,0.8-0.1
		c0.9,0,1.7-0.2,2.6-0.3c1-0.2,1.9-0.4,2.9-0.7c1.6-0.5,3.1-1.1,4.5-1.9c0.2-0.1,0.4-0.3,0.5-0.5c0.2-0.3,0.4-0.7,0.5-1
		c1.9-3.6,3.9-7.1,6.1-10.6c1.2-1.9,2.4-3.7,3.8-5.5c1.1-1.5,2.3-2.8,3.7-4.1c0.5-0.5,1-0.9,1.5-1.3c0.4-0.3,0.8-0.6,1.2-0.9
		c0.4-0.2,0.8-0.4,1.2-0.5c0.3-0.1,0.5-0.1,0.8-0.1c0.5,0,0.9,0.3,1.2,0.7c0.1,0.2,0.3,0.5,0.3,0.8c0.1,0.3,0.1,0.7,0.1,1.1
		c0,0.8-0.1,1.6-0.2,2.3c-0.4,2.9-1.2,5.6-2.3,8.2c-0.7,1.8-1.6,3.5-2.5,5.2c-1.3,2.4-2.8,4.7-4.3,6.8c-2.5,3.4-5.1,6.6-7.9,9.6
		c-0.6,0.7-1.2,1.3-1.9,2c-1.5,1.5-2.9,2.9-4.4,4.4c-1.3,1.2-2.5,2.5-3.8,3.7c-0.2,0.2-0.3,0.4-0.4,0.6c-0.2,0.7-0.5,1.4-0.6,2.2
		c-0.1,0.5-0.2,1.1-0.3,1.6c-0.1,0.5-0.2,1.1-0.2,1.6c0,0.3,0,0.6,0,0.9c0,0.9,0.4,1.7,0.8,2.4c0.1,0.2,0.3,0.4,0.5,0.5
		c0.1,0.1,0.2,0.1,0.3,0.2c0.4,0.1,0.8,0.2,1.2,0.1c0.9-0.1,1.7-0.4,2.5-0.9c0.4-0.2,0.7-0.5,1.1-0.7c0.9-0.7,1.7-1.5,2.4-2.4
		c1.2-1.4,2.3-2.9,3.4-4.5c0.2-0.3,0.4-0.6,0.6-0.9c0-0.1,0.1-0.1,0.2-0.2c0.1-0.1,0.2-0.1,0.2,0c0.1,0,0.1,0.1,0.2,0.2
		c0.1,0.2,0.1,0.5,0,0.7c0,0.1-0.1,0.2-0.1,0.3c-1.1,1.8-2.3,3.6-3.7,5.1c-1.1,1.3-2.4,2.5-3.8,3.4c-0.7,0.5-1.5,0.9-2.4,1.2
		c-0.5,0.2-1.1,0.3-1.6,0.3c-0.5,0.1-1.1,0-1.6-0.1c-0.8-0.2-1.4-0.6-1.8-1.2c-0.6-0.7-0.9-1.6-1-2.5c-0.1-0.5-0.1-1.1,0-1.6
		c0-0.4,0.1-0.8,0.1-1.2c0,0,0-0.1-0.1-0.1c0,0-0.1,0-0.1,0c-0.1,0.1-0.2,0.2-0.3,0.3c-1.1,1.4-2.3,2.7-3.6,4
		c-0.4,0.4-0.8,0.8-1.3,1.2c-0.3,0.3-0.7,0.5-1,0.8c-0.2,0.2-0.5,0.3-0.7,0.4c-0.4,0.2-0.7,0.3-1.1,0.2c-0.1,0-0.2,0-0.4,0
		c-0.4,0-0.7-0.2-1-0.6c-0.1-0.2-0.2-0.4-0.3-0.6c-0.2-0.6-0.2-1.2-0.2-1.7c0.1-0.9,0.3-1.9,0.5-2.8c0.2-0.6,0.3-1.3,0.5-1.9
		c0,0,0-0.1,0-0.1c0,0-0.1,0-0.2,0c-0.2,0.1-0.3,0.3-0.5,0.5c-0.9,1.2-1.9,2.4-3,3.5c-0.6,0.7-1.3,1.3-2,1.9c-0.5,0.4-0.9,0.7-1.4,1
		c-0.4,0.2-0.7,0.4-1.1,0.6c-0.5,0.2-1.1,0.3-1.6,0.2c-0.5-0.1-0.9-0.4-1.2-0.8c-0.2-0.3-0.3-0.6-0.3-1c0-0.4,0-0.8,0.1-1.2
		c0.1-0.4,0.1-0.8,0.2-1.3c0,0,0-0.1,0-0.1c-0.1-0.1-0.1,0-0.2,0c-0.2,0.2-0.3,0.3-0.5,0.5c-1,1.1-2.2,2.1-3.4,3.1
		c-1.1,0.9-2.4,1.7-3.7,2.3c-0.2,0.1-0.4,0.1-0.5,0.2c-0.1,0.1-0.2,0.2-0.2,0.3c-0.1,0.2-0.2,0.4-0.2,0.5c-1.3,3.8-2.9,7.5-4.7,11.1
		c-0.5,1.1-1.1,2.1-1.6,3.1c-0.1,0.2-0.2,0.3-0.3,0.5c-0.1,0.1-0.2,0.1-0.3,0.2c-0.4,0-0.9,0-1.3-0.1c-0.1,0-0.2-0.2-0.2-0.4
		c0-0.2,0.1-0.4,0.2-0.5c0.6-1.2,1.2-2.4,1.8-3.6c1.3-2.6,2.3-5.4,3-8.2c0.1-0.2,0.1-0.5,0.1-0.7c0-0.1-0.1-0.1-0.2-0.1
		c0,0-0.1,0-0.1,0c-0.2,0.1-0.4,0.2-0.7,0.3c-1.6,0.7-3.2,1.5-4.7,2.4c-0.9,0.5-1.7,1.1-2.6,1.6c-1.4,0.9-2.8,1.9-4.1,3
		c-0.8,0.7-1.5,1.3-2.3,2c-1,0.9-1.9,1.9-2.8,2.9c-0.2,0.3-0.5,0.5-0.7,0.8c-0.1,0.1-0.2,0.1-0.3,0.1c-0.1,0-0.2,0-0.2,0
		c-0.6-0.1-1.2-0.2-1.7-0.3c0,0-0.1,0-0.1-0.1c-0.1-0.1-0.2-0.3-0.1-0.4c0.1-0.2,0.2-0.3,0.4-0.5c1.3-1.4,2.6-2.7,4.1-3.9
		c2.7-2.2,5.5-4.1,8.6-5.7c2.2-1.2,4.5-2.3,6.7-3.4c0.4-0.2,0.8-0.4,1.2-0.6c0.1-0.1,0.3-0.2,0.3-0.3c0.2-0.8,0.4-1.5,0.6-2.3
		c0.5-1.7,1-3.3,1.6-4.9c0.1-0.1,0.1-0.3,0.1-0.4c0-0.1,0-0.2,0-0.3c0,0,0.1,0,0.1,0c0,0,0-0.1,0-0.1c-0.1,0-0.1,0,0,0.1
		c-0.1,0-0.2,0-0.2,0c-0.1,0.1-0.2,0.2-0.3,0.3c-0.6,0.7-1.3,1.4-1.9,2.1c-0.7,0.8-1.4,1.5-2.2,2.1c-0.4,0.3-0.8,0.6-1.2,0.8
		c-0.3,0.2-0.7,0.3-1.1,0.5c-0.3,0.1-0.5,0.1-0.8,0.1c-0.6,0-1-0.3-1.2-0.8c-0.2-0.4-0.3-0.8-0.3-1.3c0-0.5,0-0.9,0.1-1.4
		c0.1-0.5,0.2-1.1,0.2-1.6c0,0,0-0.1,0-0.1c0,0-0.1,0-0.1,0c-0.1,0-0.2,0.1-0.3,0.2c-0.5,0.6-1,1.2-1.6,1.7
		c-0.7,0.8-1.5,1.5-2.3,2.2c-0.3,0.3-0.7,0.5-1,0.8c-0.3,0.2-0.5,0.3-0.8,0.4c-0.3,0.1-0.5,0.1-0.8,0.1c-0.5,0-0.8-0.3-1-0.7
		c-0.2-0.3-0.3-0.7-0.3-1.1c0-0.6,0-1.2,0.1-1.8c0.2-0.8,0.3-1.7,0.5-2.5c0-0.2,0.1-0.4,0.1-0.6c0-0.1,0-0.1-0.1-0.2
		c0,0-0.1,0-0.1,0c-0.2,0.2-0.3,0.3-0.5,0.5c-0.8,1-1.8,2-2.7,3c-0.6,0.7-1.3,1.3-2,1.9c-0.3,0.3-0.7,0.5-1,0.8
		c-0.3,0.2-0.6,0.4-0.9,0.5c-0.2,0.1-0.4,0.1-0.7,0.1c-0.2,0-0.4,0-0.6,0c-0.4,0-0.7-0.2-0.9-0.5c-0.2-0.2-0.3-0.5-0.4-0.7
		c-0.1-0.5-0.2-1.1-0.1-1.6c0.1-1.3,0.4-2.5,0.7-3.7c0.1-0.4,0.2-0.8,0.3-1.1c0,0,0-0.1,0-0.1c0,0-0.1,0-0.2,0
		c-0.2,0.1-0.3,0.3-0.4,0.4c-0.7,0.9-1.5,1.8-2.3,2.7c-0.6,0.6-1.1,1.2-1.7,1.8c-0.7,0.7-1.6,1.4-2.5,2c-0.5,0.3-0.9,0.6-1.5,0.7
		c-0.5,0.2-1,0.2-1.5,0.1c-0.6-0.1-1-0.5-1.2-1c-0.2-0.4-0.2-0.8-0.2-1.3c0-0.2,0.1-0.5,0.1-0.7c0-0.3,0.1-0.6,0.1-0.9
		C166.1,290.6,166,290.5,166,290.4C166,290.4,166,290.5,166,290.4L166,290.4z M226.2,267.6c-1,0-2,0-2.9-0.1c-0.2,0-0.4,0-0.6,0
		c-0.2,0-0.3,0.1-0.4,0.2c-0.1,0.1-0.3,0.3-0.4,0.4c-0.4,0.5-0.8,1-1.3,1.5c-1.8,2.2-3.7,4.3-5.7,6.3c-0.8,0.8-1.6,1.5-2.3,2.3
		c-0.9,0.9-1.9,1.8-2.8,2.7c-0.3,0.3-0.7,0.6-1,1c-0.5,0.6-1,1.1-1.6,1.6c-0.2,0.2-0.3,0.4-0.4,0.6c-0.7,1.6-1.2,3.1-1.6,4.8
		c-0.4,1.8-0.8,3.6-1.4,5.3c0,0.1-0.1,0.3-0.1,0.5c0,0.1,0,0.2,0.1,0.2c0,0,0.1,0,0.1,0c0.2-0.1,0.4-0.1,0.5-0.2
		c1.6-0.9,3-1.9,4.4-3.2c1.4-1.3,2.6-2.8,3.8-4.3c0.1-0.2,0.2-0.3,0.3-0.5c0.5-1.1,1.1-2.2,1.6-3.3c0.5-1.1,1-2.2,1.6-3.3
		c0.2-0.3,0.3-0.7,0.5-1.1c0-0.1,0-0.1,0.1-0.2c0-0.1-0.1-0.3-0.2-0.3c-0.2,0-0.4,0.1-0.6,0.1c-0.1,0-0.2,0-0.3,0
		c-0.1,0-0.2-0.2-0.2-0.3c0-0.1,0.1-0.1,0.1-0.2c0.5-0.5,1.1-0.9,1.7-1.2c0.2-0.1,0.4-0.2,0.6-0.3c0.2-0.1,0.4-0.1,0.6-0.1
		c0.4,0,0.8,0.3,0.9,0.8c0,0.2,0.1,0.5,0,0.7c0,0.6-0.2,1.2-0.4,1.8c-0.3,0.8-0.6,1.5-1,2.3c-0.4,0.8-0.8,1.5-1.1,2.3
		c-0.6,1.3-1.2,2.6-1.6,3.9c-0.2,0.5-0.4,1-0.5,1.6c-0.2,0.6-0.2,1.2-0.1,1.9c0,0.2,0.1,0.4,0.3,0.5c0.1,0.1,0.2,0.1,0.3,0.1
		c0.2,0,0.4-0.1,0.5-0.2c0.3-0.2,0.6-0.4,0.9-0.7c0.8-0.7,1.6-1.5,2.4-2.3c1-1.1,2-2.3,3-3.5c0.6-0.7,1.1-1.4,1.7-2.1
		c0.2-0.3,0.4-0.6,0.6-1c0.2-0.5,0.4-1.1,0.6-1.6c0.3-0.9,0.7-1.7,1.2-2.6c0.2-0.4,0.5-0.8,0.7-1.2c0.1-0.2,0.3-0.4,0.5-0.5
		c0.3-0.3,0.6-0.4,1.1-0.4c0.4,0,0.8,0.1,1,0.5c0.2,0.2,0.3,0.4,0.4,0.6c0.2,0.6,0.4,1.3,0.3,2c0,0.2-0.1,0.5-0.2,0.7
		c-0.1,0.1-0.2,0.1-0.3,0c-0.2-0.1-0.2-0.3-0.3-0.5c-0.1-0.1-0.3-0.2-0.4-0.1c-0.1,0-0.1,0.1-0.2,0.1c-0.4,0.3-0.6,0.7-0.9,1.1
		c-0.3,0.4-0.5,0.9-0.7,1.4c-0.6,1.3-1,2.6-1.4,4c-0.3,1.1-0.6,2.2-0.9,3.3c-0.1,0.3-0.1,0.7-0.2,1c-0.1,0.4-0.1,0.8,0,1.2
		c0,0.1,0.1,0.2,0.1,0.3c0.1,0.2,0.3,0.3,0.5,0.3c0.2,0,0.5,0,0.7-0.1c0.5-0.2,0.9-0.5,1.3-0.8c1-1,2-2,2.9-3.1
		c0.9-1,1.7-2.1,2.5-3.1c0.2-0.2,0.3-0.5,0.4-0.7c0.2-0.6,0.4-1.1,0.6-1.7c0.5-1.3,1-2.5,1.6-3.8c2-4.4,4-8.8,6.2-13.1
		c0.1-0.2,0.2-0.4,0.3-0.6c0,0,0-0.1,0-0.1c0-0.1-0.1-0.1-0.2-0.1c-0.1,0-0.2,0.1-0.3,0.1c-2.2,1.1-4.6,1.7-7.1,2.1
		c-0.9,0.1-1.9,0.3-2.8,0.3c-0.3,0-0.5,0-0.8,0.1c-0.7,0.1-1.4,0.1-2.1,0.1C227.4,267.7,226.8,267.6,226.2,267.6z M204.8,266.7
		c-2.1,0-4.2,0-6.2,0c-0.4,0-0.7,0-1.1,0c-0.1,0-0.2,0.1-0.3,0.2c-0.3,0.3-0.5,0.7-0.7,1.1c-1.1,2.3-2.3,4.6-3.3,6.9
		c-0.7,1.6-1.4,3.2-2.1,4.9c-0.3,0.8-0.7,1.6-0.9,2.4c-0.4,1.2-0.8,2.4-1.2,3.6c-0.3,1.1-0.6,2.3-0.9,3.4c-0.1,0.6-0.2,1.2-0.2,1.7
		c0,0.3,0,0.6,0.1,0.9c0.1,0.2,0.3,0.3,0.4,0.3c0.2,0,0.5,0,0.7-0.1c0.3-0.1,0.5-0.3,0.8-0.5c0.3-0.3,0.6-0.6,0.9-0.9
		c0.5-0.6,1.1-1.1,1.6-1.7c0.6-0.6,1.1-1.3,1.6-2c0.2-0.3,0.4-0.6,0.5-0.9c0.3-0.9,0.6-1.7,0.9-2.5c0.5-1.5,1.2-3,1.9-4.4
		c0.3-0.6,0.6-1.1,1-1.6c0.2-0.3,0.4-0.5,0.6-0.7c0.3-0.3,0.6-0.4,1-0.5c0.1,0,0.2,0,0.2,0c0.3,0,0.6,0.2,0.8,0.4
		c0.2,0.2,0.3,0.4,0.4,0.6c0.3,0.7,0.3,1.4,0.2,2.2c0,0.1,0,0.1-0.1,0.2c0,0.1-0.1,0.2-0.3,0.2c-0.1,0-0.2-0.1-0.3-0.2
		c-0.1-0.1-0.1-0.2-0.1-0.3c-0.1-0.2-0.3-0.2-0.5-0.1c-0.1,0.1-0.2,0.2-0.3,0.3c-0.4,0.4-0.7,0.9-0.9,1.4c-0.2,0.3-0.3,0.7-0.5,1.1
		c-0.7,1.6-1.2,3.2-1.7,4.9c-0.4,1.3-0.4,1.6-0.6,2.9c-0.1,0.4-0.1,0.8,0,1.2c0,0.2,0.1,0.3,0.2,0.4c0.2,0.2,0.4,0.2,0.6,0.2
		c0.4-0.1,0.8-0.3,1.2-0.5c0.4-0.2,0.8-0.5,1.1-0.9c0.4-0.4,0.9-0.8,1.3-1.2c1.1-1.2,2.2-2.4,3.1-3.8c0.2-0.3,0.3-0.5,0.4-0.8
		c0.4-1.1,0.8-2.2,1.3-3.3c0.5-1.2,1-2.3,1.5-3.4c1.4-3.2,2.9-6.3,4.4-9.5c0.1-0.3,0.3-0.6,0.4-0.8c0.2-0.4,0.1-0.5-0.3-0.5
		c-0.4,0-0.7,0-1.1,0C208.6,266.7,206.6,266.7,204.8,266.7z M247.2,257.6c-0.2,0.5-0.5,1-0.7,1.5c-0.1,0.2-0.2,0.4-0.3,0.6
		c0,0,0,0.1,0,0.1c0,0,0.1,0,0.1,0c0,0,0.1,0,0.1,0c0.2-0.1,0.4-0.3,0.6-0.4c0.1,0,0.1-0.1,0.2-0.1c0.1,0,0.1,0,0.2,0
		c0.1,0,0.1,0.2,0.1,0.3c-0.1,0.1-0.1,0.2-0.2,0.3c-0.6,0.8-1.3,1.5-2,2.1c-0.4,0.3-0.6,0.7-0.8,1.1c-0.4,0.9-0.8,1.8-1.2,2.7
		c-1.4,3.1-2.8,6.2-4.2,9.3c-0.6,1.3-1.2,2.6-1.8,4c-0.1,0.2-0.2,0.4-0.2,0.7c0,0,0,0.1,0.1,0.1c0,0,0.1,0,0.1,0
		c0.2-0.1,0.3-0.2,0.5-0.4c2.4-2.3,4.7-4.7,7-7.1c1.7-1.9,3.4-3.8,4.9-5.9c2.7-3.5,5-7.3,6.8-11.3c1.7-3.7,3-7.7,3.7-11.7
		c0.1-0.7,0.2-1.5,0.1-2.2c0-0.1,0-0.2-0.1-0.3c-0.1-0.4-0.4-0.6-0.8-0.4c-0.1,0-0.2,0.1-0.3,0.1c-0.3,0.2-0.5,0.3-0.8,0.5
		c-0.3,0.3-0.6,0.5-0.9,0.8c-0.9,0.9-1.7,1.8-2.5,2.8c-1,1.3-1.9,2.7-2.9,4c-0.9,1.4-1.8,2.8-2.5,4.2
		C248.7,254.5,248,256,247.2,257.6z M219.2,265.4c0.2,0,0.7,0.1,1.1,0.1c0.4,0,0.9,0,1.3,0.1c0.3,0,0.4-0.1,0.6-0.3
		c0.1-0.1,0.2-0.3,0.3-0.4c1.9-2.8,3.6-5.8,5.1-8.8c1.7-3.7,2.9-7.5,3.7-11.5c0.1-0.8,0.2-1.6,0.1-2.3c0-0.1,0-0.2,0-0.3
		c0-0.2-0.1-0.3-0.2-0.4c-0.1-0.1-0.2-0.2-0.4-0.2c-0.2,0-0.4,0.1-0.5,0.2c-0.3,0.2-0.5,0.4-0.7,0.6c-0.4,0.4-0.8,0.8-1.2,1.1
		c-0.8,0.8-1.4,1.6-2.1,2.5c-1.2,1.6-2.3,3.2-3.5,4.9c-0.4,0.6-0.8,1.2-1.2,1.9c-0.7,1.2-1.3,2.3-1.9,3.5c-0.8,1.6-1.6,3.2-2.4,4.9
		c-0.6,1.2-1.2,2.4-1.7,3.6c-0.1,0.1-0.1,0.3-0.2,0.4c0,0.1,0.1,0.2,0.2,0.3c0.4,0.1,0.9,0.1,1.3,0.1
		C217.5,265.3,218.3,265.3,219.2,265.4z M150.3,290c0,0.2,0,0.3,0,0.4c0.1,0.6,0.3,1.1,0.7,1.4c0.3,0.3,0.7,0.4,1.1,0.4
		c0.2,0,0.5,0,0.7-0.1c0.5-0.1,0.9-0.3,1.3-0.5c0.5-0.3,1.1-0.7,1.5-1.1c1.2-1,2.2-2.2,3.1-3.5c0.3-0.4,0.5-0.9,0.8-1.3
		c0.7-1.3,1.2-2.6,1.8-4c0.3-0.6,0.4-1.3,0.5-1.9c0.1-0.4,0-0.9-0.1-1.3c-0.3-0.9-1.1-1.3-1.9-1.2c-0.6,0-1.2,0.2-1.7,0.5
		c-0.7,0.3-1.3,0.8-1.8,1.2c-1.5,1.2-2.6,2.7-3.5,4.3c-0.7,1.3-1.3,2.6-1.7,4c-0.2,0.6-0.3,1.2-0.4,1.8
		C150.3,289.5,150.3,289.8,150.3,290z M215.3,267c-1-0.1-0.9,0-1.2,0.6c-0.1,0.2-0.2,0.5-0.3,0.7c-1.7,3.7-3.4,7.5-5.1,11.2
		c-0.2,0.4-0.3,0.7-0.5,1.1c0,0.1,0,0.2,0.1,0.2c0,0,0.1,0,0.1,0c0.1-0.1,0.3-0.2,0.4-0.3c2.6-2.5,5.1-5,7.5-7.7
		c1.3-1.5,2.6-3,3.7-4.5c0.1-0.2,0.3-0.4,0.4-0.6c0.1-0.1,0-0.3-0.1-0.3c-0.6-0.1-1.2-0.2-1.9-0.2c-0.9-0.1-1.8-0.1-2.7-0.2
		C215.5,267,215.3,267,215.3,267z M138.5,287.3c1.6-0.7,3.1-1.5,4.6-2.6c1-0.7,1.9-1.6,2.7-2.6c0.3-0.4,0.6-0.7,0.8-1.2
		c0.3-0.5,0.5-1.1,0.6-1.6c0.1-0.4,0-0.7-0.1-1c-0.2-0.6-0.7-0.8-1.3-0.9c-0.4,0-0.7,0.1-1,0.2c-1.3,0.5-2.5,1.3-3.4,2.4
		c-0.9,1.1-1.7,2.3-2.2,3.6c-0.4,1.1-0.8,2.3-1,3.5c0,0.1,0,0.2,0.1,0.2C138.3,287.4,138.4,287.3,138.5,287.3z"/>
	<path class="st0" d="M105.8,229.1c-0.8,0-1.6,0-2.5,0c-0.7,0-1.5,0-2.2,0.2c-0.6,0.1-1.2,0.1-1.7,0.3c-1.2,0.2-2.3,0.5-3.4,0.8
		c-2.1,0.6-4.1,1.3-6.1,2.1c-1.7,0.7-3.3,1.6-4.9,2.6c-2.2,1.5-4.2,3.3-5.9,5.4c-0.5,0.6-0.9,1.3-1.3,2c-0.4,0.7-0.6,1.4-0.8,2.1
		c-0.2,0.8-0.2,1.6-0.1,2.4c0.1,0.5,0.3,1,0.7,1.4c0.3,0.3,0.6,0.6,1,0.8c0.7,0.4,1.4,0.6,2.2,0.7c0.9,0.1,1.9,0.1,2.8,0
		c0.6-0.1,1.2-0.2,1.7-0.3c0.8-0.2,1.5-0.5,2.2-0.7c0.9-0.4,1.9-0.8,2.8-1.3c0.6-0.3,1.2-0.8,1.6-1.3c0.2-0.2,0.3-0.5,0.3-0.7
		c0-0.1,0-0.2,0-0.2c-0.1-0.4-0.3-0.5-0.6-0.6c-0.1,0-0.3-0.1-0.5-0.1c-0.2,0-0.4,0-0.6-0.1c-0.1,0-0.2-0.2-0.2-0.3
		c0-0.1,0.1-0.1,0.1-0.2c0,0,0.1-0.1,0.1-0.1c0.8-0.3,1.6-0.6,2.5-0.6c0.4,0,0.9,0,1.3,0.1c0.7,0.2,1.1,0.6,1.2,1.3
		c0,0.1,0,0.2,0,0.2c0,0.3-0.1,0.6-0.3,0.9c-0.1,0.2-0.3,0.4-0.5,0.6c-0.5,0.5-1,0.9-1.5,1.3c-1.3,0.9-2.7,1.7-4.1,2.3
		c-1.4,0.6-2.8,1-4.3,1.3c-0.7,0.1-1.5,0.2-2.2,0.3c-0.5,0-1.1,0-1.6-0.1c-0.6-0.1-1.2-0.1-1.7-0.3c-1.1-0.3-1.9-0.8-2.6-1.7
		c-0.2-0.3-0.5-0.6-0.6-1c-0.4-0.8-0.5-1.6-0.5-2.5c0.1-1,0.3-1.9,0.7-2.8c0.3-0.6,0.6-1.1,0.9-1.6c1.8-2.8,4.1-5.1,6.8-6.9
		c2.4-1.6,4.9-2.9,7.6-3.9c2-0.8,4.1-1.5,6.2-2c1.4-0.3,2.7-0.6,4.1-0.8c0.9-0.2,1.8-0.2,2.7-0.4c0.3,0,0.6-0.1,0.9-0.1
		c1.6-0.1,3.2-0.1,4.8,0c0.4,0,0.9,0.1,1.3,0.1c0.2,0,0.3,0,0.5,0.1c1.1,0.1,2.1,0.3,3.1,0.4c0.2,0,0.3,0,0.4-0.1
		c0.1-0.1,0.2-0.2,0.4-0.3c1-1,2.1-1.9,3.1-2.9c0.3-0.3,0.6-0.6,1-0.9c0.9-0.8,1.9-1.4,2.9-1.9c0.4-0.2,0.9-0.4,1.3-0.5
		c0.4-0.1,0.8-0.1,1.2-0.1c0.2,0,0.4,0.1,0.6,0.3c0.1,0.1,0.1,0.2,0.2,0.3c0.1,0.2,0.1,0.5,0.1,0.7c0,0.6-0.1,1.1-0.3,1.6
		c-0.4,1.2-1.1,2.2-2.1,3.1c-0.1,0.1-0.1,0.1-0.2,0c-0.1,0-0.2-0.2-0.1-0.3c0,0,0-0.1,0-0.1c0.2-0.4,0.3-0.8,0.2-1.2
		c0-0.3-0.1-0.5-0.3-0.8c-0.2-0.3-0.4-0.5-0.7-0.5c-0.1,0-0.2,0-0.2,0c-0.2,0.1-0.5,0.1-0.7,0.2c-0.9,0.4-1.7,0.8-2.4,1.4
		c-0.8,0.7-1.6,1.4-2.4,2.1c0,0,0,0.1-0.1,0.1c-0.1,0.1,0,0.3,0.1,0.3c0.8,0.3,1.6,0.5,2.3,0.8c0.7,0.2,1.3,0.4,2,0.7
		c2.3,0.9,4.4,2.3,6.2,4c0.3,0.2,0.5,0.5,0.7,0.8c0.8,0.9,1.4,2,1.7,3.2c0.1,0.5,0.2,1,0.2,1.5c0.1,1.2-0.2,2.3-0.7,3.3
		c-0.6,1.2-1.4,2.4-2.4,3.3c-0.5,0.5-1.1,1-1.7,1.5c-0.7,0.6-1.4,1.1-2.2,1.5c-0.8,0.5-1.6,0.9-2.3,1.3c-0.1,0-0.1,0.1-0.1,0.2
		c0,0,0,0.1,0.1,0.1c0.1,0,0.1,0.1,0.2,0.1c0.1,0,0.1,0,0.2,0.1c1.7,0.4,3.4,0.9,5,1.6c2.7,1.2,4.8,3,6.4,5.5
		c0.9,1.4,1.5,2.8,1.9,4.4c0.2,0.8,0.2,1.5,0.4,2.3c0.1,1.5,0.1,3.1-0.1,4.6c0,0.3-0.1,0.7-0.1,1.1c0,0.1,0.1,0.2,0.2,0.3
		c0.3,0.1,0.5,0.2,0.8,0.2c2.1,0.4,4.3,0.9,6.4,1.4c1,0.3,2,0.5,2.9,0.8c0.1,0,0.3,0.1,0.4,0.2c0,0,0.1,0.1,0.1,0.1
		c0.1,0.1,0,0.3-0.1,0.3c-0.1,0-0.2,0-0.3,0c-1.1-0.3-2.1-0.5-3.2-0.7c-1.4-0.3-2.9-0.5-4.3-0.7c-0.7-0.1-1.5-0.2-2.2-0.4
		c-0.3,0-0.5-0.1-0.8-0.1c-0.1,0-0.3,0.1-0.3,0.2c-0.1,0.3-0.2,0.6-0.2,0.9c-0.7,2.7-1.8,5.3-3.2,7.8c-1,1.9-2.3,3.7-3.6,5.4
		c-1.3,1.7-2.7,3.3-4.2,4.8c-2.1,2.1-4.2,4-6.5,5.7c-1,0.8-2.1,1.5-3.2,2.2c-2.1,1.3-4.2,2.6-6.4,3.7c-2.3,1.2-4.7,2.1-7.3,2.6
		c-0.9,0.2-1.8,0.4-2.8,0.5c-1,0.1-2,0.1-2.9,0c-1.1-0.1-2.1-0.5-3-1c-1.4-0.8-2.4-2.1-3-3.6c-0.3-0.8-0.5-1.6-0.6-2.5
		c-0.1-0.8,0-1.6,0-2.3c0.1-0.6,0.2-1.2,0.4-1.7c0.4-1.4,0.9-2.8,1.5-4.1c2.4-5.7,6.3-10.1,11.5-13.4c2.7-1.7,5.6-3,8.6-3.9
		c2.1-0.6,4.2-1.2,6.4-1.6c1.2-0.3,2.5-0.5,3.7-0.7c0.2,0,0.5-0.1,0.7-0.1c0.3,0,0.6-0.1,0.9-0.1c0.3,0,0.7-0.1,1-0.1
		c0.5,0,0.9-0.1,1.4-0.1c0.2,0,0.3,0,0.5,0c1.6-0.1,3.2-0.2,4.8-0.1c0.6,0,1.2,0.1,1.8,0.1c0.1,0,0.2,0,0.4,0c0.1,0,0.3-0.1,0.3-0.3
		c0.1-0.8,0.3-1.5,0.3-2.3c0-0.5,0-1,0-1.5c0-2.6-0.7-5-2.1-7.3c-0.7-1.1-1.5-2.1-2.6-2.9c-0.4-0.3-0.8-0.6-1.2-0.8
		c-1.7-1.1-3.6-2-5.5-2.7c-0.6-0.2-1.3-0.4-1.9-0.5c-0.4-0.1-0.7,0-1,0.1c-0.2,0.1-0.4,0.2-0.7,0.3c-3,1.2-6,2.4-9,3.4
		c-1.7,0.6-3.5,1.1-5.3,1.6c-1,0.3-2,0.5-3.1,0.7c-0.2,0-0.3,0.1-0.4,0.3c-0.2,0.3-0.3,0.6-0.5,0.9c-1.6,3-3.1,6-4.7,8.9
		c-1.3,2.4-2.5,4.8-3.8,7.2c-3,5.6-6.4,10.9-10.3,16c-1.1,1.5-2.3,3-3.5,4.4c-1.8,2.1-3.7,4.1-5.8,6c-2.9,2.6-6.2,4.5-9.9,5.8
		c-1,0.3-2,0.6-3.1,0.8c-0.6,0.1-1.2,0.2-1.9,0.2c-1.8,0.1-3.5-0.2-5.2-0.8c-1.1-0.4-2.1-1-3-1.8c-1.4-1.3-2.4-2.9-3-4.7
		c-0.3-0.9-0.5-1.8-0.6-2.7c-0.1-0.8-0.2-1.6-0.2-2.3c0-1.5,0.1-3,0.5-4.4c1.1-4.7,3.1-9,6.1-12.9c2.2-2.9,4.9-5.5,7.8-7.7
		c1.1-0.8,2.3-1.6,3.4-2.2c3.3-1.9,6.8-3.5,10.5-4.7c1.9-0.6,3.7-1.1,5.6-1.6c0.9-0.2,1.8-0.4,2.7-0.5c1.5-0.2,3-0.3,4.5-0.1
		c0.4,0,0.8,0.2,1.1,0.3c0.2,0.1,0.3,0.2,0.5,0.3c0.1,0.1,0.2,0.2,0.2,0.4c0.1,0.5,0.1,0.9-0.2,1.4c-0.2,0.4-0.6,0.8-0.9,1.1
		c-0.8,0.7-1.8,1.3-2.8,1.7c-0.1,0.1-0.3,0.1-0.5,0.1c-0.1,0-0.2,0-0.3-0.2c0-0.1,0-0.2,0-0.2c0.2-0.2,0.3-0.3,0.5-0.5
		c0.3-0.4,0.6-0.8,0.6-1.2c0,0,0-0.1,0-0.1c0.1-0.4-0.1-0.7-0.5-0.9c-0.4-0.2-0.7-0.3-1.1-0.3c-1.1,0-2.3,0-3.4,0.1
		c-0.7,0.1-1.3,0.2-2,0.3c-2.1,0.4-4.2,0.9-6.3,1.6c-0.9,0.3-1.8,0.6-2.6,1c-2.9,1.3-5.6,2.9-8.2,4.8c-1.4,1.1-2.8,2.2-4,3.4
		c-3.3,3.3-5.6,7.1-7.1,11.5c-0.5,1.6-0.9,3.2-1.1,4.8c-0.1,1.1-0.3,2.3-0.2,3.4c0,1.8,0.3,3.5,0.9,5.2c0.5,1.5,1.3,2.7,2.5,3.8
		c1.3,1.1,2.8,1.9,4.5,2.3c1.4,0.3,2.8,0.4,4.2,0.2c2.4-0.3,4.6-1.1,6.6-2.3c1.2-0.7,2.2-1.4,3.3-2.3c1.3-1.1,2.5-2.3,3.7-3.6
		c3.2-3.7,6-7.6,8.5-11.8c1.9-3.3,3.8-6.7,5.5-10.1c2.3-4.5,4.6-8.9,6.8-13.4c0.7-1.3,1.3-2.6,2-3.9c0-0.1,0-0.1,0-0.2
		c0-0.1-0.1-0.1-0.1-0.2c0,0-0.1,0-0.1,0c-0.6,0.1-1.2,0.2-1.9,0.3c-0.5,0.1-0.9,0.1-1.4,0.1c-0.6,0-1.1-0.1-1.6-0.3
		c-0.7-0.2-1-0.9-0.9-1.6c0.1-0.4,0.2-0.7,0.5-0.9c0.2-0.3,0.5-0.5,0.8-0.7c0.7-0.5,1.4-0.9,2.1-1.2c1.3-0.6,2.6-1.2,4-1.6
		c0.5-0.2,1-0.3,1.5-0.5c0.2-0.1,0.4-0.2,0.7-0.2c0.1,0,0.2-0.1,0.3-0.2c0.2-0.3,0.4-0.6,0.5-0.9c1.8-3.3,3.8-6.5,5.7-9.7
		c2.2-3.6,4.7-6.9,7.5-10.1c0.2-0.2,0.4-0.4,0.5-0.6c0-0.1,0-0.2-0.1-0.2c-0.3-0.1-0.6-0.2-0.9-0.3c-0.7-0.2-2.2-0.4-2.9-0.5
		c-0.6,0-1.2-0.1-1.8-0.1C107.4,229.1,106.6,229.1,105.8,229.1z M89.6,297.8c0,0.8,0,1.6,0.2,2.3c0.1,0.5,0.3,1,0.5,1.4
		c0.5,1,1.3,1.8,2.4,2.2c0.6,0.2,1.2,0.4,1.8,0.5c1.1,0.2,2.2,0.2,3.3,0c0.2,0,0.4-0.1,0.6-0.1c0.6,0,1.2-0.2,1.8-0.3
		c1.8-0.5,3.6-1.1,5.3-1.9c2.5-1.2,4.8-2.6,7-4.2c2.3-1.7,4.5-3.5,6.5-5.5c1.2-1.1,2.3-2.3,3.3-3.5c1.9-2.3,3.6-4.8,5-7.5
		c1.6-2.9,2.9-6,4-9.1c0-0.1,0.1-0.2,0.1-0.3c0-0.1-0.1-0.2-0.2-0.3c-0.3-0.1-0.5-0.1-0.8-0.1c-1.6-0.1-3.2-0.1-4.8,0
		c-1.4,0.1-2.7,0.1-4.1,0.3c-0.8,0-1.6,0.2-2.4,0.3c-1.3,0.3-2.6,0.5-3.9,0.9c-4.1,1.1-8,2.7-11.6,4.9c-4.6,2.7-8.2,6.4-11,10.9
		c-1.2,1.9-2.1,4-2.6,6.3C89.8,295.8,89.6,296.8,89.6,297.8z M113.1,250c0.7,0,1.7,0,2.7,0c1,0,0.8,0.1,1.8-0.4
		c0.3-0.1,0.5-0.2,0.8-0.3c1.6-0.8,3.2-1.7,4.6-2.8c1-0.8,1.9-1.6,2.7-2.6c0.6-0.7,1.1-1.5,1.5-2.4c0.2-0.5,0.3-1.1,0.4-1.7
		c0-0.1,0-0.2,0-0.4c-0.1-0.5-0.2-1.1-0.4-1.6c-0.2-0.4-0.4-0.8-0.7-1.2c-0.4-0.6-1-1.1-1.5-1.6c-0.9-0.8-1.9-1.5-3-2.1
		c-0.8-0.5-1.6-0.9-2.5-1.3c-1.2-0.6-2.5-1-3.9-1.3c-0.2-0.1-0.4,0-0.5,0.1c-0.4,0.3-0.6,0.7-0.9,1.1c-2.2,3-4.3,6.1-6,9.4
		c-1.6,3-3.3,6-4.9,9c-0.1,0.2-0.2,0.4-0.3,0.6c0,0.1,0,0.1-0.1,0.2c0,0.1,0,0.2,0.1,0.2c0.7-0.1,1.4-0.2,2.1-0.3
		c0.9-0.1,1.9-0.3,2.8-0.3c0.2,0,0.5-0.1,0.7-0.1c0.4,0,0.9-0.1,1.3-0.1C110.9,250,111.9,250,113.1,250z M100.7,256.4
		C100.7,256.5,100.7,256.5,100.7,256.4c0.4-0.1,0.8-0.2,1.1-0.3c2.4-0.7,4.7-1.4,7-2.3c1.5-0.6,2.9-1.2,4.3-1.9
		c0.2-0.1,0.4-0.2,0.5-0.3c0,0,0-0.1,0-0.1c0,0,0-0.1-0.1-0.1c-0.1-0.1-0.2-0.1-0.3-0.1c-0.8,0-1.6,0-2.5,0c-0.6,0-1.3,0.1-1.9,0.1
		c-0.7,0-1.3,0.1-2,0.2c-0.8,0.1-1.6,0.2-2.4,0.3c-0.7,0.1-1.4,0.2-2.1,0.3c-0.1,0-0.2,0.1-0.3,0.2c0,0,0,0.1-0.1,0.1
		c-0.6,1.2-1.2,2.5-1.8,3.7c0,0.1,0,0.2,0,0.2c0,0.1,0.1,0.1,0.2,0.1C100.5,256.5,100.6,256.5,100.7,256.4z M92.5,257.7
		c0.8,0,1.6-0.1,2.3-0.3c0.4-0.1,0.8-0.2,1.3-0.2c0.1,0,0.2,0,0.2-0.1c0.1-0.1,0.2-0.1,0.3-0.2c0.1,0,0.1-0.1,0.1-0.2
		c0.6-1.1,1.2-2.2,1.7-3.3c0,0,0-0.1,0-0.1c0-0.1-0.1-0.1-0.1-0.1c-0.1,0-0.2,0-0.3,0.1c-1.1,0.3-2.2,0.7-3.2,1.1
		c-0.8,0.3-1.5,0.7-2.2,1.1c-0.4,0.3-0.8,0.6-1.2,0.9c-0.1,0.1-0.2,0.2-0.3,0.3c-0.1,0.1-0.1,0.1-0.1,0.2c-0.1,0.2,0,0.4,0.2,0.5
		C91.5,257.7,92,257.8,92.5,257.7z"/>
	<path class="st0" d="M310.6,284.2C310.6,284.3,310.7,284.3,310.6,284.2"/>
	<path class="st0" d="M310.7,284.1c0.1,0,0.2,0,0.2-0.1c0.2-0.3,0.3-0.6,0.5-0.9c1.5-2.9,3-5.8,4.5-8.7c3.1-5.8,6.5-11.5,10.1-17.1
		c2.1-3.2,4.3-6.4,6.7-9.5c1.6-2.1,3.3-4.2,5.1-6.2c3-3.5,6.4-6.6,10.1-9.3c2.8-2,5.7-3.7,8.9-5c1.9-0.8,3.9-1.5,5.9-1.9
		c1.3-0.3,2.6-0.5,3.9-0.6c0.4,0,0.7-0.1,1.1-0.1c0.9-0.1,1.7-0.1,2.6,0c0.2,0,0.3,0,0.5,0c1.8,0.1,3.6,0.6,5.4,1.1
		c1.8,0.6,3.5,1.4,5.1,2.4c2.2,1.4,4.1,3.3,5.6,5.4c0.3,0.4,0.6,0.9,0.8,1.3c0.2,0.3,0.3,0.6,0.4,1c0.1,0.3,0,0.5-0.1,0.8
		c-0.1,0.2-0.2,0.3-0.3,0.5c-0.2,0.2-0.4,0.3-0.6,0.3c-0.4,0.1-0.9,0.2-1.4,0.2c-0.5-0.1-1.1-0.2-1.6-0.5c-0.7-0.3-1.3-0.7-1.9-1.2
		c-0.1-0.1-0.1-0.1-0.1-0.2c0-0.1,0-0.2,0-0.2c0-0.1,0.1-0.1,0.2-0.1c0.1,0,0.2,0,0.2,0c0.4,0.2,0.9,0.2,1.4,0.2
		c0.3,0,0.6-0.1,0.9-0.3c0.3-0.2,0.4-0.5,0.5-0.8c0-0.1,0-0.2,0-0.3c-0.1-0.3-0.2-0.6-0.4-0.9c-0.5-0.8-1.1-1.6-1.8-2.3
		c-1.3-1.4-2.9-2.5-4.6-3.4c-1.7-0.8-3.4-1.4-5.2-1.8c-1.7-0.4-3.9-0.5-5.3-0.4c-0.2,0-0.3,0-0.5,0c-2.7,0.2-5.3,0.7-7.8,1.7
		c-1.9,0.8-3.7,1.7-5.4,2.8c-2.2,1.4-4.2,3-6.2,4.6c-0.8,0.6-1.5,1.3-2.2,1.9c-3,2.8-5.8,5.7-8.5,8.8c-4.4,5-8.3,10.4-12.1,15.9
		c-3.1,4.6-6,9.4-8.7,14.2c-2.1,3.7-4.2,7.5-6.1,11.4c-1,2-1.9,3.9-2.8,5.9c-0.8,1.7-1.6,3.5-2.6,5.2c-0.1,0.1-0.2,0.3-0.3,0.4
		c0,0.1-0.1,0.1-0.2,0.1c-0.2,0-0.5-0.1-0.6-0.2c-0.1-0.1-0.2-0.2-0.2-0.4c0.1-0.3,0.1-0.5,0.2-0.8c0.5-1.6,0.9-3.2,1.4-4.9
		c0.8-2.8,1.5-5.7,2.1-8.5c0.5-2.1,0.9-4.3,1.3-6.4c0.3-1.6,0.6-3.2,0.9-4.8c0.2-1,0.4-2.1,0.6-3.1c0.3-1.7,0.6-3.4,1-5.1
		c0.4-1.9,0.8-3.7,1.3-5.6c0.6-2.5,1.3-5,2.1-7.5c0.1-0.4,0.3-0.9,0.5-1.3c0.1-0.2,0.1-0.3,0-0.5c0.1,0,0.1,0,0.2-0.1
		c0-0.1,0-0.1-0.1-0.2c0,0,0,0-0.1,0.1c0,0.1,0,0.1,0,0.2c-0.1,0-0.2,0-0.2,0.1c-0.2,0.3-0.4,0.6-0.5,0.9c-1.6,2.8-3,5.6-4.4,8.4
		c-2.6,5.3-5.3,10.6-8,15.8c-1.7,3.2-3.4,6.4-5.3,9.6c-1.9,3.2-3.9,6.3-6.1,9.4c-0.9,1.3-1.9,2.6-3,3.8c-1.4,1.7-3,3.3-4.7,4.7
		c-1.2,1-2.4,1.9-3.8,2.6c-1,0.5-2,1-3.1,1.4c-1.2,0.4-2.4,0.7-3.7,0.7c-0.6,0-1.2,0-1.8,0c-1-0.1-1.9-0.3-2.9-0.6
		c-1-0.4-1.9-0.9-2.7-1.7c-1-1-1.8-2.1-2.3-3.3c-0.5-1-0.8-2.1-1-3.2c-0.2-1-0.3-2-0.4-3c0-0.4,0-0.8,0-1.2c0.1-0.9,0.1-1.9,0.3-2.8
		c0.3-2,0.8-3.9,1.5-5.8c0.5-1.6,1.2-3.1,2-4.6c1.5-2.8,3.2-5.4,5.2-7.8c2.2-2.6,4.7-4.8,7.6-6.6c2.6-1.6,5.4-2.8,8.4-3.5
		c1.2-0.3,2.4-0.4,3.6-0.6c0.1,0,0.2,0,0.2,0c1.7-0.1,3.4-0.2,5,0c0.8,0.1,1.6,0.2,2.4,0.5c0.5,0.2,0.9,0.4,1.3,0.8
		c0.2,0.2,0.3,0.3,0.4,0.6c0.2,0.5,0.2,1-0.1,1.5c-0.1,0.2-0.3,0.4-0.6,0.6c-0.4,0.3-0.8,0.6-1.3,0.7c-0.8,0.2-1.6,0.4-2.4,0.4
		c-0.1,0-0.2-0.1-0.2-0.2c0-0.1,0-0.2,0.1-0.2c0.3-0.1,0.5-0.2,0.7-0.4c0.4-0.3,0.6-0.6,0.6-1.1c0-0.4-0.1-0.7-0.4-0.9
		c-0.2-0.2-0.5-0.3-0.7-0.4c-0.5-0.2-1.1-0.4-1.7-0.4c-1.5-0.1-3.1-0.1-4.6,0.1c-1.3,0.1-2.6,0.4-3.8,0.7c-2.6,0.8-5.1,1.9-7.3,3.4
		c-1.3,0.8-2.5,1.8-3.6,2.9c-2.2,2.1-4.1,4.6-5.5,7.3c-1.5,2.8-2.7,5.8-3.5,9c-0.2,0.8-0.4,1.5-0.5,2.3c-0.2,1-0.4,2.1-0.5,3.1
		c-0.1,1.2-0.2,2.3-0.1,3.5c0,1.2,0.3,2.8,0.7,4c0.2,0.4,0.3,0.9,0.5,1.3c0.5,1.1,1.2,2,2.2,2.7c0.5,0.4,1,0.7,1.6,1
		c0.8,0.4,1.7,0.6,2.6,0.7c0.7,0,1.3,0,2,0c0.6-0.1,1.2-0.2,1.7-0.4c1.2-0.3,2.4-0.8,3.5-1.4c1.6-0.9,3.2-1.9,4.5-3.1
		c2.1-1.8,3.9-3.8,5.6-6c1.8-2.3,3.4-4.7,4.9-7.2c1.6-2.7,3.1-5.4,4.4-8.2c1.1-2.4,2.3-4.7,3.4-7.1c1.1-2.2,2.1-4.4,3.2-6.7
		c2.1-4.4,4.3-8.8,6.6-13.1c1.4-2.6,2.8-5.1,4.4-7.6c1.5-2.3,3.1-4.5,5-6.6c2.1-2.4,4.4-4.5,7-6.4c0.8-0.6,1.6-1.1,2.5-1.6
		c0.5-0.3,1.1-0.6,1.7-0.8c0.3-0.1,0.7-0.1,1-0.1c0.3,0,0.5,0.2,0.7,0.4c0.3,0.4,0.3,0.8,0.2,1.2c0,0.1-0.1,0.2-0.1,0.3
		c-0.4,0.6-1,1.1-1.6,1.5c-0.1,0-0.3-0.1-0.3-0.2c0-0.1,0-0.2,0-0.2c0-0.1,0.1-0.2,0.1-0.3c0-0.1,0.1-0.2,0.1-0.3
		c0-0.2-0.1-0.5-0.3-0.6c-0.1-0.1-0.3-0.1-0.5-0.1c-0.3,0.1-0.6,0.1-0.9,0.2c-0.5,0.2-1,0.5-1.5,0.8c-0.3,0.2-0.7,0.4-1,0.7
		c-1.2,0.9-2.3,1.9-3.3,3c-2.8,3-4.9,6.5-6.5,10.3c-0.9,2.4-1.7,4.8-2.2,7.3c-0.2,1.1-0.4,2.2-0.6,3.2c-0.1,0.8-0.2,1.5-0.4,2.3
		c-0.1,0.6-0.2,1.2-0.3,1.9c-0.1,0.8-0.2,1.6-0.3,2.4c-0.1,0.9-0.2,1.8-0.4,2.7c-0.1,0.7-0.2,1.5-0.3,2.2c-0.1,0.9-0.3,1.8-0.4,2.7
		c-0.2,1-0.4,2.1-0.5,3.1c-0.2,1.4-0.5,2.8-0.8,4.1c-0.4,1.8-0.8,3.7-1.3,5.5C310.8,283.5,310.7,283.8,310.7,284.1"/>
	<path class="st0" d="M330.7,289.4c-0.2-0.1-0.4,0-0.5,0.1c-0.2,0.2-0.4,0.4-0.5,0.6c-0.6,0.6-1.1,1.2-1.8,1.7
		c-0.6,0.5-1.2,1-1.9,1.4c-0.7,0.4-1.4,0.8-2.2,1.1c-0.4,0.1-0.9,0.2-1.4,0.3c-0.2,0-0.4,0-0.6,0c-0.2,0-0.3-0.1-0.5-0.1
		c-0.7-0.2-1.1-0.6-1.4-1.2c-0.2-0.4-0.3-0.8-0.3-1.3c-0.1-1,0.1-1.9,0.3-2.8c0.3-1.1,0.7-2.2,1.2-3.3c0.2-0.5,0.4-0.9,0.7-1.4
		c1.3-2.2,2.9-4.2,4.9-5.8c0.5-0.4,1-0.8,1.5-1.1c0.4-0.2,0.8-0.5,1.2-0.7c0.8-0.4,1.6-0.5,2.4-0.6c0.6,0,1.1,0,1.6,0.2
		c0.3,0.1,0.6,0.3,0.9,0.5c0.2,0.1,0.3,0.3,0.5,0.4c0,0,0.1,0,0.1,0c0.1,0,0.1-0.1,0.2-0.1c0.2-0.2,0.4-0.4,0.6-0.6
		c0.3-0.2,0.6-0.4,1-0.4c0,0,0.1,0,0.1,0c0.3,0,0.5,0.1,0.8,0.3c0.1,0.1,0.2,0.2,0.3,0.3c0.2,0.3,0.3,0.6,0.4,1
		c0.1,0.5,0.1,1.1,0,1.6c0,0.1-0.1,0.2-0.2,0.3c-0.1,0.1-0.1,0.1-0.2,0.1c-0.1,0-0.2-0.1-0.2-0.1c-0.1-0.2-0.1-0.4-0.2-0.6
		c0-0.1-0.1-0.1-0.2-0.1c-0.1,0-0.2,0.1-0.3,0.2c-0.4,0.4-0.8,0.8-1,1.3c-0.2,0.4-0.4,0.8-0.6,1.3c-0.8,1.9-1.5,3.9-2,5.9
		c-0.1,0.5-0.2,0.9-0.3,1.4c-0.1,0.5-0.2,0.9-0.3,1.4c0,0.2,0,0.4,0,0.6c0,0.1,0,0.2,0,0.2c0.1,0.5,0.4,0.8,1,0.7
		c0.1,0,0.2-0.1,0.3-0.1c0.4-0.2,0.8-0.4,1.2-0.7c0.2-0.2,0.5-0.4,0.7-0.6c1.1-1,2.1-2.1,3-3.3c0.1-0.2,0.2-0.3,0.3-0.5
		c0.3-1.1,0.8-2.2,1.1-3.3c0.5-1.5,1.1-2.9,1.8-4.3c0.3-0.6,0.6-1.3,1.1-1.8c0.1-0.2,0.3-0.4,0.4-0.5c0.2-0.3,0.5-0.4,0.9-0.6
		c0.5-0.2,1,0,1.3,0.3c0.2,0.2,0.3,0.4,0.4,0.6c0.2,0.6,0.4,1.3,0.3,2c0,0.2-0.1,0.5-0.2,0.6c-0.1,0.1-0.3,0.1-0.3,0
		c-0.2-0.1-0.2-0.3-0.3-0.5c-0.1-0.1-0.3-0.1-0.4,0c-0.1,0.1-0.2,0.1-0.3,0.2c-0.3,0.3-0.5,0.6-0.7,0.9c-0.2,0.3-0.3,0.5-0.5,0.8
		c-0.1,0.2-0.2,0.4-0.3,0.6c-0.9,2.1-1.6,4.2-2.1,6.4c-0.2,0.8-0.3,1.6-0.3,2.4c0,0.2,0,0.3,0,0.5c0,0.2,0.3,0.4,0.5,0.4
		c0.1,0,0.2,0,0.2,0c0.3-0.1,0.6-0.2,0.9-0.3c0.3-0.2,0.6-0.3,0.9-0.6c0.2-0.2,0.5-0.4,0.7-0.6c1.7-1.6,3.3-3.4,4.6-5.4
		c0.2-0.3,0.4-0.7,0.5-1c0.5-1.6,1.2-3.2,1.9-4.8c1.8-3.9,3.6-7.8,5.5-11.7c2.1-4.4,4.4-8.7,6.9-12.8c1.3-2.2,2.6-4.4,4-6.5
		c1-1.5,2.1-3,3.3-4.4c1-1.2,2.1-2.4,3.3-3.5c0.5-0.5,1.1-0.9,1.7-1.3c0.5-0.3,0.9-0.5,1.5-0.7c0.3-0.1,0.5-0.1,0.8-0.1
		c0.6,0.1,1,0.4,1.3,0.9c0.2,0.4,0.3,0.8,0.3,1.3c0,0.4,0,0.7,0,1.1c0,0.3-0.1,0.5-0.1,0.8c-0.1,1.6-0.5,3.2-0.9,4.7
		c-0.5,1.9-1.2,3.8-2.1,5.6c-0.7,1.5-1.4,3-2.2,4.4c-1.4,2.5-2.9,4.8-4.6,7.1c-2.1,2.8-4.2,5.4-6.5,8c-0.8,0.9-1.7,1.9-2.6,2.7
		c-1.4,1.4-2.8,2.8-4.3,4.2c-0.2,0.2-0.5,0.4-0.7,0.7c-1.1,1.1-2.2,2.2-3.3,3.2c-0.2,0.2-0.4,0.5-0.5,0.8c-0.2,0.7-0.4,1.3-0.6,2
		c-0.1,0.6-0.3,1.3-0.4,2c-0.1,0.4-0.1,0.8-0.1,1.2c0,0.6,0,1.2,0.2,1.9c0.2,0.6,0.4,1.1,0.7,1.6c0.3,0.4,0.6,0.7,1.1,0.8
		c0.3,0.1,0.5,0.1,0.8,0c1.1-0.1,2.1-0.6,3-1.2c0.4-0.2,0.7-0.5,1-0.8c0.7-0.6,1.3-1.2,1.8-1.8c0.9-1,1.7-2.1,2.5-3.2
		c0.8-1.2,1.6-2.5,2.4-3.8c0.2-0.4,0.4-0.7,0.7-1.1c0.1-0.2,0.1-0.4,0.1-0.6c-0.1-0.5-0.1-1-0.1-1.5c0-0.7,0.1-1.3,0.3-2
		c0.3-0.8,0.6-1.6,1.2-2.3c0.2-0.3,0.4-0.5,0.6-0.7c0.2-0.1,0.3-0.2,0.5-0.3c0.3-0.2,0.7,0,0.9,0.4c0.1,0.4,0.2,0.8,0.2,1.2
		c0,0.6-0.2,1.2-0.5,1.8c-0.1,0.2-0.2,0.4-0.3,0.6c-0.3,0.5-0.5,1.1-0.8,1.6c-0.2,0.4-0.3,0.9-0.2,1.4c0.1,0.5,0.3,1,0.5,1.4
		c0.3,0.6,0.6,1.3,0.9,1.9c0.2,0.4,0.4,0.8,0.6,1.3c0.4,0.9,0.8,1.8,1,2.7c0,0.2,0.3,0.3,0.5,0.2c0.1,0,0.1-0.1,0.2-0.1
		c0.6-0.3,1.1-0.7,1.6-1.2c0.5-0.5,1-1.1,1.4-1.7c0.2-0.2,0.3-0.5,0.5-0.7c0.1-0.1,0.2-0.2,0.3-0.2c0.2,0,0.5,0.2,0.5,0.4
		c0,0.1,0,0.2,0,0.2c-0.6,1.1-1.4,2.1-2.3,2.9c-0.5,0.4-1,0.8-1.6,1.1c-0.2,0.1-0.5,0.2-0.7,0.4c-0.1,0.1-0.3,0.2-0.3,0.3
		c-0.1,0.3-0.2,0.6-0.2,0.9c0,0.2-0.1,0.3-0.1,0.4c-0.5,1.4-1.4,2.4-2.6,3.2c-1,0.6-2,0.8-3.1,0.6c-0.4-0.1-0.7-0.2-1-0.4
		c-0.4-0.3-0.6-0.7-0.6-1.2c0.1-0.8,0.4-1.6,0.9-2.2c0.5-0.6,1.2-1.1,1.9-1.5c0.4-0.2,0.9-0.4,1.3-0.5c0.3-0.1,0.6-0.2,0.9-0.3
		c0,0,0.1-0.1,0.1-0.1c0-0.1,0.1-0.2,0.1-0.2c-0.1-0.5-0.2-1-0.3-1.5c-0.4-1.5-0.9-3-1.5-4.4c0-0.1-0.1-0.1-0.2-0.1
		c-0.1,0-0.2,0-0.2,0.1c-0.1,0.2-0.2,0.3-0.3,0.5c-0.4,0.6-0.7,1.2-1.1,1.8c-0.3,0.5-0.6,0.9-0.9,1.4c-0.2,0.2-0.3,0.4-0.5,0.7
		c-0.7,1.1-1.6,2.1-2.5,3.1c-1.1,1.2-2.3,2.3-3.6,3.2c-0.5,0.4-1.1,0.7-1.7,1c-1,0.4-1.9,0.6-3,0.6c-0.5,0-1-0.1-1.5-0.3
		c-0.6-0.2-1-0.6-1.3-1.1c-0.4-0.5-0.6-1.1-0.8-1.7c-0.3-0.9-0.3-1.8-0.1-2.7c0.1-0.3,0.1-0.7,0.1-1c0-0.1-0.1-0.1-0.1-0.1
		c0,0-0.1,0-0.1,0c-0.1,0.1-0.3,0.3-0.4,0.4c-1,1.2-2,2.3-3,3.4c-0.5,0.5-1,1.1-1.6,1.5c-0.4,0.3-0.7,0.6-1.1,0.8
		c-0.4,0.3-0.9,0.5-1.4,0.7c-0.3,0.1-0.6,0.1-0.9,0.1c-0.5,0-0.9-0.3-1.1-0.7c-0.2-0.3-0.3-0.7-0.3-1c0-0.8,0-1.6,0.1-2.3
		c0-0.2,0.1-0.4,0.1-0.6c0,0,0-0.1,0-0.1c-0.1,0-0.2,0-0.2,0c-0.2,0.2-0.4,0.5-0.6,0.7c-0.9,1-1.8,1.9-2.8,2.7
		c-0.4,0.3-0.7,0.6-1.1,0.8c-0.4,0.3-0.9,0.5-1.4,0.6c-0.2,0-0.3,0.1-0.5,0.1c-1,0.1-1.6-0.6-1.8-1.4c-0.1-0.3-0.1-0.7-0.1-1.1
		C330.2,291.3,330.3,290.4,330.7,289.4C330.6,289.4,330.6,289.4,330.7,289.4C330.6,289.3,330.5,289.3,330.7,289.4
		C330.6,289.4,330.6,289.4,330.7,289.4z M376.9,241.8c0-0.2,0-0.5-0.1-0.8c0-0.1,0-0.2-0.1-0.3c-0.1-0.2-0.3-0.4-0.5-0.3
		c-0.2,0-0.3,0.1-0.4,0.1c-0.1,0.1-0.3,0.2-0.4,0.3c-0.4,0.3-0.8,0.7-1.2,1.1c-0.8,0.8-1.5,1.7-2.2,2.6c-1.3,1.7-2.5,3.4-3.7,5.2
		c-0.5,0.7-0.9,1.4-1.3,2.1c-0.6,1.2-1.3,2.3-1.9,3.5c-0.7,1.4-1.3,2.7-2,4.1c-1.5,3-2.9,6-4.3,9c-0.8,1.8-1.6,3.6-2.5,5.5
		c-0.8,1.8-1.6,3.6-2.4,5.3c-0.1,0.2-0.2,0.4-0.2,0.6c0,0,0.1,0.1,0.1,0.1c0.1,0,0.2-0.1,0.3-0.2c2.5-2.4,5-4.9,7.3-7.5
		c1.2-1.3,2.3-2.6,3.4-3.9c2.2-2.8,4.3-5.7,6-8.8c1.2-2,2.2-4.1,3.1-6.3c1.2-2.9,2.1-5.8,2.7-8.9
		C376.8,243.6,376.9,242.8,376.9,241.8z M322.3,290c0,0.2,0,0.3,0,0.5c0,0.5,0.2,1,0.6,1.4c0.3,0.3,0.7,0.5,1.2,0.5
		c0.2,0,0.5,0,0.7-0.1c0.5-0.1,0.9-0.3,1.3-0.5c0.5-0.3,1-0.7,1.5-1.1c1.1-1,2.1-2.1,2.9-3.4c0.6-1,1.2-2,1.6-3.1
		c0.2-0.5,0.5-1.1,0.7-1.6c0.2-0.5,0.4-1.1,0.6-1.7c0.2-0.6,0.2-1.2,0.2-1.7c0-0.4-0.2-0.8-0.4-1.1c-0.2-0.3-0.5-0.5-0.9-0.6
		c-0.3-0.1-0.7-0.1-1-0.1c-0.6,0.1-1.2,0.3-1.8,0.6c-0.4,0.2-0.8,0.5-1.2,0.8c-1.4,1.1-2.5,2.3-3.4,3.8c-1,1.6-1.8,3.4-2.3,5.2
		C322.4,288.6,322.3,289.3,322.3,290z M365.7,292.3c0.1,0,0.2,0,0.3,0c0.2-0.1,0.5-0.1,0.7-0.2c0.3-0.1,0.6-0.4,0.8-0.7
		c0.2-0.4,0.3-0.9,0.4-1.3c0-0.1,0-0.2-0.1-0.2c-0.1,0-0.2-0.1-0.2-0.1c-0.7,0.2-1.3,0.6-1.7,1.1c-0.2,0.2-0.3,0.4-0.4,0.6
		c0,0.1-0.1,0.2-0.1,0.3c0,0.1,0.1,0.3,0.2,0.4C365.6,292.3,365.7,292.3,365.7,292.3z"/>
	<path class="st0" d="M174.8,327.8c0,0.3,0,0.6-0.1,0.9c0,0.7,0,1.5,0,2.2c0,0.4,0.1,0.8,0.2,1.2c0.1,0.4,0.4,0.7,0.8,0.7
		c0.4,0.1,0.8,0,1.2,0c0.5-0.1,1.1-0.3,1.6-0.5c0.5-0.2,1-0.5,1.5-0.7c2.6-1.6,4.9-3.5,6.7-5.9c0-0.1,0.1-0.1,0.1-0.2
		c0.7-0.9,0.6-0.9,1.9-0.7c0.1,0,0.1,0.1,0.2,0.1c0.1,0,0.1,0.2,0.1,0.3c-0.1,0.1-0.1,0.2-0.2,0.3c-1,1.2-2.1,2.4-3.3,3.5
		c-0.5,0.5-1,0.9-1.5,1.3c-1.2,1.1-2.5,2.1-3.8,3c-0.7,0.5-1.4,0.9-2.2,1.3c-0.8,0.4-1.6,0.7-2.4,0.9c-0.7,0.2-1.4,0.2-2.1,0.1
		c-1.1-0.2-1.9-0.9-2.3-2c-0.2-0.5-0.3-1-0.3-1.5c0-1.1,0-2.1,0.1-3.2c0.1-1,0.3-2,0.6-3c0-0.1,0.1-0.2,0.1-0.3
		c0.1-0.2,0.2-0.2,0.4-0.3c0,0,0.1,0,0.1,0c0.8,0,1.6,0.1,2.5,0.1c0,0,0.1,0,0.1,0c0.1,0,0.2,0.2,0.2,0.3c-0.1,0.4-0.1,0.9-0.2,1.3
		C174.8,327.4,174.8,327.5,174.8,327.8z"/>
	<path class="st0" d="M348.2,270.6c0,0.1,0,0.3-0.1,0.5c-0.1,0.4-0.2,0.7-0.5,0.9c-0.3,0.3-0.6,0.4-1,0.4c-0.2,0-0.3,0-0.5-0.1
		c-0.2,0-0.4-0.1-0.6-0.2c-0.5-0.2-0.7-0.5-0.7-1.1c0-0.4,0.2-0.8,0.4-1.1c0.3-0.4,0.6-0.7,1-1c0.1,0,0.1-0.1,0.2-0.1
		c0.6-0.2,1,0,1.3,0.5C348.1,269.7,348.2,270.1,348.2,270.6z"/>
	<path class="st0" d="M202,272.4c-0.7,0-1.1-0.2-1.5-0.4c-0.1,0-0.1-0.1-0.2-0.2c-0.1-0.1-0.2-0.3-0.3-0.5c0-0.4,0-0.8,0.2-1.1
		c0.3-0.5,0.6-0.9,1.1-1.2c0.3-0.2,0.7-0.2,1-0.2c0.1,0,0.2,0.1,0.3,0.2c0.2,0.1,0.3,0.3,0.4,0.5c0.1,0.1,0.1,0.2,0.1,0.3
		c0.2,0.5,0.1,1.1-0.1,1.6c-0.1,0.3-0.3,0.5-0.5,0.6C202.4,272.3,202.1,272.4,202,272.4z"/>
</g>
<path class="st1" d="M155.5,107c0.3,0,0.5,0.2,0.5,0.5c0,0.3-0.2,0.5-0.5,0.5c-0.3,0-0.5-0.2-0.5-0.5C155,107.2,155.2,107,155.5,107
	L155.5,107z"/>
<path class="st1" d="M253.7,244.9c-5.9,1.6-12.1,2.5-18.5,2.5c-1,0-2,0-2.9-0.1c0.2,0.3,0.3,0.7,0.4,1.1c0.8,0,1.7,0.1,2.6,0.1
	c6.1,0,12-0.8,17.6-2.3C253.1,245.7,253.3,245.3,253.7,244.9z"/>
<path class="st1" d="M235.2,110.5c-38.2,0-69.2,30.5-69.2,68.8c0,34.3,24.9,62.8,57.7,68.3c0.2-0.4,0.3-0.7,0.6-1
	c-32.4-5.3-57.2-33.4-57.2-67.3c0-37.6,30.5-68.1,68.1-68.1c29.5,0,58,20.7,66.1,49.2C294.1,130.8,265.3,110.5,235.2,110.5z"/>
<path class="st1" d="M251.4,248.4c-6.8,1.6-13.6,2.1-20.3,1.7c0.1,0.4,0.2,0.8,0.2,1.1c6.5,0.4,13.2-0.2,19.8-1.7
	C251.1,249.2,251.2,248.8,251.4,248.4z"/>
<path class="st1" d="M278.8,235.4c-5.2,4-11,7.4-17.5,9.9c-0.2,0.1-0.3,0.1-0.5,0.2c-0.1,0.5-0.3,1-0.6,1.4c0.5-0.2,1-0.4,1.5-0.6
	c6.5-2.6,12.4-6,17.7-10.1L278.8,235.4z"/>
<path class="st1" d="M208.9,112.6c-37.4,13.6-55.4,56.1-40.8,93.1c9.5,23.9,30.3,40,53.8,44.4c0.1-0.4,0.3-0.7,0.5-1.1
	c-23.3-4.3-43.9-20.1-53.3-43.7c-14.4-36.5,3.5-77.7,39.9-92.1c28.6-11.3,64.1-2.1,82.9,22.4C273.6,109.8,238.4,101.9,208.9,112.6z"
	/>
<path class="st1" d="M221.2,251.5c-19.5-3.7-37.4-15.2-48.7-33.4c-21.4-34.5-10.8-79.8,23.7-101.3c27-16.8,64.9-14,88.6,7.4
	c-23.6-22.9-61.1-24.7-89-8c-35.4,21.2-46.1,67.4-24.3,102.4c11.5,18.4,29.6,30.1,49.4,33.9C221,252.3,221.1,251.9,221.2,251.5z"/>
<path class="st1" d="M289.7,228.4c-4.5,5.1-9.9,9.6-16,13.4c-4.6,2.9-9.5,5.2-14.4,6.9c0.5,0.2,0.9,0.5,1.3,0.8
	c4.7-1.7,9.3-3.9,13.8-6.7c6.2-3.8,11.6-8.4,16.2-13.5L289.7,228.4z"/>
<path class="st1" d="M249.4,251.4c-6.3,1.3-12.7,1.7-19,1.3c0,0.4,0,0.8,0,1.2c6.2,0.4,12.4,0,18.6-1.2
	C249.2,252.3,249.3,251.8,249.4,251.4z"/>
<path class="st1" d="M278,116c0.3,0,0.5,0.2,0.5,0.5c0,0.3-0.2,0.5-0.5,0.5c-0.3,0-0.5-0.2-0.5-0.5C277.5,116.3,277.7,116,278,116
	L278,116z"/>
<path class="st1" d="M180.9,121.6c0.4,0,0.7,0.3,0.7,0.6c0,0.3-0.3,0.6-0.7,0.6c-0.4,0-0.7-0.3-0.7-0.6
	C180.2,121.9,180.5,121.6,180.9,121.6L180.9,121.6z"/>
<path class="st1" d="M174.6,122.6c0.8,0,1.5,0.6,1.5,1.4c0,0.8-0.7,1.4-1.5,1.4c-0.8,0-1.5-0.6-1.5-1.4
	C173.1,123.3,173.7,122.6,174.6,122.6L174.6,122.6z"/>
<path class="st1" d="M170.5,133.9c0.5,0,0.8,0.4,0.8,0.8c0,0.5-0.4,0.8-0.8,0.8s-0.8-0.4-0.8-0.8
	C169.7,134.3,170.1,133.9,170.5,133.9L170.5,133.9z"/>
<path class="st1" d="M161.3,158.5c0.3,0,0.6,0.3,0.6,0.7s-0.3,0.7-0.6,0.7c-0.3,0-0.6-0.3-0.6-0.7S161,158.5,161.3,158.5
	L161.3,158.5z"/>
<path class="st1" d="M156.4,171.5c0.7,0,1.2,0.5,1.2,1.1c0,0.6-0.5,1.1-1.2,1.1c-0.7,0-1.2-0.5-1.2-1.1
	C155.2,172,155.7,171.5,156.4,171.5L156.4,171.5z"/>
<path class="st1" d="M151.8,177.3c0.7,0,1.3,0.6,1.3,1.4c0,0.8-0.6,1.4-1.3,1.4c-0.7,0-1.3-0.6-1.3-1.4
	C150.6,177.9,151.1,177.3,151.8,177.3L151.8,177.3z"/>
<path class="st1" d="M155.6,184.4c0.3,0,0.6,0.2,0.6,0.5c0,0.3-0.3,0.5-0.6,0.5s-0.6-0.2-0.6-0.5C155,184.6,155.3,184.4,155.6,184.4
	L155.6,184.4z"/>
<path class="st1" d="M153.8,205.5c0.6,0,1,0.5,1,1.1c0,0.6-0.4,1.1-1,1.1c-0.6,0-1-0.5-1-1.1C152.8,206,153.3,205.5,153.8,205.5
	L153.8,205.5z"/>
<path class="st1" d="M165.3,223.6c0.4,0,0.7,0.3,0.7,0.8c0,0.4-0.3,0.8-0.7,0.8c-0.4,0-0.7-0.3-0.7-0.8
	C164.6,223.9,164.9,223.6,165.3,223.6L165.3,223.6z"/>
<path class="st1" d="M183.1,239.6c0.5,0,1,0.4,1,1c0,0.6-0.4,1-1,1c-0.5,0-1-0.4-1-1C182.2,240.1,182.6,239.6,183.1,239.6
	L183.1,239.6z"/>
<path class="st1" d="M197.1,251.4c0.3,0,0.6,0.3,0.6,0.6c0,0.3-0.2,0.6-0.6,0.6c-0.3,0-0.6-0.3-0.6-0.6
	C196.5,251.7,196.8,251.4,197.1,251.4L197.1,251.4z"/>
<path class="st1" d="M207.9,234.3c0.4,0,0.7,0.3,0.7,0.6c0,0.3-0.3,0.6-0.7,0.6c-0.4,0-0.7-0.3-0.7-0.6
	C207.2,234.6,207.5,234.3,207.9,234.3L207.9,234.3z"/>
<g>
	<path class="st0" d="M336.9,313.6c0.5,0,1,0,1.5,0c0.1,0,0.2,0,0.3,0c0,0,0.1,0,0.1,0.1c0.1,0.1,0.1,0.3,0,0.4c0,0-0.1,0.1-0.1,0.1
		c-0.1,0-0.3,0-0.4,0c-0.1,0-0.2,0.1-0.3,0.2c-0.1,0.1-0.1,0.2-0.1,0.3c0,0.1,0,0.2,0,0.3c0,0.7,0,1.5,0,2.2c0,0,0,0.1,0,0.1
		c0,0,0.1,0.1,0.2,0.2c0.3,0,0.7,0.1,1,0c0,0,0,0,0.1,0c0,0,0,0,0-0.1c0.1-0.2,0.1-0.4,0.2-0.7c0.2-0.8,0.5-1.4,1.1-1.9
		c0.3-0.3,0.6-0.6,1-0.8c0.6-0.3,1.1-0.5,1.8-0.5c0.1,0,0.3,0,0.5,0c0.6,0,1.2,0.2,1.8,0.5c0.6,0.3,1.1,0.8,1.5,1.4
		c0.3,0.4,0.5,0.9,0.6,1.4c0.1,0.5,0.2,1.1,0.1,1.6c-0.1,1.3-0.7,2.4-1.7,3.2c-0.5,0.4-1,0.6-1.5,0.7c-0.3,0.1-0.6,0.1-0.9,0.1
		c-0.5,0-0.9,0-1.3-0.2c-0.6-0.2-1.1-0.5-1.5-0.9c-0.6-0.6-1.1-1.3-1.2-2.2c-0.1-0.2-0.1-0.5-0.2-0.7c0-0.1,0-0.1-0.1-0.1
		c-0.4-0.1-0.7-0.1-1.1,0c0,0-0.1,0.1-0.1,0.1c0,0.1,0,0.1,0,0.2c0,0.7,0,1.4,0,2.1c0,0.1,0,0.3,0,0.4c0,0.1,0.1,0.2,0.1,0.3
		c0,0.1,0.1,0.1,0.2,0.1c0.2,0,0.4,0.1,0.7,0.1c0.1,0,0.1,0.1,0.2,0.2c0,0.1,0,0.1,0,0.2c0,0-0.1,0.1-0.1,0.1c-0.1,0-0.1,0-0.2,0
		c-1.1,0-2.1,0-3.2,0c0,0-0.1,0-0.1,0c-0.1,0-0.2-0.1-0.2-0.3c0-0.1,0.1-0.2,0.2-0.2c0.2,0,0.4-0.1,0.6-0.1c0.2,0,0.4-0.2,0.4-0.4
		c0-0.1,0-0.1,0-0.2c0-0.2,0-0.4,0-0.5c0-1.7,0-3.3,0-5c0-0.2,0-0.5,0-0.7c0-0.1,0-0.1,0-0.2c-0.1-0.2-0.2-0.3-0.4-0.3
		c-0.2,0-0.3,0-0.5-0.1c-0.2,0-0.3-0.3-0.2-0.4c0,0,0.1-0.1,0.1-0.1c0.1,0,0.1,0,0.2,0C335.9,313.6,336.4,313.6,336.9,313.6
		C336.9,313.6,336.9,313.6,336.9,313.6z M345.7,317.8c0-0.2,0-0.5-0.1-0.9c0-0.5-0.2-0.9-0.4-1.4c-0.1-0.2-0.2-0.4-0.3-0.5
		c-0.4-0.5-0.9-0.8-1.6-0.9c-0.1,0-0.2,0-0.3,0c-0.5,0-1,0.2-1.3,0.6c-0.2,0.2-0.4,0.4-0.5,0.7c-0.2,0.4-0.4,0.8-0.4,1.3
		c-0.1,0.9-0.1,1.3,0,2.2c0.1,0.6,0.2,1.1,0.5,1.6c0.1,0.2,0.2,0.4,0.4,0.6c0.3,0.4,0.7,0.6,1.2,0.6c0.3,0,0.5,0,0.7,0
		c0.1,0,0.2-0.1,0.4-0.1c0.5-0.2,0.9-0.5,1.1-1c0.2-0.4,0.4-0.9,0.5-1.3C345.7,318.8,345.7,318.4,345.7,317.8z"/>
	<path class="st0" d="M214.1,313.6c0.5,0,0.9,0,1.4,0c0.1,0,0.2,0,0.3,0c0.1,0,0.2,0.1,0.2,0.2c0,0.1-0.1,0.3-0.2,0.3
		c-0.2,0-0.3,0-0.5,0.1c-0.2,0-0.4,0.2-0.4,0.4c0,0.1,0,0.1,0,0.2c0,0.8,0,1.6,0,2.3c0,0,0,0,0,0.1c0,0.1,0.1,0.2,0.2,0.2
		c0.3,0,0.6,0,1,0c0,0,0.2-0.1,0.2-0.1c0-0.2,0.1-0.4,0.2-0.7c0.2-0.8,0.5-1.4,1.1-1.9c0.4-0.4,0.9-0.8,1.5-1
		c0.4-0.2,0.8-0.3,1.2-0.3c0.2,0,0.4,0,0.5,0c0.6,0,1.2,0.2,1.7,0.5c0.6,0.4,1.1,0.8,1.5,1.4c0.3,0.4,0.5,0.9,0.6,1.4
		c0.1,0.4,0.1,0.8,0.1,1.2c0,0.6-0.1,1.1-0.3,1.7c-0.3,0.9-0.9,1.7-1.7,2.2c-0.5,0.3-1,0.5-1.5,0.6c-0.4,0-0.8,0.1-1.2,0
		c-1-0.1-1.9-0.6-2.6-1.4c-0.5-0.5-0.8-1.2-0.9-1.9c0-0.2-0.1-0.4-0.1-0.7c0-0.1-0.1-0.2-0.2-0.2c-0.3,0-0.5,0-0.8,0
		c0,0-0.1,0-0.1,0c-0.1,0-0.1,0.1-0.1,0.2c0,0.1,0,0.1,0,0.2c0,0.7,0,1.4,0,2c0,0.1,0,0.3,0,0.4c0,0.1,0,0.1,0.1,0.2
		c0.1,0.1,0.1,0.2,0.3,0.2c0.2,0,0.4,0.1,0.6,0.1c0.1,0,0.2,0.2,0.2,0.3c0,0.1-0.1,0.1-0.1,0.2c-0.1,0-0.1,0-0.2,0c-1,0-2.1,0-3.1,0
		c0,0-0.1,0-0.1,0c-0.2,0-0.3-0.1-0.2-0.3c0-0.1,0.1-0.2,0.1-0.2c0.1,0,0.2,0,0.3-0.1c0.1,0,0.2,0,0.4-0.1c0.2,0,0.3-0.2,0.3-0.3
		c0-0.1,0-0.1,0.1-0.2c0-0.2,0-0.3,0-0.5c0-0.4,0-0.9,0-1.3c0-1.3,0-2.5,0-3.8c0-0.2,0-0.5,0-0.7c0-0.1,0-0.2-0.1-0.3
		c-0.1-0.2-0.2-0.3-0.3-0.3c-0.2,0-0.4-0.1-0.6-0.1c0,0-0.1,0-0.1-0.1c-0.1-0.1-0.1-0.3,0-0.4c0,0,0.1-0.1,0.1-0.1
		c0.1,0,0.2,0,0.3,0C213.1,313.6,213.6,313.6,214.1,313.6C214.1,313.6,214.1,313.6,214.1,313.6z M222.8,318.1c0-0.3,0-0.6,0-0.8
		c0-0.4-0.1-0.7-0.2-1c-0.1-0.4-0.3-0.8-0.5-1.1c-0.4-0.6-0.9-0.9-1.6-0.9c-0.1,0-0.2,0-0.3,0c-0.5,0-0.9,0.2-1.3,0.5
		c-0.2,0.2-0.4,0.4-0.5,0.6c-0.2,0.4-0.4,0.8-0.4,1.3c0,0.2-0.1,0.4-0.1,0.7c0,0.4,0,0.7,0,1.1c0,0.2,0,0.3,0.1,0.5
		c0.1,0.6,0.2,1.1,0.5,1.6c0.1,0.2,0.2,0.3,0.4,0.5c0.3,0.4,0.7,0.6,1.2,0.6c0.2,0,0.4,0,0.7,0c0.2,0,0.3-0.1,0.5-0.1
		c0.3-0.1,0.6-0.3,0.8-0.6c0.1-0.2,0.2-0.3,0.3-0.5c0.2-0.4,0.4-0.9,0.4-1.4C222.8,318.7,222.8,318.3,222.8,318.1z"/>
	<path class="st0" d="M167,322.2c-0.5,0-1,0-1.4,0c-0.1,0-0.1,0-0.2,0c-0.1,0-0.2-0.1-0.2-0.2c0-0.1,0.1-0.3,0.2-0.3
		c0.2,0,0.3,0,0.5-0.1c0.2,0,0.4-0.2,0.4-0.4c0-0.2,0-0.4,0-0.6c0-0.7,0-1.4,0-2.1c0-0.6,0-1.2,0-1.8c0-0.1,0-0.2,0-0.3
		c0-0.1,0-0.1-0.1-0.1c0,0,0,0-0.1,0c-0.1,0.1-0.1,0.2-0.2,0.3c-0.7,1.5-1.4,3.1-2.1,4.6c-0.1,0.3-0.2,0.6-0.4,0.8
		c-0.1,0.1-0.2,0.1-0.3,0.1c-0.1,0-0.2,0-0.3-0.1c-0.1-0.1-0.1-0.3-0.2-0.4c-0.6-1.2-1.1-2.5-1.7-3.7c-0.2-0.5-0.4-0.9-0.6-1.4
		c0-0.1-0.1-0.2-0.1-0.3c0,0-0.1-0.1-0.1,0c0,0,0,0,0,0.1c0,0.1,0,0.1,0,0.2c0,1.3,0,2.6,0,3.9c0,0.3,0,0.5,0.1,0.7
		c0,0.2,0.1,0.3,0.3,0.3c0.2,0,0.4,0.1,0.6,0.1c0.1,0,0.2,0.1,0.2,0.2c0,0,0,0.1,0,0.1c0,0.1,0,0.1-0.1,0.1c0,0-0.1,0-0.1,0
		c-0.2,0-0.4,0-0.6,0c-0.6,0-1.3,0-1.9,0c-0.1,0-0.2,0-0.3,0c-0.1,0-0.1-0.1-0.1-0.2c0,0,0-0.1,0-0.1c0-0.1,0.1-0.1,0.1-0.2
		c0.1,0,0.2,0,0.4-0.1c0.1,0,0.2,0,0.3-0.1c0.1,0,0.2-0.1,0.2-0.2c0-0.1,0.1-0.2,0.1-0.3c0-0.2,0-0.4,0-0.6c0-0.7,0-1.4,0-2
		c0-1,0-1.9,0-2.9c0-0.2,0-0.4,0-0.6c0-0.1,0-0.2,0-0.3c-0.1-0.3-0.3-0.4-0.5-0.5c-0.1,0-0.2,0-0.4,0c-0.2,0-0.2-0.2-0.2-0.3
		c0-0.1,0.1-0.2,0.2-0.2c0,0,0,0,0.1,0c0.7,0,1.4,0,2.1,0c0.1,0,0.2,0.1,0.3,0.2c0,0.1,0.1,0.1,0.1,0.2c0.1,0.1,0.1,0.3,0.2,0.4
		c0.8,1.6,1.5,3.3,2.3,4.9c0.1,0.1,0.1,0.2,0.2,0.3c0,0,0.1,0,0.1,0c0.1-0.1,0.1-0.2,0.2-0.3c0.7-1.4,1.3-2.9,2-4.3
		c0.2-0.4,0.4-0.8,0.5-1.2c0-0.1,0.1-0.1,0.1-0.2c0,0,0.1-0.1,0.1-0.1c0.1,0,0.1,0,0.2,0c0.6,0,1.3,0,1.9,0c0,0,0.1,0,0.1,0
		c0.2,0,0.3,0.2,0.2,0.4c0,0.1-0.1,0.1-0.2,0.1c-0.1,0-0.2,0-0.3,0c-0.1,0-0.2,0-0.3,0.1c-0.1,0-0.2,0.1-0.2,0.2
		c-0.1,0.1-0.1,0.2-0.1,0.4c0,0.2,0,0.4,0,0.7c0,1.2,0,2.3,0,3.5c0,0.6,0,1.2,0,1.7c0,0.2,0,0.3,0,0.5c0,0.1,0.1,0.2,0.1,0.3
		c0,0.1,0.1,0.1,0.2,0.1c0.1,0,0.2,0.1,0.4,0.1c0.1,0,0.2,0,0.3,0c0.1,0,0.2,0.1,0.2,0.2c0,0,0,0.1,0,0.1c0,0.1,0,0.1-0.1,0.1
		c-0.1,0-0.2,0-0.3,0C168,322.2,167.5,322.2,167,322.2C167,322.2,167,322.2,167,322.2z"/>
	<path class="st0" d="M319.6,313.6c0.5,0,1,0,1.4,0c0.1,0,0.2,0,0.3,0c0.1,0,0.2,0.1,0.2,0.2c0,0.1-0.1,0.3-0.2,0.3
		c-0.1,0-0.3,0-0.4,0.1c-0.1,0-0.2,0.1-0.3,0.1c-0.1,0.1-0.1,0.1-0.2,0.2c0,0.2-0.1,0.3-0.1,0.5c0,0.4,0,0.8,0,1.1c0,1.3,0,2.7,0,4
		c0,0.3,0,0.5,0,0.8c0,0.1,0,0.2,0,0.3c0,0.2,0.2,0.3,0.3,0.3c0.2,0,0.4,0.1,0.6,0.1c0.2,0,0.3,0.3,0.2,0.4c0,0-0.1,0.1-0.1,0.1
		c-0.1,0-0.1,0-0.2,0c-1,0-2.1,0-3.1,0c-0.1,0-0.1,0-0.2,0c-0.1,0-0.1-0.1-0.2-0.1c0,0,0,0,0-0.1c0-0.1,0.1-0.3,0.2-0.3
		c0.2,0,0.4-0.1,0.6-0.1c0.2,0,0.3-0.1,0.3-0.3c0.1-0.2,0.1-0.3,0.1-0.5c0-0.1,0-0.3,0-0.4c0-1.2,0-2.3,0-3.5c0-0.1,0-0.2,0-0.3
		c0,0,0,0-0.1,0c0,0-0.1,0-0.1,0c-0.1,0.1-0.2,0.2-0.2,0.3c-0.9,1.2-1.9,2.4-2.8,3.6c0,0.1-0.1,0.1-0.1,0.2
		c-0.1,0.1-0.1,0.2-0.1,0.3c0,0.1,0,0.2,0.1,0.4c0,0.1,0.1,0.2,0.3,0.2c0.2,0,0.4,0.1,0.7,0.1c0.1,0,0.2,0.1,0.2,0.2
		c0,0,0,0.1,0,0.1c0,0.1,0,0.1-0.1,0.1c-0.1,0-0.2,0-0.3,0c-0.7,0-1.5,0-2.2,0c-0.3,0-0.7,0-1,0c-0.1,0-0.1,0-0.1-0.1
		c-0.1-0.1-0.1-0.2-0.1-0.3c0-0.1,0.1-0.1,0.1-0.2c0.2,0,0.4-0.1,0.6-0.1c0.1,0,0.2-0.1,0.3-0.2c0,0,0.1-0.1,0.1-0.1
		c0-0.1,0-0.1,0.1-0.2c0-0.2,0-0.5,0-0.7c0-1.6,0-3.2,0-4.8c0-0.3,0-0.6-0.1-0.9c0-0.2-0.2-0.3-0.3-0.4c-0.2-0.1-0.3,0-0.5-0.1
		c-0.1,0-0.2-0.1-0.2-0.2c0-0.1,0-0.2,0.1-0.2c0,0,0.1-0.1,0.1-0.1c0.1,0,0.1,0,0.2,0c1,0,2,0,3,0c0.1,0,0.2,0,0.3,0
		c0.1,0,0.1,0,0.1,0.1c0,0.1,0,0.1,0,0.2c0,0.1-0.1,0.2-0.2,0.2c-0.2,0-0.3,0-0.5,0.1c-0.1,0-0.1,0.1-0.2,0.1
		c-0.1,0.1-0.1,0.1-0.2,0.2c-0.1,0.3-0.1,0.5-0.1,0.8c0,0.4,0,0.9,0,1.3c0,0.8,0,1.6,0,2.3c0,0.1,0,0.1,0,0.2c0,0,0.1,0.1,0.1,0.1
		c0,0,0.1,0,0.1,0c0.1-0.1,0.1-0.1,0.2-0.2c1-1.2,1.9-2.4,2.9-3.7c0.1-0.1,0.1-0.2,0.2-0.3c0.1-0.1,0.1-0.2,0.1-0.3
		c0-0.1-0.1-0.2-0.1-0.4c0-0.1-0.1-0.2-0.3-0.2c-0.2,0-0.4-0.1-0.6-0.1c-0.1,0-0.2-0.1-0.2-0.2c0-0.1,0-0.1,0-0.2c0,0,0-0.1,0.1-0.1
		c0.1,0,0.2,0,0.3,0C318.6,313.6,319.1,313.6,319.6,313.6C319.6,313.6,319.6,313.6,319.6,313.6z"/>
	<path class="st0" d="M190,322.2c-0.4,0-0.9,0-1.3,0c-0.1,0-0.2,0-0.4,0c-0.1,0-0.3-0.2-0.2-0.3c0-0.1,0.1-0.1,0.1-0.2
		c0.1,0,0.2,0,0.3-0.1c0.1,0,0.2,0,0.4-0.1c0.2,0,0.2-0.2,0.3-0.3c0-0.1,0-0.2,0-0.3c0-0.2,0-0.4,0-0.7c0-0.5,0-1.1,0-1.6
		c0-0.1,0-0.2,0-0.3c0,0-0.1-0.1-0.2-0.1c-0.1,0-0.1,0-0.2,0c-0.9,0-1.8,0-2.6,0c-0.1,0-0.1,0-0.2,0c-0.1,0-0.2,0.1-0.2,0.2
		c0,0.1,0,0.1,0,0.2c0,0.7,0,1.4,0,2c0,0.1,0,0.3,0,0.4c0,0.2,0.1,0.4,0.4,0.4c0.2,0.1,0.4,0.1,0.6,0.1c0.1,0,0.2,0.1,0.2,0.2
		c0,0,0,0.1,0,0.1c0,0.1-0.1,0.2-0.2,0.2c-0.1,0-0.1,0-0.2,0c-1,0-2.1,0-3.1,0c-0.1,0-0.1,0-0.2,0c-0.1,0-0.1-0.1-0.1-0.2
		c0,0,0-0.1,0-0.1c0-0.1,0.1-0.1,0.1-0.2c0.1,0,0.2,0,0.3-0.1c0.1,0,0.2,0,0.4-0.1c0.1,0,0.2-0.1,0.3-0.2c0-0.1,0.1-0.2,0.1-0.3
		c0-0.2,0-0.3,0-0.5c0-1.8,0-3.5,0-5.3c0-0.1,0-0.3,0-0.4c0-0.4-0.2-0.6-0.5-0.6c-0.1,0-0.3,0-0.4-0.1c0,0-0.1,0-0.1-0.1
		c-0.1-0.1-0.1-0.3,0-0.4c0,0,0.1-0.1,0.1-0.1c0.1,0,0.1,0,0.2,0c1,0,2.1,0,3.1,0c0,0,0.1,0,0.1,0c0.1,0,0.2,0.2,0.2,0.3
		c0,0.1-0.1,0.2-0.2,0.2c-0.2,0-0.3,0-0.5,0.1c-0.1,0-0.2,0.1-0.3,0.1c-0.1,0.1-0.1,0.2-0.1,0.3c0,0.1,0,0.1,0,0.2
		c0,0.8,0,1.6,0,2.3c0,0.1,0.1,0.2,0.2,0.2c0,0,0,0,0.1,0c0,0,0.1,0,0.1,0c0.9,0,1.7,0,2.6,0c0.1,0,0.2,0,0.3,0
		c0.1,0,0.1-0.1,0.1-0.2c0,0,0-0.1,0-0.1c0-0.7,0-1.5,0-2.2c0-0.1,0-0.1,0-0.2c0-0.3-0.3-0.5-0.5-0.5c-0.1,0-0.3,0-0.4,0
		c-0.1,0-0.2-0.2-0.2-0.3c0-0.1,0.1-0.2,0.2-0.2c0.1,0,0.1,0,0.2,0c1,0,2,0,2.9,0c0.1,0,0.1,0,0.2,0c0.2,0,0.3,0.1,0.2,0.3
		c0,0.1-0.1,0.2-0.2,0.2c-0.1,0-0.2,0-0.4,0c-0.1,0-0.2,0-0.2,0c-0.2,0.1-0.3,0.2-0.3,0.4c0,0.1,0,0.1,0,0.2c0,0.2,0,0.3,0,0.5
		c0,1.7,0,3.4,0,5.1c0,0.2,0,0.4,0,0.5c0,0.1,0,0.1,0,0.2c0,0.2,0.2,0.3,0.3,0.4c0.1,0,0.2,0.1,0.4,0.1c0.1,0,0.1,0,0.2,0
		c0.1,0,0.2,0.1,0.2,0.3c0,0.1-0.1,0.2-0.2,0.2c-0.1,0-0.2,0-0.3,0c-0.2,0-0.4,0-0.6,0C190.5,322.2,190.3,322.2,190,322.2
		C190,322.2,190,322.2,190,322.2z"/>
	<path class="st0" d="M306.5,313.6c1,0,2,0,2.9,0c0.1,0,0.3,0,0.4,0c0,0,0.1,0,0.1,0.1c0,0,0,0.1,0.1,0.1c0,0,0,0.1,0,0.1
		c0,0.1-0.1,0.1-0.1,0.2c-0.1,0.1-0.3,0-0.4,0.1c-0.1,0-0.1,0-0.2,0.1c-0.1,0-0.2,0.1-0.3,0.3c0,0.1-0.1,0.2-0.1,0.4
		c0,0.2,0,0.3,0,0.5c0,1.6,0,3.1,0,4.7c0,0.3,0,0.7,0.1,1c0,0.1,0,0.1,0.1,0.2c0,0.2,0.1,0.3,0.3,0.3c0.1,0,0.2,0,0.4,0.1
		c0.1,0,0.1,0,0.2,0.1c0.1,0,0.1,0.1,0.1,0.2c0,0,0,0.1,0,0.1c0,0.8,0,1.5,0,2.3c0,0,0,0.1,0,0.1c0,0.1-0.1,0.1-0.2,0.1
		c-0.1,0-0.1,0-0.2,0c0,0-0.1-0.1-0.1-0.1c-0.1-0.2-0.1-0.4-0.2-0.6c-0.1-0.4-0.3-0.7-0.6-1c-0.3-0.3-0.6-0.5-1-0.5
		c-0.3-0.1-0.6-0.1-1-0.1c-0.6,0-1.3,0-1.9,0c-0.3,0-0.6,0-1,0.1c-0.5,0.1-0.8,0.3-1.1,0.7c-0.3,0.3-0.5,0.7-0.6,1
		c0,0.1-0.1,0.2-0.1,0.4c0,0.1-0.2,0.2-0.3,0.2c-0.1,0-0.2-0.1-0.2-0.2c0,0,0,0,0-0.1c0,0,0,0,0-0.1c0-0.8,0-1.5,0-2.3
		c0,0,0-0.1,0-0.1c0,0,0-0.1,0.1-0.1c0.1-0.1,0.2-0.1,0.3-0.1c0.3-0.1,0.6-0.3,0.8-0.5c0.1-0.1,0.3-0.3,0.4-0.5
		c0.2-0.3,0.3-0.6,0.4-1c0.2-0.5,0.3-1.1,0.4-1.7c0.1-0.7,0.2-1.3,0.2-2c0-0.2,0-0.4,0-0.7c0-0.2,0-0.4-0.1-0.7
		c0-0.1-0.1-0.1-0.1-0.2c-0.1-0.1-0.2-0.2-0.4-0.2c-0.2,0-0.4,0-0.6-0.1c0,0-0.1-0.1-0.1-0.1c-0.1-0.1-0.1-0.2,0-0.3
		c0-0.1,0.1-0.1,0.2-0.1c0.1,0,0.3,0,0.4,0C304.5,313.6,305.5,313.6,306.5,313.6z M307.3,317.8C307.3,317.8,307.3,317.8,307.3,317.8
		c0-0.8,0-1.6,0-2.4c0-0.2,0-0.4,0-0.6c0-0.1,0-0.1,0-0.2c0-0.1-0.1-0.2-0.2-0.2c-0.5,0-1.1,0-1.6,0c0,0,0,0-0.1,0
		c0,0-0.1,0.1-0.2,0.1c0,0.1,0,0.2,0,0.3c-0.1,0.9-0.1,1.9-0.3,2.8c0,0.4-0.1,0.8-0.2,1.2c-0.1,0.7-0.4,1.3-0.7,2
		c0,0.1-0.1,0.2-0.1,0.3c0,0,0,0.1-0.1,0.1c0,0.1,0,0.2,0.1,0.2c0.4,0,2.6,0,3,0c0,0,0,0,0.1,0c0,0,0,0,0.1,0c0.1,0,0.2-0.2,0.2-0.3
		c0-0.2,0-0.4,0-0.7C307.3,319.6,307.3,318.7,307.3,317.8z"/>
	<path class="st0" d="M128.8,313.6c1,0,2,0,3,0c0.1,0,0.2,0,0.4,0c0.1,0,0.1,0,0.1,0.1c0,0,0,0.1,0,0.1c0,0.1-0.1,0.3-0.2,0.3
		c-0.1,0-0.3,0-0.4,0.1c-0.1,0-0.1,0-0.2,0.1c-0.1,0-0.2,0.1-0.2,0.2c-0.1,0.1-0.1,0.3-0.1,0.4c0,0.2,0,0.3,0,0.5c0,1.5,0,3,0,4.4
		c0,0.4,0,0.8,0.1,1.2c0,0.1,0,0.1,0.1,0.2c0,0.1,0.1,0.2,0.3,0.2c0.2,0.1,0.4,0,0.6,0.1c0.1,0,0.1,0.1,0.1,0.2c0,0,0,0,0,0.1
		c0,0,0,0,0,0.1c0,0.8,0,1.5,0,2.3c0,0,0,0.1,0,0.1c0,0.1-0.1,0.1-0.1,0.2c0,0,0,0-0.1,0c-0.1,0-0.3-0.1-0.3-0.2
		c-0.1-0.2-0.1-0.4-0.2-0.6c-0.1-0.4-0.3-0.7-0.6-0.9c-0.3-0.3-0.6-0.4-0.9-0.5c-0.3-0.1-0.6-0.1-1-0.1c-0.7,0-1.3,0-2,0
		c-0.3,0-0.6,0-0.9,0.1c-0.5,0.1-0.9,0.3-1.2,0.7c-0.3,0.3-0.4,0.7-0.6,1.1c0,0.1-0.1,0.2-0.1,0.3c-0.1,0.2-0.2,0.2-0.4,0.2
		c-0.1,0-0.1-0.1-0.1-0.1c0,0,0-0.1,0-0.1c0-0.1,0-0.2,0-0.3c0-0.6,0-1.2,0-1.8c0-0.1,0-0.2,0-0.3c0-0.1,0.1-0.1,0.1-0.2
		c0.1,0,0.2-0.1,0.3-0.1c0.3-0.1,0.5-0.2,0.8-0.5c0.2-0.2,0.3-0.4,0.4-0.6c0.3-0.5,0.5-1.1,0.6-1.7c0.1-0.6,0.2-1.2,0.3-1.8
		c0-0.3,0.1-0.6,0.1-0.9c0-0.3,0-0.6,0-1c0-0.2,0-0.4-0.1-0.6c0-0.1-0.1-0.1-0.1-0.2c-0.1-0.1-0.2-0.2-0.3-0.2c-0.2,0-0.4,0-0.6-0.1
		c-0.1,0-0.2-0.1-0.2-0.2c0-0.1,0-0.1,0-0.2c0,0,0.1-0.1,0.1-0.1c0.1,0,0.2,0,0.4,0C126.8,313.6,127.8,313.6,128.8,313.6
		C128.8,313.6,128.8,313.6,128.8,313.6z M129.6,317.9C129.6,317.9,129.6,317.9,129.6,317.9c0-0.8,0-1.7,0-2.5c0-0.2,0-0.4,0-0.6
		c0,0,0-0.1,0-0.1c0,0-0.1-0.1-0.1-0.2c-0.4,0-1.5,0-1.8,0c0,0,0,0-0.1,0c0,0,0,0-0.1,0.1c0,0,0,0.1,0,0.1c-0.1,0.6-0.1,1.3-0.1,1.9
		c-0.1,0.7-0.1,1.4-0.3,2.1c-0.2,0.8-0.4,1.6-0.8,2.3c0,0.1-0.1,0.1-0.1,0.2c-0.1,0.1,0,0.2,0.1,0.2c0.3,0,0.5,0,0.8,0
		c0.6,0,1.2,0,1.8,0c0.1,0,0.3,0,0.4,0c0.1,0,0.3-0.2,0.3-0.3c0-0.2,0-0.5,0-0.7C129.6,319.5,129.6,318.7,129.6,317.9z"/>
	<path class="st0" d="M284.5,313.6c1.3,0,2.5,0,3.8,0c0.1,0,0.3,0,0.4,0c0,0,0.1,0,0.1,0.1c0.1,0.1,0.1,0.3,0,0.4
		c0,0-0.1,0.1-0.1,0.1c-0.1,0-0.3,0-0.4,0.1c-0.1,0-0.2,0.1-0.3,0.2c0,0-0.1,0.1-0.1,0.1c0,0.1,0,0.1,0,0.2c0,0.2,0,0.5,0,0.7
		c0,1.6,0,3.2,0,4.8c0,0.3,0,0.6,0.1,0.9c0,0.1,0.2,0.3,0.3,0.4c0.2,0,0.3,0.1,0.5,0.1c0.2,0,0.3,0.2,0.2,0.3c0,0.1-0.1,0.2-0.2,0.2
		c-0.1,0-0.1,0-0.2,0c-1,0-2,0-2.9,0c-0.1,0-0.2,0-0.3,0c0,0-0.1,0-0.1-0.1c0,0,0-0.1-0.1-0.1c0,0,0,0,0-0.1c0-0.1,0.1-0.2,0.2-0.2
		c0.1,0,0.1,0,0.2-0.1c0.1,0,0.2,0,0.4-0.1c0.2,0,0.3-0.1,0.3-0.3c0.1-0.2,0.1-0.4,0.1-0.6c0-0.2,0-0.4,0-0.5c0-1.7,0-3.4,0-5
		c0-0.2,0-0.3,0-0.5c0-0.1-0.1-0.2-0.2-0.2c-0.1,0-0.1,0-0.2,0c-0.9,0-1.8,0-2.6,0c-0.1,0-0.1,0-0.2,0c0,0-0.2,0.1-0.2,0.1
		c0,0,0,0.1,0,0.1c0,0.2,0,0.4,0,0.5c0,1.7,0,3.3,0,5c0,0.2,0,0.4,0,0.6c0,0.2,0,0.3,0.1,0.5c0,0.1,0.1,0.2,0.3,0.2
		c0.2,0.1,0.4,0,0.7,0.1c0.1,0,0.1,0.1,0.1,0.2c0,0,0,0.1,0,0.1c0,0.1-0.1,0.1-0.1,0.2c-0.1,0-0.1,0-0.2,0c-1.1,0-2.1,0-3.2,0
		c0,0-0.1,0-0.1,0c0,0-0.1,0-0.1-0.1c-0.1-0.1,0-0.4,0.1-0.4c0.2,0,0.4-0.1,0.6-0.1c0.2,0,0.3-0.2,0.3-0.4c0-0.1,0-0.1,0-0.2
		c0-0.1,0-0.3,0-0.5c0-1.8,0-3.5,0-5.3c0-0.2,0-0.4,0-0.6c0-0.2-0.2-0.4-0.4-0.4c-0.2,0-0.3,0-0.5-0.1c-0.1,0-0.2-0.1-0.2-0.2
		c0-0.1,0-0.2,0.1-0.3c0,0,0.1-0.1,0.1-0.1c0.1,0,0.3,0,0.4,0C282,313.6,283.2,313.6,284.5,313.6z"/>
	<path class="st0" d="M147.6,313.6c0.6,0,1.2,0,1.7,0c0.1,0,0.2,0,0.3,0c0.1,0,0.1,0,0.1,0.1c0,0,0,0.1,0,0.1c0,0.1-0.1,0.3-0.2,0.3
		c-0.2,0-0.3,0-0.5,0.1c-0.1,0-0.1,0.1-0.2,0.1c-0.1,0.1-0.1,0.1-0.2,0.2c0,0.1,0,0.2,0,0.3c0,0.2,0,0.4,0,0.5c0,1.7,0,3.4,0,5
		c0,0.2,0,0.4,0,0.5c0,0.1,0,0.2,0,0.3c0,0.1,0.2,0.3,0.4,0.4c0.1,0,0.2,0,0.4,0.1c0.1,0,0.1,0,0.2,0c0,0,0,0,0.1,0
		c0.1,0.1,0.1,0.3,0,0.4c0,0,0,0-0.1,0c0,0-0.1,0-0.1,0c-1.1,0-2.2,0-3.2,0c0,0,0,0-0.1,0c-0.2,0-0.3-0.1-0.2-0.3
		c0-0.1,0.1-0.2,0.1-0.2c0.1,0,0.2,0,0.3-0.1c0.1,0,0.2,0,0.4-0.1c0.2,0,0.2-0.2,0.3-0.3c0,0,0-0.1,0-0.1c0-0.1,0-0.2,0-0.4
		c0-0.7,0-1.4,0-2.1c0-0.2-0.1-0.3-0.3-0.3c0,0-0.1,0-0.1,0c0,0-0.1,0-0.1,0c0,0-0.1,0-0.1,0.1c-0.1,0.1-0.2,0.2-0.3,0.3
		c-0.6,0.8-1.2,1.6-1.8,2.4c-0.2,0.3-0.4,0.6-0.6,0.8c0,0.1-0.1,0.1-0.2,0.1c0,0,0,0-0.1,0c-0.7,0-1.3,0-2,0c0,0-0.1,0-0.1,0
		c-0.1,0-0.1,0-0.1-0.1c-0.1-0.2,0-0.4,0.2-0.4c0.1,0,0.2,0,0.3-0.1c0.4-0.1,0.7-0.3,1-0.5c0.2-0.2,0.4-0.5,0.6-0.8
		c0.3-0.4,0.6-0.8,0.9-1.2c0.2-0.3,0.4-0.5,0.6-0.8c0-0.1,0-0.1-0.1-0.2c-0.1,0-0.1-0.1-0.2-0.1c-0.1-0.1-0.3-0.1-0.4-0.2
		c-0.3-0.2-0.6-0.4-0.8-0.7c-0.1-0.2-0.2-0.4-0.3-0.6c0-0.1-0.1-0.2-0.1-0.4c0-0.1,0-0.3,0-0.4c0,0,0-0.1,0-0.1
		c0.1-0.8,0.6-1.3,1.3-1.6c0.2-0.1,0.3-0.1,0.5-0.2c0.4-0.1,0.9-0.1,1.3-0.1C146.7,313.6,147.2,313.6,147.6,313.6
		C147.6,313.6,147.6,313.6,147.6,313.6z M147.1,316.1C147.1,316.1,147.1,316.1,147.1,316.1c0-0.3,0-0.7,0-1c0-0.1,0-0.2,0-0.4
		c0-0.1-0.1-0.2-0.1-0.2c-0.4-0.1-0.8-0.1-1.2,0c-0.5,0.2-1,0.7-1,1.3c0,0.1,0,0.3,0,0.4c0,0.2,0.1,0.4,0.2,0.6
		c0.2,0.4,0.6,0.6,1,0.7c0.2,0.1,0.4,0.1,0.7,0.1c0.1,0,0.2,0,0.3,0c0.1,0,0.2-0.1,0.2-0.2c0-0.1,0-0.1,0-0.2
		C147.1,316.8,147.1,316.5,147.1,316.1z"/>
	<path class="st0" d="M326.2,313.6c0.5,0,0.9,0,1.4,0c0.1,0,0.2,0,0.3,0c0.1,0,0.2,0.1,0.2,0.3c0,0.1-0.1,0.3-0.2,0.3
		c-0.1,0-0.3,0-0.4,0.1c-0.3,0-0.5,0.2-0.5,0.6c0,0.1,0,0.2,0,0.3c0,0.7,0,1.4,0,2c0,0,0,0.1,0,0.1c0,0.1,0,0.1,0.1,0.1
		c0.3,0.1,0.5,0,0.7-0.1c0.4-0.2,0.6-0.5,0.8-0.9c0.1-0.2,0.2-0.4,0.3-0.6c0.1-0.3,0.2-0.5,0.3-0.8c0.1-0.2,0.2-0.5,0.3-0.7
		c0.2-0.4,0.5-0.6,0.9-0.7c0.2-0.1,0.4-0.1,0.6-0.1c0.3,0,0.5,0,0.8,0.1c0,0,0.1,0,0.1,0.1c0.2,0.1,0.3,0.3,0.3,0.6
		c0,0.3-0.1,0.5-0.4,0.7c0,0-0.1,0-0.1,0.1c-0.1,0-0.2,0.1-0.4,0c-0.3-0.1-0.5-0.2-0.8-0.3c-0.1,0-0.3,0-0.3,0.1
		c0,0.1-0.1,0.1-0.1,0.2c-0.1,0.3-0.2,0.5-0.3,0.8c-0.1,0.2-0.1,0.3-0.2,0.5c-0.2,0.5-0.5,1-0.9,1.3c-0.1,0.1,0,0.1,0,0.2
		c0,0,0,0,0.1,0.1c0.4,0.3,0.7,0.8,1,1.2c0.3,0.4,0.5,0.8,0.8,1.2c0.2,0.3,0.4,0.5,0.6,0.8c0.1,0.1,0.1,0.1,0.2,0.2
		c0.2,0.2,0.4,0.3,0.7,0.3c0.1,0,0.2,0.1,0.4,0.1c0.1,0,0.2,0.2,0.1,0.4c0,0.1,0,0.1-0.1,0.1c0,0,0,0-0.1,0c0,0-0.1,0-0.1,0
		c-0.6,0-1.2,0-1.8,0c0,0-0.1,0-0.1,0c0,0-0.1,0-0.1-0.1c-0.1-0.1-0.2-0.2-0.3-0.4c-0.5-0.8-1.1-1.5-1.6-2.3
		c-0.2-0.3-0.5-0.6-0.7-0.9c-0.1-0.1-0.2-0.2-0.3-0.2c-0.1,0-0.1,0-0.2-0.1c-0.1,0-0.2,0.1-0.2,0.1c0,0.1,0,0.1,0,0.2
		c0,0.7,0,1.3,0,2c0,0.2,0,0.3,0,0.5c0,0.1,0,0.1,0.1,0.2c0.1,0.1,0.2,0.2,0.3,0.2c0.1,0,0.1,0,0.2,0c0.1,0,0.2,0,0.3,0
		c0.2,0,0.3,0.2,0.3,0.4c0,0.1-0.1,0.1-0.2,0.1c-0.1,0-0.1,0-0.2,0c-1,0-2.1,0-3.1,0c-0.1,0-0.1,0-0.2,0c-0.1,0-0.2-0.1-0.2-0.2
		c0-0.1,0.1-0.3,0.2-0.3c0.2,0,0.4-0.1,0.6-0.1c0.2,0,0.3-0.1,0.3-0.3c0-0.1,0.1-0.2,0.1-0.3c0-0.2,0-0.3,0-0.5c0-1.7,0-3.4,0-5.1
		c0-0.1,0-0.3,0-0.4c0-0.1,0-0.1,0-0.2c0-0.2-0.2-0.4-0.5-0.4c-0.1,0-0.3,0-0.4-0.1c0,0-0.1,0-0.1-0.1c-0.1-0.1-0.1-0.3,0-0.4
		c0,0,0.1-0.1,0.1-0.1c0.1,0,0.2,0,0.3,0C325.2,313.6,325.7,313.6,326.2,313.6C326.2,313.6,326.2,313.6,326.2,313.6z"/>
	<path class="st0" d="M203.2,322.2c-0.5,0-1,0-1.5,0c-0.1,0-0.2,0-0.3,0c-0.1,0-0.1-0.1-0.1-0.2c0,0,0-0.1,0-0.1
		c0-0.1,0.1-0.1,0.1-0.2c0.1,0,0.2,0,0.3-0.1c0.1,0,0.2,0,0.4-0.1c0.1,0,0.2-0.1,0.2-0.2c0.1-0.1,0.1-0.2,0.1-0.4c0-0.2,0-0.4,0-0.6
		c0-0.7,0-1.5,0-2.2c0-0.9,0-1.8,0-2.7c0-0.2,0-0.4,0-0.6c0-0.1,0-0.2-0.1-0.3c-0.1-0.2-0.2-0.3-0.4-0.4c-0.1,0-0.2,0-0.3,0
		c-0.1,0-0.1,0-0.2,0c-0.1,0-0.2-0.1-0.2-0.2c0,0,0-0.1,0-0.1c0-0.1,0.1-0.1,0.1-0.2c0,0,0.1,0,0.1,0c1.1,0,2.2,0,3.2,0
		c0,0,0.1,0,0.1,0c0,0,0.1,0,0.1,0.1c0.1,0.1,0.1,0.3,0,0.4c0,0-0.1,0.1-0.1,0.1c-0.2,0-0.3,0-0.5,0.1c-0.2,0-0.3,0.2-0.4,0.4
		c0,0.1,0,0.2-0.1,0.4c0,0.3,0,0.7,0,1.1c0,0.4,0,0.8,0,1.2c0,0.1,0.1,0.1,0.2,0.1c0.2,0,0.3,0,0.4,0c0.2,0,0.3-0.1,0.4-0.2
		c0.3-0.2,0.5-0.5,0.7-0.8c0.1-0.2,0.2-0.4,0.3-0.6c0.1-0.3,0.2-0.5,0.3-0.8c0.1-0.2,0.2-0.4,0.3-0.6c0.2-0.4,0.6-0.6,1-0.8
		c0.1,0,0.1,0,0.2,0c0.3-0.1,0.7-0.1,1,0c0.2,0.1,0.5,0.3,0.5,0.6c0,0,0,0.1,0,0.1c0,0.3-0.1,0.5-0.4,0.6c-0.1,0-0.1,0.1-0.2,0.1
		c-0.1,0-0.2,0-0.3,0c-0.2-0.1-0.3-0.1-0.5-0.2c-0.1,0-0.2-0.1-0.3-0.1c-0.1,0-0.2,0-0.3,0.1c0,0.1-0.1,0.1-0.1,0.2
		c-0.1,0.2-0.2,0.5-0.3,0.7c-0.1,0.1-0.1,0.3-0.2,0.4c-0.2,0.6-0.5,1.1-1,1.5c-0.1,0.1-0.1,0.1,0,0.2c0,0,0,0,0.1,0.1
		c0.4,0.4,0.7,0.8,1.1,1.3c0.3,0.4,0.5,0.8,0.8,1.2c0.2,0.2,0.4,0.5,0.6,0.7c0.1,0.1,0.2,0.2,0.3,0.3c0.2,0.2,0.4,0.3,0.7,0.3
		c0.1,0,0.2,0,0.3,0.1c0.1,0,0.2,0.2,0.2,0.4c0,0.1-0.1,0.2-0.1,0.2c-0.1,0-0.2,0-0.3,0c-0.4,0-0.8,0-1.2,0c-0.2,0-0.4,0-0.6,0
		c-0.1,0-0.1,0-0.2-0.1c-0.1-0.1-0.2-0.3-0.3-0.4c-0.5-0.7-1-1.5-1.6-2.2c-0.2-0.3-0.5-0.6-0.7-0.9c-0.1-0.1-0.2-0.2-0.3-0.2
		c-0.1,0-0.1,0-0.2,0c-0.1,0-0.1,0-0.1,0.1c0,0,0,0.1,0,0.1c0,0.7,0,1.5,0,2.2c0,0.1,0,0.3,0,0.4c0,0.1,0.1,0.2,0.1,0.3
		c0,0.1,0.1,0.1,0.2,0.1c0.1,0,0.2,0,0.4,0.1c0.1,0,0.2,0,0.3,0.1c0.1,0,0.2,0.1,0.2,0.2c0,0.1,0,0.1-0.1,0.2c0,0-0.1,0.1-0.1,0.1
		c-0.1,0-0.2,0-0.3,0C204.2,322.2,203.7,322.2,203.2,322.2C203.2,322.2,203.2,322.2,203.2,322.2z"/>
	<path class="st0" d="M294.9,322.2c-0.9,0-1.9,0-2.8,0c-0.1,0-0.2,0-0.4,0c-0.1,0-0.1-0.1-0.1-0.2c0,0,0-0.1,0-0.1
		c0-0.1,0.1-0.1,0.1-0.2c0.1,0,0.2,0,0.3-0.1c0.1,0,0.2,0,0.4-0.1c0.2-0.1,0.3-0.2,0.3-0.4c0-0.1,0-0.1,0-0.2c0-0.2,0-0.4,0-0.6
		c0-1.6,0-3.3,0-4.9c0-0.2,0-0.5,0-0.7c0-0.1,0-0.1-0.1-0.2c-0.1-0.2-0.2-0.3-0.3-0.3c-0.2,0-0.4,0-0.6-0.1c-0.1,0-0.2-0.1-0.2-0.2
		c0,0,0-0.1,0-0.1c0-0.1,0.1-0.1,0.2-0.1c0.2,0,0.3,0,0.5,0c1.3,0,2.7,0,4,0c0.5,0,1,0,1.5,0c0.1,0,0.2,0,0.3,0
		c0.1,0,0.2,0.1,0.2,0.2c0.1,0.6,0.1,1.1,0.1,1.7c0,0-0.1,0.1-0.1,0.2c0,0-0.1,0-0.1,0c-0.1,0-0.2-0.1-0.2-0.2
		c0-0.1-0.1-0.2-0.1-0.4c-0.1-0.1-0.1-0.3-0.2-0.4c-0.1-0.1-0.2-0.2-0.3-0.3c-0.1-0.1-0.3-0.1-0.4-0.1c-0.1,0-0.2,0-0.4,0
		c-0.6,0-1.1,0-1.7,0c-0.1,0-0.1,0-0.2,0c-0.1,0-0.2,0.1-0.2,0.2c0,0,0,0.1,0,0.1c0,0.8,0,1.5,0,2.3c0,0.1,0,0.2,0,0.2
		c0,0,0.1,0.1,0.1,0.1c0,0,0.1,0,0.1,0c0.5,0,1,0,1.4,0c0.2,0,0.3,0,0.4-0.1c0.3-0.1,0.4-0.2,0.5-0.5c0-0.1,0-0.1,0-0.2
		c0-0.1,0-0.1,0.1-0.2c0-0.2,0.3-0.2,0.4-0.1c0,0,0,0,0,0.1c0,0,0,0,0,0.1c0,0,0,0.1,0,0.1c0,0.9,0,1.7,0,2.6c0,0,0,0.1,0,0.1
		c0,0.1-0.1,0.1-0.2,0.1c-0.2,0-0.3,0-0.4-0.2c0-0.1,0-0.1,0-0.2c0-0.1,0-0.1,0-0.2c-0.1-0.3-0.3-0.4-0.5-0.5c0,0,0,0-0.1,0
		c-0.6,0-1.2,0-1.9,0c-0.1,0-0.1,0.1-0.2,0.1c0,0,0,0.1,0,0.1c0,0.1,0,0.2,0,0.2c0,0.7,0,1.4,0,2c0,0.1,0,0.2,0,0.4
		c0,0.2,0.1,0.3,0.3,0.3c0.1,0,0.2,0,0.3,0c0.5,0,0.9,0,1.4,0c0.2,0,0.4,0,0.6,0c0.3,0,0.5-0.1,0.7-0.3c0.2-0.2,0.3-0.4,0.5-0.6
		c0.1-0.2,0.2-0.3,0.3-0.5c0.1-0.1,0.2-0.2,0.4-0.2c0.1,0,0.2,0.1,0.2,0.2c0,0,0,0.1,0,0.1c-0.2,0.6-0.4,1.2-0.6,1.8
		c-0.1,0.2-0.2,0.2-0.3,0.2c-0.2,0-0.4,0-0.6,0C296.5,322.2,295.7,322.2,294.9,322.2C294.9,322.2,294.9,322.2,294.9,322.2z"/>
	<path class="st0" d="M352.4,313.6c0.5,0,0.9,0,1.4,0c0.4,0,0.8,0.1,1.3,0.2c0.6,0.2,1.1,0.5,1.5,1.1c0.2,0.3,0.3,0.6,0.3,1
		c0.1,0.4,0,0.9-0.2,1.2c-0.2,0.5-0.6,0.9-1.1,1.2c-0.2,0.1-0.4,0.2-0.6,0.2c-0.1,0-0.3,0-0.4,0.1c-0.2,0-0.5,0-0.7,0
		c-0.2,0-0.4-0.1-0.6-0.1c0,0-0.2,0.1-0.2,0.1c0,0.1,0,0.1,0,0.2c0,0.6,0,1.2,0,1.9c0,0.2,0,0.4,0.1,0.6c0,0.2,0.1,0.3,0.3,0.3
		c0.2,0.1,0.4,0.1,0.6,0.1c0.1,0,0.1,0.1,0.2,0.1c0.1,0.1,0,0.2,0,0.3c0,0-0.1,0.1-0.1,0.1c-0.1,0-0.1,0-0.2,0c-1,0-2,0-3.1,0
		c-0.1,0-0.1,0-0.2,0c-0.1,0-0.1-0.1-0.1-0.2c0,0,0-0.1,0-0.1c0-0.1,0.1-0.2,0.1-0.2c0.1,0,0.2,0,0.3-0.1c0.1,0,0.2,0,0.3,0
		c0.2,0,0.3-0.2,0.4-0.3c0-0.1,0.1-0.3,0.1-0.4c0-0.1,0-0.3,0-0.4c0-1.6,0-3.2,0-4.9c0-0.2,0-0.4,0-0.7c0-0.1,0-0.2-0.1-0.3
		c-0.1-0.2-0.2-0.3-0.3-0.3c-0.1,0-0.3,0-0.4,0c-0.2,0-0.3-0.2-0.3-0.4c0-0.1,0-0.1,0.1-0.1c0.1,0,0.1,0,0.2,0c0.4,0,0.7,0,1.1,0
		C352,313.6,352.2,313.6,352.4,313.6C352.4,313.6,352.4,313.6,352.4,313.6z M355.2,316.2c0-0.1,0-0.3,0-0.4c0-0.3-0.1-0.5-0.3-0.8
		c-0.2-0.2-0.4-0.4-0.7-0.5c-0.3-0.1-0.7-0.1-1,0c0,0-0.1,0.1-0.1,0.2c0,0.1,0,0.2,0,0.3c0,0.8,0,1.5,0,2.3c0,0.1,0,0.1,0,0.2
		c0,0,0.1,0.1,0.1,0.2c0.2,0.1,0.5,0.1,0.7,0.1c0,0,0.1,0,0.1,0c0.6-0.1,1.1-0.6,1.1-1.2C355.1,316.4,355.1,316.3,355.2,316.2z"/>
	<path class="st0" d="M228.5,318c0-0.9,0-1.7,0-2.6c0-0.3,0-0.6-0.1-0.9c0-0.2-0.2-0.3-0.3-0.3c-0.1,0-0.1,0-0.2,0
		c-0.1,0-0.2,0-0.4,0c-0.1,0-0.2-0.1-0.2-0.2c0,0,0-0.1,0-0.1c0-0.1,0.1-0.1,0.1-0.2c0.1,0,0.2,0,0.3,0c1,0,1.9,0,2.9,0
		c0.5,0,0.9,0,1.3,0.1c0.5,0.1,0.9,0.4,1.3,0.7c0.5,0.5,0.7,1,0.7,1.7c0,0.5-0.2,1-0.5,1.4c-0.4,0.5-0.8,0.7-1.4,0.8
		c-0.1,0-0.3,0-0.4,0.1c-0.2,0-0.5,0-0.7,0c-0.2,0-0.3,0-0.5-0.1c-0.2,0-0.3,0.1-0.3,0.3c0,0.7,0,1.4,0,2.1c0,0.1,0,0.3,0.1,0.4
		c0,0.2,0.1,0.3,0.3,0.3c0.1,0,0.2,0.1,0.4,0.1c0.1,0,0.1,0,0.2,0c0.1,0,0.2,0.1,0.2,0.3c0,0.1-0.1,0.2-0.2,0.2c0,0,0,0-0.1,0
		c0,0-0.1,0-0.2,0c-1,0-1.9,0-2.9,0c-0.1,0-0.2,0-0.3,0c-0.1,0-0.2-0.1-0.2-0.3c0,0,0,0,0-0.1c0-0.1,0.1-0.1,0.1-0.2
		c0.1,0,0.2,0,0.4-0.1c0.1,0,0.2,0,0.3-0.1c0.1,0,0.2-0.1,0.2-0.3c0-0.1,0.1-0.2,0.1-0.3c0-0.2,0-0.5,0-0.7
		C228.6,319.5,228.5,318.7,228.5,318C228.5,318,228.5,318,228.5,318z M230.1,316.1C230.1,316.1,230.1,316.1,230.1,316.1
		c0,0.3,0,0.7,0,1c0,0.1,0,0.2,0,0.4c0,0.1,0.1,0.1,0.1,0.2c0.2,0.1,0.5,0.1,0.7,0.1c0.1,0,0.1,0,0.2,0c0.7-0.2,1.1-0.8,1.1-1.3
		c0-0.2,0-0.3,0-0.5c0-0.3-0.1-0.6-0.3-0.8c-0.2-0.3-0.4-0.5-0.7-0.5c-0.3-0.1-0.7-0.1-1,0c-0.1,0-0.1,0.1-0.1,0.2
		c0,0.1,0,0.2,0,0.3C230.1,315.3,230.1,315.7,230.1,316.1z"/>
	<path class="st0" d="M270.1,322.2c-0.4,0-0.9,0-1.3,0c-0.1,0-0.2,0-0.3,0c-0.1,0-0.2-0.1-0.2-0.3c0-0.1,0.1-0.2,0.2-0.2
		c0.1-0.1,0.3-0.1,0.4-0.1c0.2,0,0.3-0.3,0.2-0.4c-0.1-0.2-0.1-0.4-0.2-0.6c-0.1-0.3-0.2-0.5-0.3-0.8c-0.1-0.2-0.2-0.3-0.5-0.3
		c-0.8,0-1.6,0-2.3,0c-0.1,0-0.1,0-0.2,0c-0.1,0-0.1,0-0.1,0.1c-0.2,0.5-0.4,1-0.6,1.4c0,0.1,0,0.1,0,0.2c0,0.1,0.1,0.3,0.2,0.3
		c0.1,0,0.1,0,0.2,0.1c0.1,0,0.2,0,0.3,0.1c0.2,0,0.2,0.2,0.2,0.4c0,0.1-0.1,0.1-0.1,0.2c0,0,0,0-0.1,0c0,0,0,0-0.1,0
		c-0.8,0-1.6,0-2.3,0c0,0-0.1,0-0.1,0c-0.1,0-0.1-0.1-0.1-0.1c-0.1-0.2,0-0.3,0.2-0.4c0.1,0,0.1,0,0.2-0.1c0.2-0.1,0.3-0.2,0.4-0.3
		c0.1-0.1,0.2-0.3,0.2-0.4c0.1-0.2,0.2-0.5,0.3-0.7c0.8-2,1.7-4,2.5-5.9c0.1-0.2,0.2-0.4,0.3-0.6c0.1-0.2,0.2-0.2,0.4-0.2
		c0.1,0,0.1,0,0.2,0.1c0.1,0.2,0.2,0.3,0.2,0.5c0.8,1.9,1.6,3.8,2.4,5.7c0.1,0.3,0.2,0.5,0.3,0.8c0.1,0.2,0.2,0.4,0.3,0.6
		c0.1,0.2,0.3,0.4,0.6,0.4c0.1,0,0.1,0,0.2,0.1c0.2,0.1,0.3,0.2,0.2,0.4c0,0.1,0,0.1-0.1,0.1c0,0-0.1,0-0.1,0c-0.1,0-0.2,0-0.4,0
		C270.9,322.2,270.5,322.2,270.1,322.2C270.1,322.2,270.1,322.2,270.1,322.2z M266.9,318.7c0.3,0,0.6,0,0.8,0c0.1,0,0.1,0,0.2,0
		c0.1,0,0.2-0.1,0.1-0.2c-0.3-0.7-0.6-1.4-0.9-2.1c0,0-0.1-0.1-0.1-0.1c0-0.1-0.1-0.1-0.1,0c-0.1,0.1-0.1,0.2-0.2,0.3
		c-0.3,0.6-0.5,1.2-0.8,1.8c0,0.1-0.1,0.1-0.1,0.2c0,0,0,0,0,0.1c0,0.1,0,0.2,0.1,0.2C266.3,318.7,266.6,318.6,266.9,318.7z"/>
	<path class="st0" d="M178.6,322.2c-0.4,0-0.9,0-1.4,0c-0.1,0-0.2-0.1-0.2-0.2c0-0.1,0.1-0.3,0.2-0.3c0.1,0,0.3-0.1,0.4-0.1
		c0.1,0,0.2-0.2,0.2-0.4c0,0,0-0.1,0-0.1c-0.2-0.5-0.4-1-0.6-1.5c0-0.1-0.1-0.1-0.2-0.1c-0.1,0-0.1,0-0.2,0c-0.8,0-1.5,0-2.3,0
		c-0.1,0-0.2,0-0.2,0c-0.1,0-0.1,0-0.2,0.1c-0.2,0.4-0.4,0.9-0.6,1.4c0,0.1,0,0.1,0,0.2c0,0.1,0.1,0.3,0.2,0.4
		c0.2,0,0.3,0.1,0.5,0.1c0,0,0.1,0,0.1,0.1c0.1,0,0.1,0.3,0,0.4c0,0,0,0-0.1,0c-0.1,0-0.1,0-0.2,0c-0.8,0-1.5,0-2.3,0
		c0,0-0.1,0-0.1,0c-0.1,0-0.1-0.1-0.1-0.1c0-0.2,0-0.3,0.2-0.4c0.1,0,0.2-0.1,0.3-0.1c0.1,0,0.3-0.1,0.4-0.3
		c0.1-0.1,0.2-0.2,0.2-0.4c0.1-0.3,0.3-0.6,0.4-0.9c0.8-1.9,1.6-3.9,2.5-5.8c0.1-0.2,0.2-0.4,0.3-0.6c0.1-0.1,0.2-0.2,0.4-0.2
		c0.1,0,0.1,0.1,0.2,0.1c0.1,0.2,0.2,0.4,0.3,0.6c0.8,1.9,1.6,3.7,2.3,5.6c0.1,0.3,0.2,0.5,0.3,0.8c0.1,0.2,0.2,0.5,0.4,0.7
		c0.1,0.2,0.3,0.3,0.5,0.4c0.1,0,0.2,0.1,0.3,0.1c0.2,0,0.2,0.2,0.2,0.3c0,0.1-0.1,0.2-0.1,0.2c-0.1,0-0.2,0-0.3,0
		C179.7,322.2,179.2,322.2,178.6,322.2z M175.5,318.7c0.3,0,0.6,0,0.8,0c0.1,0,0.1,0,0.2,0c0.1,0,0.2-0.1,0.1-0.2
		c-0.3-0.7-0.6-1.4-0.9-2.1c0,0,0,0,0-0.1c0,0-0.1-0.1-0.1-0.1c0,0-0.1,0-0.1,0.1c-0.3,0.7-0.6,1.4-0.9,2.1c0,0,0,0,0,0.1
		c0,0,0,0,0,0.1c0,0.1,0.1,0.1,0.1,0.2C175,318.7,175.3,318.6,175.5,318.7z"/>
	<path class="st0" d="M238.3,313.6c0.5,0,1.1,0,1.6,0c0.1,0,0.3,0.2,0.2,0.4c0,0.1-0.1,0.1-0.2,0.1c-0.1,0-0.2,0-0.4,0.1
		c0,0-0.1,0-0.1,0.1c-0.1,0-0.2,0.2-0.1,0.2c0,0.1,0,0.2,0,0.2c0.1,0.3,0.2,0.5,0.4,0.8c0.5,0.9,1,1.8,1.6,2.7
		c0,0.1,0.1,0.1,0.1,0.2c0,0.1,0.1,0,0.2,0c0,0,0.1-0.1,0.1-0.1c0.4-0.9,0.7-1.7,1.1-2.6c0.1-0.2,0.2-0.5,0.3-0.7
		c0.1-0.1,0.1-0.3,0.1-0.4c0-0.1-0.1-0.2-0.2-0.3c-0.1-0.1-0.2-0.1-0.3-0.1c-0.1,0-0.2-0.1-0.2-0.2c0-0.2,0.1-0.3,0.2-0.3
		c0,0,0,0,0.1,0c0.8,0,1.6,0,2.3,0c0.1,0,0.1,0,0.2,0.1c0.1,0.1,0.1,0.4-0.1,0.4c-0.1,0-0.1,0-0.2,0.1c-0.3,0.1-0.6,0.3-0.8,0.6
		c-0.1,0.1-0.2,0.3-0.3,0.5c-0.1,0.3-0.2,0.6-0.4,0.8c-0.4,1-0.8,1.9-1.2,2.9c-0.2,0.6-0.5,1.1-0.8,1.6c-0.2,0.3-0.3,0.6-0.6,0.9
		c-0.2,0.3-0.5,0.5-0.8,0.7c-0.3,0.2-0.7,0.2-1,0.2c-0.1,0-0.2,0-0.3-0.1c-0.1,0-0.2-0.1-0.3-0.2c-0.3-0.2-0.4-0.4-0.3-0.7
		c0-0.2,0.1-0.3,0.2-0.4c0.2-0.2,0.4-0.2,0.7-0.2c0.2,0.1,0.4,0.2,0.6,0.2c0.2,0.1,0.3,0,0.4-0.1c0.2-0.1,0.4-0.3,0.5-0.6
		c0-0.1,0.1-0.2,0-0.3c0-0.1-0.1-0.1-0.1-0.2c-0.9-1.6-1.8-3.1-2.7-4.7c-0.1-0.1-0.1-0.2-0.2-0.3c-0.1-0.1-0.1-0.2-0.2-0.3
		c-0.2-0.2-0.4-0.3-0.6-0.4c-0.1,0-0.2-0.1-0.3-0.1c-0.1,0-0.1-0.1-0.1-0.2c0,0,0-0.1,0-0.1c0-0.1,0.1-0.2,0.2-0.2
		c0.1,0,0.2,0,0.3,0C237.4,313.6,237.8,313.6,238.3,313.6C238.3,313.6,238.3,313.6,238.3,313.6z"/>
	<path class="st0" d="M361.2,313.6c0.4,0,0.8,0,1.3,0c0.1,0,0.2,0,0.3,0c0.1,0,0.3,0.2,0.2,0.3c0,0.1-0.1,0.2-0.2,0.2
		c-0.1,0-0.3,0.1-0.4,0.1c-0.1,0-0.2,0.2-0.2,0.4c0,0.1,0,0.1,0.1,0.2c0.1,0.2,0.2,0.5,0.4,0.7c0.5,0.9,1,1.8,1.6,2.7
		c0,0.1,0.1,0.1,0.1,0.2c0,0.1,0.1,0,0.2,0c0,0,0.1-0.1,0.1-0.1c0.4-0.9,0.7-1.8,1.1-2.6c0.1-0.2,0.2-0.4,0.2-0.6
		c0-0.1,0.1-0.2,0.1-0.4c0-0.2-0.1-0.3-0.3-0.4c-0.1,0-0.2-0.1-0.3-0.1c-0.2-0.1-0.3-0.3-0.1-0.5c0,0,0.1-0.1,0.1-0.1
		c0.1,0,0.2,0,0.3,0c0.7,0,1.4,0,2.1,0c0.1,0,0.2,0,0.2,0.1c0.1,0.2,0.1,0.4-0.1,0.4c0,0-0.1,0-0.1,0.1c-0.4,0.1-0.7,0.4-0.9,0.7
		c-0.1,0.1-0.1,0.2-0.2,0.3c-0.1,0.2-0.2,0.4-0.2,0.6c-0.4,1.1-0.9,2.1-1.3,3.2c-0.2,0.6-0.5,1.1-0.8,1.6c-0.1,0.3-0.3,0.6-0.5,0.8
		c-0.1,0.2-0.3,0.3-0.5,0.5c-0.5,0.4-1.1,0.5-1.8,0.4c-0.2-0.1-0.4-0.2-0.5-0.3c-0.1-0.2-0.1-0.4-0.1-0.6c0-0.1,0.1-0.2,0.2-0.3
		c0.2-0.2,0.4-0.2,0.7-0.2c0.2,0.1,0.5,0.2,0.7,0.3c0.1,0,0.3,0,0.4-0.1c0.2-0.2,0.4-0.4,0.5-0.6c0-0.1,0-0.1,0-0.2
		c0-0.1-0.1-0.2-0.1-0.3c-0.9-1.5-1.8-3.1-2.6-4.6c-0.1-0.2-0.2-0.4-0.4-0.6c-0.2-0.3-0.4-0.5-0.8-0.6c-0.1,0-0.1,0-0.2-0.1
		c-0.1-0.1-0.2-0.3,0-0.5c0,0,0.1-0.1,0.1-0.1c0.1,0,0.3,0,0.4,0C360.4,313.6,360.8,313.6,361.2,313.6
		C361.2,313.6,361.2,313.6,361.2,313.6z"/>
	<path class="st0" d="M115.6,313.6c0.5,0,0.9,0,1.4,0c0.1,0,0.2,0,0.3,0c0.1,0,0.1,0.1,0.2,0.1c0,0.1,0,0.1,0,0.2
		c0,0.1-0.1,0.1-0.1,0.2c-0.1,0-0.2,0-0.3,0.1c-0.1,0-0.1,0-0.2,0.1c-0.1,0-0.2,0.2-0.1,0.2c0,0.1,0,0.2,0.1,0.3
		c0.1,0.3,0.3,0.6,0.4,0.9c0.3,0.5,0.5,0.9,0.8,1.4c0.2,0.4,0.4,0.8,0.7,1.2c0,0.1,0.1,0.2,0.2,0.2c0,0.1,0.1,0,0.2,0
		c0-0.1,0.1-0.1,0.1-0.2c0.3-0.8,0.7-1.7,1-2.5c0.1-0.3,0.2-0.6,0.3-0.8c0-0.1,0-0.2,0-0.3c0-0.1-0.1-0.2-0.2-0.3
		c-0.1-0.1-0.2-0.1-0.3-0.1c-0.2-0.1-0.3-0.2-0.2-0.4c0,0,0,0,0-0.1c0,0,0,0,0.1,0c0.1,0,0.1,0,0.2,0c0.5,0,1,0,1.5,0
		c0.3,0,0.5,0,0.8,0c0.1,0,0.2,0.1,0.2,0.2c0,0.2,0,0.3-0.2,0.4c-0.5,0.1-0.9,0.5-1.1,0.9c-0.1,0.2-0.2,0.4-0.3,0.6
		c-0.5,1.1-0.9,2.2-1.4,3.2c-0.2,0.5-0.4,0.9-0.6,1.4c-0.1,0.3-0.3,0.5-0.4,0.8c-0.2,0.3-0.4,0.5-0.6,0.7c-0.5,0.5-1.1,0.6-1.8,0.4
		c-0.2,0-0.3-0.1-0.4-0.3c-0.2-0.2-0.2-0.4-0.2-0.6c0-0.1,0.1-0.2,0.1-0.3c0.2-0.2,0.4-0.3,0.7-0.3c0.1,0,0.3,0.1,0.4,0.1
		c0.1,0,0.2,0.1,0.3,0.1c0.2,0.1,0.3,0,0.5-0.1c0.2-0.1,0.3-0.3,0.4-0.5c0,0,0,0,0-0.1c0-0.1,0-0.1,0-0.2c0-0.1-0.1-0.1-0.1-0.2
		c-0.9-1.6-1.8-3.2-2.7-4.8c-0.1-0.2-0.2-0.3-0.3-0.5c-0.2-0.2-0.4-0.4-0.7-0.5c-0.1,0-0.1,0-0.2-0.1c-0.1,0-0.2-0.1-0.2-0.2
		c0,0,0-0.1,0-0.1c0-0.1,0.1-0.1,0.1-0.2c0.1,0,0.2,0,0.3,0C114.7,313.6,115.2,313.6,115.6,313.6z"/>
	<path class="st0" d="M94.9,318c0,0.4,0,0.8,0.1,1.3c0.1,0.3,0.2,0.6,0.3,0.9c0.2,0.4,0.5,0.7,0.9,0.9c0.5,0.3,1.5,0.5,2,0.3
		c0.2-0.1,0.4-0.1,0.6-0.2c0.3-0.1,0.5-0.3,0.7-0.5c0.2-0.2,0.5-0.5,0.7-0.7c0.1-0.1,0.1-0.2,0.2-0.2c0.1-0.1,0.1-0.1,0.2,0
		c0,0,0.1,0,0.1,0.1c0.1,0.1,0.1,0.2,0.1,0.3c0,0,0,0,0,0.1c-0.2,0.4-0.4,0.7-0.7,1c-0.5,0.5-1,0.9-1.7,1c-0.4,0.1-0.7,0.1-1.1,0.1
		c-0.4,0-0.9-0.1-1.3-0.2c-0.7-0.2-1.2-0.6-1.7-1.1c-0.6-0.7-1-1.5-1.1-2.5c0-0.5,0-1,0-1.4c0.2-1.5,1.1-2.9,2.7-3.5
		c0.4-0.2,0.8-0.3,1.2-0.3c0.1,0,0.2,0,0.4,0c0.5,0,1,0.1,1.5,0.3c0.2,0.1,0.4,0.2,0.6,0.2c0.1,0,0.2,0,0.3-0.1
		c0.1-0.1,0.1-0.2,0.2-0.3c0.1-0.1,0.2-0.2,0.4-0.1c0.1,0,0.1,0.1,0.1,0.2c0,0.1,0,0.2,0,0.3c0,0.5,0.1,1,0.1,1.6c0,0.3,0,0.5,0,0.8
		c0,0.1-0.1,0.2-0.2,0.2c-0.1,0-0.2,0-0.3-0.1c0,0-0.1-0.1-0.1-0.1c-0.1-0.2-0.1-0.3-0.2-0.5c-0.1-0.2-0.2-0.5-0.4-0.7
		c-0.4-0.5-0.9-0.8-1.5-1c-0.2,0-0.4,0-0.7,0c-0.9,0-1.5,0.4-2,1.1c-0.2,0.4-0.4,0.8-0.5,1.3C94.9,317.2,94.9,317.4,94.9,318z"/>
	<path class="st0" d="M107.6,313.6c1,0,2,0,2.9,0c0.1,0,0.2,0,0.4,0c0,0,0.1,0.1,0.2,0.1c0,0,0,0.1,0,0.1c0,0.5,0,1.1,0.1,1.6
		c0,0,0,0,0,0.1c0,0.1-0.1,0.2-0.3,0.2c-0.1,0-0.2-0.1-0.2-0.1c0-0.1-0.1-0.2-0.1-0.3c0-0.1,0-0.1-0.1-0.2c-0.1-0.3-0.3-0.5-0.5-0.6
		c-0.1,0-0.2-0.1-0.3-0.1c-0.4,0-0.8,0-1.2,0c-0.1,0-0.2,0.1-0.2,0.2c0,0,0,0.1,0,0.1c0,0.1,0,0.3,0,0.4c0,1.7,0,3.4,0,5.1
		c0,0.2,0,0.5,0,0.7c0,0.1,0,0.2,0.1,0.3c0,0.2,0.2,0.3,0.3,0.3c0.2,0,0.3,0.1,0.5,0.1c0,0,0.1,0,0.1,0.1c0.1,0,0.2,0.3,0.1,0.4
		c0,0-0.1,0.1-0.1,0.1c-0.1,0-0.1,0-0.2,0c-1,0-2,0-3,0c-0.1,0-0.1,0-0.2,0c-0.1,0-0.2-0.1-0.2-0.2c0,0,0-0.1,0-0.1
		c0-0.1,0.1-0.2,0.2-0.2c0.2,0,0.3,0,0.5-0.1c0.2,0,0.4-0.2,0.4-0.5c0-0.2,0-0.4,0-0.7c0-1,0-2.1,0-3.1c0-0.8,0-1.6,0-2.3
		c0-0.1,0-0.2,0-0.4c0-0.1-0.1-0.2-0.2-0.2c-0.4,0-0.7,0-1.1,0c-0.3,0-0.5,0.2-0.6,0.4c-0.1,0.1-0.2,0.3-0.2,0.4
		c0,0.1-0.1,0.3-0.1,0.4c0,0,0,0.1-0.1,0.1c-0.1,0.1-0.2,0.1-0.4,0c0,0-0.1-0.1-0.1-0.1c0,0,0,0,0-0.1c0-0.6,0-1.2,0.1-1.8
		c0-0.1,0.1-0.2,0.2-0.2c0.1,0,0.1,0,0.2,0c0.2,0,0.4,0,0.6,0C105.9,313.6,106.8,313.6,107.6,313.6
		C107.6,313.6,107.6,313.6,107.6,313.6z"/>
	<path class="st0" d="M257.3,313.6c1,0,2,0,2.9,0c0.1,0,0.2,0,0.4,0c0,0,0.1,0.1,0.2,0.2c0,0,0,0.1,0,0.1c0,0.5,0.1,1,0.1,1.6
		c0,0,0,0.1,0,0.1c0,0.1-0.1,0.2-0.2,0.2c0,0-0.1,0-0.1,0c-0.1,0-0.1-0.1-0.2-0.1c-0.1-0.2-0.1-0.3-0.1-0.5
		c-0.1-0.4-0.5-0.7-0.9-0.7c-0.3,0-0.7,0-1,0c-0.1,0-0.2,0.1-0.2,0.3c0,0,0,0.1,0,0.1c0,0.1,0,0.2,0,0.4c0,1.7,0,3.4,0,5
		c0,0.2,0,0.4,0,0.6c0,0.2,0,0.3,0.1,0.4c0.1,0.1,0.1,0.2,0.3,0.2c0.2,0.1,0.4,0,0.7,0.1c0.1,0,0.1,0.1,0.1,0.1c0,0.1,0,0.1,0,0.2
		c0,0.1,0,0.1-0.1,0.1c0,0-0.1,0-0.1,0c-0.1,0-0.2,0-0.3,0c-0.9,0-1.9,0-2.8,0c-0.1,0-0.2,0-0.3,0c-0.1,0-0.2-0.1-0.2-0.2
		c0,0,0-0.1,0-0.1c0-0.1,0.1-0.2,0.2-0.2c0.2,0,0.4-0.1,0.6-0.1c0.1,0,0.2-0.1,0.2-0.2c0-0.1,0.1-0.1,0.1-0.2c0-0.1,0-0.3,0-0.4
		c0-0.3,0-0.6,0-0.9c0-1.5,0-3,0-4.5c0-0.2,0-0.4,0-0.7c0-0.1-0.1-0.2-0.2-0.2c-0.1,0-0.3,0-0.4,0c-0.2,0-0.5,0-0.7,0
		c-0.1,0-0.2,0.1-0.3,0.1c-0.2,0.1-0.3,0.3-0.4,0.5c-0.1,0.2-0.1,0.3-0.1,0.5c0,0.2-0.2,0.3-0.4,0.2c-0.1,0-0.1-0.1-0.2-0.2
		c0,0,0-0.1,0-0.1c0-0.1,0-0.1,0-0.2c0-0.4,0.1-0.9,0.1-1.3c0,0,0-0.1,0-0.1c0-0.1,0.1-0.2,0.2-0.2c0.1,0,0.3,0,0.4,0
		C255.3,313.6,256.3,313.6,257.3,313.6C257.3,313.6,257.3,313.6,257.3,313.6z"/>
	<path class="st0" d="M136.9,322.2c-0.5,0-1,0-1.4,0c-0.1,0-0.2,0-0.3,0c-0.1,0-0.1-0.1-0.1-0.2c0-0.2,0.1-0.3,0.2-0.3
		c0.1,0,0.2,0,0.3,0c0.1,0,0.1,0,0.2,0c0.2,0,0.4-0.2,0.4-0.4c0-0.1,0-0.1,0-0.2c0-0.1,0-0.3,0-0.4c0-1.8,0-3.5,0-5.3
		c0-0.2,0-0.4,0-0.6c0-0.2-0.2-0.4-0.4-0.4c-0.1,0-0.2,0-0.4,0c-0.1,0-0.2,0-0.2,0c-0.1,0-0.1-0.1-0.1-0.2c0,0,0-0.1,0-0.1
		c0-0.1,0.1-0.2,0.2-0.2c0.1,0,0.1,0,0.2,0c1,0,2,0,3,0c0.1,0,0.1,0,0.2,0c0.1,0,0.2,0.1,0.2,0.2c0,0.1,0,0.2-0.1,0.3
		c0,0-0.1,0.1-0.1,0.1c-0.2,0-0.3,0-0.5,0.1c-0.2,0-0.4,0.2-0.4,0.4c0,0.1,0,0.2,0,0.3c0,0.2,0,0.4,0,0.6c0,1.6,0,3.2,0,4.8
		c0,0.3,0,0.5,0,0.8c0,0.2,0.2,0.4,0.4,0.4c0.2,0,0.4,0.1,0.6,0.1c0.1,0,0.2,0.1,0.2,0.2c0,0,0,0.1,0,0.1c0,0.1-0.1,0.2-0.2,0.2
		c-0.1,0-0.2,0-0.3,0C137.9,322.2,137.4,322.2,136.9,322.2C136.9,322.2,136.9,322.2,136.9,322.2z"/>
	<path class="st0" d="M196.6,313.6c0.5,0,0.9,0,1.4,0c0.1,0,0.2,0,0.3,0c0.1,0,0.2,0.1,0.2,0.2c0,0,0,0.1,0,0.1
		c0,0.1-0.1,0.1-0.1,0.2c0,0-0.1,0-0.1,0c-0.1,0-0.2,0-0.4,0c-0.2,0-0.4,0.2-0.5,0.4c0,0.1,0,0.2,0,0.3c0,0.2,0,0.3,0,0.5
		c0,1.6,0,3.3,0,4.9c0,0.2,0,0.5,0,0.7c0,0.3,0.2,0.5,0.5,0.5c0.2,0,0.3,0.1,0.5,0.1c0.1,0,0.1,0.1,0.1,0.2c0,0,0,0.1,0,0.1
		c0,0.1-0.1,0.2-0.1,0.2c-0.1,0-0.2,0-0.3,0c-0.7,0-1.4,0-2.1,0c-0.3,0-0.6,0-1,0c-0.1,0-0.1,0-0.2,0c0,0-0.1-0.1-0.1-0.2
		c0-0.2,0.1-0.3,0.2-0.3c0.1,0,0.3,0,0.4-0.1c0.3,0,0.4-0.2,0.5-0.5c0-0.2,0-0.4,0-0.7c0-0.8,0-1.5,0-2.3c0-0.9,0-1.8,0-2.7
		c0-0.2,0-0.4,0-0.7c0-0.3-0.3-0.5-0.5-0.5c-0.1,0-0.3,0-0.4,0c-0.1,0-0.2-0.1-0.2-0.3c0-0.1,0.1-0.3,0.2-0.3c0.1,0,0.2,0,0.3,0
		C195.7,313.6,196.2,313.6,196.6,313.6C196.6,313.6,196.6,313.6,196.6,313.6z"/>
</g>
</svg>
